STARTFONT 2.1
FONT -FontForge-Ideal Sans Semibold-SemiBold-R-Normal-Sans-48-460-75-75--274--
SIZE 46 75 75
FONTBOUNDINGBOX 70 68 -8 -14
COMMENT "Generated by fontforge, http://fontforge.sourceforge.net"
COMMENT "Copyright (C) 1990, 2011 Hoefler & Frere-Jones. http://www.typography.com"
STARTPROPERTIES 39
FOUNDRY "FontForge"
FAMILY_NAME "Ideal Sans Semibold"
WEIGHT_NAME "SemiBold"
SLANT "R"
SETWIDTH_NAME "Normal"
ADD_STYLE_NAME "Sans"
PIXEL_SIZE 48
POINT_SIZE 460
RESOLUTION_X 75
RESOLUTION_Y 75
SPACING ""
AVERAGE_WIDTH 0
CHARSET_REGISTRY ""
CHARSET_ENCODING ""
FONTNAME_REGISTRY ""
CHARSET_COLLECTIONS "ISO8859-2 ISO8859-9 ISO8859-4 ISO10646-1"
FONT_NAME "IdealSans-Semibold"
FACE_NAME "Ideal Sans Semibold"
COPYRIGHT "Copyright (C) 1990, 2011 Hoefler & Frere-Jones. http://www.typography.com"
FONT_VERSION "001.001"
FONT_ASCENT 38
FONT_DESCENT 10
UNDERLINE_POSITION -5
UNDERLINE_THICKNESS 3
X_HEIGHT 23
CAP_HEIGHT 34
RAW_ASCENT 800
RAW_DESCENT 200
NORM_SPACE 10
RELATIVE_WEIGHT 37
RELATIVE_SETWIDTH 50
SUPERSCRIPT_X 0
SUPERSCRIPT_Y 22
SUPERSCRIPT_SIZE 31
SUBSCRIPT_X 0
SUBSCRIPT_Y 6
SUBSCRIPT_SIZE 31
AVG_LOWERCASE_WIDTH 251
AVG_UPPERCASE_WIDTH 329
ENDPROPERTIES
CHARS 418
STARTCHAR space
ENCODING 32
SWIDTH 208 0
DWIDTH 10 0
BBX 1 1 0 0
BITMAP
00
ENDCHAR
STARTCHAR exclam
ENCODING 33
SWIDTH 277 0
DWIDTH 13 0
BBX 8 36 3 -1
BITMAP
FF
FF
FF
FE
FE
FE
FE
FE
FE
FE
FE
FE
FE
FE
FE
7E
7E
7E
7E
7E
7C
7C
7C
7C
00
00
00
00
3C
FE
FF
FF
FF
FF
FE
3C
ENDCHAR
STARTCHAR quotedbl
ENCODING 34
SWIDTH 400 0
DWIDTH 19 0
BBX 16 16 2 20
BITMAP
0003
0E7F
FE7E
FC7E
FC7E
FC7E
F87C
F87C
F87C
F87C
F078
F078
F078
E078
E070
8000
ENDCHAR
STARTCHAR numbersign
ENCODING 35
SWIDTH 726 0
DWIDTH 35 0
BBX 33 32 1 0
BITMAP
003E07E000
003E07E000
003E07E000
003E07C000
007E07C000
007E07C000
007C07C000
007C07C000
3FFFFFFF80
3FFFFFFF00
3FFFFFFF00
3FFFFFFF00
3FFFFFFF00
00FC0F8000
00F80F8000
00F80F8000
00F81F8000
00F81F8000
00F81F0000
00F81F0000
7FFFFFFE00
7FFFFFFE00
7FFFFFFE00
FFFFFFFC00
FFFFFFFC00
01F03F0000
01F03E0000
01F03E0000
03F03E0000
03F03E0000
03E07E0000
03E07E0000
ENDCHAR
STARTCHAR dollar
ENCODING 36
SWIDTH 542 0
DWIDTH 26 0
BBX 22 42 2 -6
BITMAP
001F00
001E00
001E00
001E00
007E00
03FFE0
0FFFF8
1FFFF8
3FFFF8
7FFFF8
7F1CF0
7E1C10
FE3C00
FC3C00
FE3C00
FF3C00
7FBC00
7FFC00
3FFE00
1FFF80
0FFFE0
03FFF0
00FFF8
007FFC
007FFC
0079FC
0078FC
0078FC
8070FC
E070FC
F871FC
FFF7F8
FFFFF8
FFFFF0
FFFFE0
3FFF80
07FE00
00F000
01F000
01F000
01F000
01F000
ENDCHAR
STARTCHAR percent
ENCODING 37
SWIDTH 746 0
DWIDTH 36 0
BBX 33 35 1 -2
BITMAP
0000001000
01F0001C00
07FC003E00
0FFE007C00
1FFE00F800
1F1F00F800
3E1F01F000
7C1F03E000
7C1F07C000
7C1F078000
783E0F8000
F83E1F0000
F83E3E0000
F87C7C0000
7CFC7C0000
7FF8F80000
7FF1F07C00
3FE3E1FF00
0F83E3FF00
0007C7FF80
000F8FCF80
001F0F8780
001E1F0780
003E1F0780
007C3E0F80
00F83E0F80
01F03E0F80
01F03E1F00
03E03E1F00
07C03E3E00
0F801FFE00
0F801FFC00
1F000FF000
0E0007E000
0400000000
ENDCHAR
STARTCHAR ampersand
ENCODING 38
SWIDTH 727 0
DWIDTH 35 0
BBX 31 35 2 -2
BITMAP
000FC000
007FF000
00FFFC00
01FFFE00
03FFFE00
03F87F00
07F07F00
07F03F00
07F03F00
07F07F00
07F07E00
03F8FE00
03FBFC00
01FFF800
01FFF000
03FFE000
07FF8010
1FFFC038
3FFFE07C
7FDFF0FE
7F0FF9FE
FF07FFFC
FE03FFF8
FE01FFF0
FE00FFE0
FE003FE0
FF00FFF0
FF83FFF8
7FFFFFFC
7FFFFFFE
3FFFF1FE
1FFFE0FE
0FFF807C
01FC0038
00000010
ENDCHAR
STARTCHAR quotesingle
ENCODING 39
SWIDTH 209 0
DWIDTH 10 0
BBX 7 15 2 20
BITMAP
0E
FE
FC
FC
FC
F8
F8
F8
F8
F0
F0
F0
E0
E0
80
ENDCHAR
STARTCHAR parenleft
ENCODING 40
SWIDTH 409 0
DWIDTH 20 0
BBX 18 46 2 -11
BITMAP
000200
000F00
001F80
003FC0
007F00
00FE00
01FC00
03F800
07F000
07F000
0FE000
0FC000
1FC000
1F8000
3F8000
3F8000
7F0000
7F0000
7F0000
7F0000
7F0000
7E0000
FE0000
FE0000
FE0000
7E0000
7F0000
7F0000
7F0000
7F0000
7F0000
3F8000
3F8000
1F8000
1FC000
0FE000
0FE000
07F000
07F800
03F800
01FC00
00FE00
007F80
003FC0
001F80
000700
ENDCHAR
STARTCHAR parenright
ENCODING 41
SWIDTH 409 0
DWIDTH 20 0
BBX 17 47 0 -12
BITMAP
300000
780000
7C0000
FF0000
7F8000
3FC000
1FE000
0FF000
07F000
03F800
01FC00
01FC00
00FE00
00FE00
007E00
007F00
007F00
003F00
003F80
003F80
003F80
003F80
003F80
003F80
003F80
003F80
003F80
003F80
003F00
007F00
007F00
007F00
007E00
00FE00
00FC00
01FC00
03F800
03F800
07F000
0FE000
1FC000
3F8000
7F0000
FE0000
7C0000
380000
200000
ENDCHAR
STARTCHAR asterisk
ENCODING 42
SWIDTH 387 0
DWIDTH 19 0
BBX 16 17 2 19
BITMAP
0180
01F0
21F0
71E0
F9E0
FDC1
FFDF
3FFF
0FFF
0FFF
3FC3
FFE0
FDE0
F9F0
70F0
20F8
00E0
ENDCHAR
STARTCHAR plus
ENCODING 43
SWIDTH 565 0
DWIDTH 27 0
BBX 21 21 3 3
BITMAP
00F800
00F800
00F800
00F800
00F800
00F800
00F800
00F800
FFFFF8
FFFFF8
FFFFF8
FFFFF8
FFFFF8
00F800
00F800
00F800
00F800
00F800
00F800
00F800
00F800
ENDCHAR
STARTCHAR comma
ENCODING 44
SWIDTH 260 0
DWIDTH 12 0
BBX 11 17 0 -10
BITMAP
0F80
1FC0
3FC0
3FE0
3FE0
1FE0
07E0
07E0
07C0
07C0
0780
0F00
1F00
3E00
F800
7000
2000
ENDCHAR
STARTCHAR hyphen
ENCODING 45
SWIDTH 402 0
DWIDTH 19 0
BBX 14 5 3 11
BITMAP
FFFC
FFFC
FFFC
FFFC
FFFC
ENDCHAR
STARTCHAR period
ENCODING 46
SWIDTH 259 0
DWIDTH 12 0
BBX 8 8 2 -1
BITMAP
3E
7F
FF
FF
FF
FF
7E
3C
ENDCHAR
STARTCHAR slash
ENCODING 47
SWIDTH 355 0
DWIDTH 17 0
BBX 18 47 -1 -12
BITMAP
000FC0
000FC0
000F80
000F80
001F80
001F00
001F00
001F00
003F00
003E00
003E00
003E00
007C00
007C00
007C00
00FC00
00F800
00F800
00F800
01F000
01F000
01F000
03F000
03E000
03E000
03E000
07E000
07C000
07C000
0FC000
0F8000
0F8000
0F8000
1F8000
1F0000
1F0000
3F0000
3E0000
3E0000
3E0000
7E0000
7C0000
7C0000
FC0000
F80000
F80000
F80000
ENDCHAR
STARTCHAR zero
ENCODING 48
SWIDTH 594 0
DWIDTH 29 0
BBX 25 26 2 -1
BITMAP
007F0000
03FFE000
07FFF000
0FFFF800
1FFFFC00
3FFFFE00
7F81FE00
7F00FF00
7F007F00
FE007F00
FE007F80
FE003F80
FE003F80
FE003F80
FE003F80
FE007F00
FE007F00
FF007F00
7F00FF00
7F81FE00
3FF7FC00
3FFFFC00
1FFFF800
0FFFF000
03FFC000
00FF0000
ENDCHAR
STARTCHAR one
ENCODING 49
SWIDTH 365 0
DWIDTH 18 0
BBX 13 25 1 0
BITMAP
00F8
0FF8
FFF8
FFF8
FFF8
FFF8
FFF8
67F8
07F8
07F8
07F8
07F8
07F8
07F8
07F8
07F8
07F8
07F8
07F8
07F8
07F8
07F8
07F8
07F8
07F8
ENDCHAR
STARTCHAR two
ENCODING 50
SWIDTH 497 0
DWIDTH 24 0
BBX 21 26 1 -1
BITMAP
01FC00
0FFF80
3FFFC0
3FFFE0
3FFFE0
3FFFF0
3C0FF0
1007F0
0007F0
0007F0
0007F0
000FE0
001FE0
003FC0
007F80
00FF00
01FE00
07FC00
0FF800
1FE000
7FFFF8
FFFFF8
7FFFF8
7FFFF8
7FFFF8
7FFFF8
ENDCHAR
STARTCHAR three
ENCODING 51
SWIDTH 482 0
DWIDTH 23 0
BBX 20 33 1 -8
BITMAP
03F800
1FFF00
7FFF80
7FFFC0
7FFFE0
7FFFE0
381FE0
200FE0
000FE0
000FE0
000FE0
001FC0
003FC0
00FF80
0FFE00
0FF800
0FFE00
0FFF80
0FFFC0
003FE0
000FF0
000FF0
0007F0
0007F0
0007F0
000FF0
C03FE0
FFFFE0
FFFFC0
FFFF80
FFFF00
7FFC00
010000
ENDCHAR
STARTCHAR four
ENCODING 52
SWIDTH 560 0
DWIDTH 27 0
BBX 26 33 0 -8
BITMAP
0001F800
0003F800
0007F800
000FF800
000FF800
001FF800
003FF800
007FF800
007FF800
00FDF800
01FDF800
03F9F800
03F1F800
07E1F800
0FE1F800
1FC1F800
1F81F800
3F01F800
7F01FFC0
FFFFFFC0
7FFFFFC0
7FFFFFC0
7FFFFFC0
7FFFFFC0
0003F800
0003F800
0003F800
0003F800
0003F800
0003F800
0003F800
0003F800
0003F800
ENDCHAR
STARTCHAR five
ENCODING 53
SWIDTH 496 0
DWIDTH 24 0
BBX 20 33 2 -8
BITMAP
7FFFE0
7FFFE0
7FFFE0
7FFFE0
7FFFE0
7FFFE0
7E0000
7E0000
7E0000
7E0000
7E0000
7E0000
7E0000
7FFC00
7FFF80
7FFFC0
7FFFE0
7FFFE0
003FF0
000FF0
0007F0
0007F0
0007F0
0007F0
000FF0
001FE0
00FFE0
FFFFC0
FFFFC0
FFFF00
FFFE00
FFF800
3F0000
ENDCHAR
STARTCHAR six
ENCODING 54
SWIDTH 565 0
DWIDTH 27 0
BBX 23 33 2 -1
BITMAP
0000F0
0007F8
003FF8
007FF8
01FFF8
03FFF8
07FF00
0FFC00
1FF000
1FE000
3FC000
3F8000
7F1F80
7F7FE0
7FFFF8
FFFFF8
FFFFFC
FF01FE
FE01FE
FE00FE
FE00FE
FE00FE
FE00FE
FE00FE
FF00FE
7F00FE
7F81FC
3FE7FC
3FFFF8
1FFFF0
0FFFE0
03FFC0
00FE00
ENDCHAR
STARTCHAR seven
ENCODING 55
SWIDTH 506 0
DWIDTH 24 0
BBX 22 32 1 -8
BITMAP
7FFFFC
7FFFFC
FFFFFC
FFFFFC
FFFFFC
FFFFF8
0007F8
0007F0
000FF0
000FE0
000FE0
001FC0
001FC0
003F80
003F80
007F00
007F00
00FF00
00FE00
01FE00
01FC00
03FC00
03F800
07F800
07F000
07F000
0FE000
0FE000
1FC000
3FC000
0FC000
038000
ENDCHAR
STARTCHAR eight
ENCODING 56
SWIDTH 541 0
DWIDTH 26 0
BBX 22 33 2 -1
BITMAP
00FE00
07FF80
0FFFE0
1FFFF0
3FFFF0
7F83F8
7F01F8
7E01FC
7E01FC
7E01FC
7F01F8
7F03F8
3F87F8
3FEFF0
1FFFE0
0FFF80
07FFC0
1FFFE0
3FFFF0
7F87F8
FF03FC
FE01FC
FE01FC
FE01FC
FE01FC
FE01FC
FE01FC
FF87F8
7FFFF8
3FFFF0
1FFFE0
0FFF80
01FE00
ENDCHAR
STARTCHAR nine
ENCODING 57
SWIDTH 567 0
DWIDTH 27 0
BBX 23 33 2 -8
BITMAP
00FE00
07FFC0
0FFFE0
1FFFF0
3FFFF8
7FCFF8
7F03FC
FF01FC
FE01FE
FE00FE
FE00FE
FE00FE
FE00FE
FE00FE
FF00FE
7F80FE
7FFFFE
3FFFFE
1FFFFC
0FFFFC
03F9FC
0003F8
0007F8
000FF0
001FF0
007FE0
01FFC0
1FFF80
3FFF00
1FFC00
1FF000
1FC000
1E0000
ENDCHAR
STARTCHAR colon
ENCODING 58
SWIDTH 268 0
DWIDTH 13 0
BBX 9 22 2 -1
BITMAP
3E00
7F00
7F00
FF80
FF80
7F00
7F00
3C00
0000
0000
0000
0000
0000
0000
3E00
7F00
7F00
FF80
FF80
7F00
7F00
3C00
ENDCHAR
STARTCHAR semicolon
ENCODING 59
SWIDTH 269 0
DWIDTH 13 0
BBX 10 31 1 -10
BITMAP
1F00
3F80
3F80
7FC0
7FC0
3F80
3F80
1E00
0000
0000
0000
0000
0000
0000
1F00
3F80
7F80
7FC0
7FC0
3FC0
0FC0
0FC0
0F80
0F80
0F00
1F00
3E00
7C00
F800
F000
4000
ENDCHAR
STARTCHAR less
ENCODING 60
SWIDTH 570 0
DWIDTH 27 0
BBX 17 24 5 2
BITMAP
000400
000E00
001F00
003F80
00FF00
01FE00
03FC00
07F000
1FE000
3FC000
7F8000
FF0000
FE0000
FF0000
7F8000
1FE000
0FF000
07F800
03FE00
00FF00
007F80
003F00
001E00
000400
ENDCHAR
STARTCHAR equal
ENCODING 61
SWIDTH 565 0
DWIDTH 27 0
BBX 19 14 4 6
BITMAP
FFFFE0
FFFFE0
FFFFE0
FFFFE0
FFFFE0
000000
000000
000000
000000
FFFFE0
FFFFE0
FFFFE0
FFFFE0
FFFFE0
ENDCHAR
STARTCHAR greater
ENCODING 62
SWIDTH 570 0
DWIDTH 27 0
BBX 16 24 6 2
BITMAP
2000
7000
7C00
FE00
FF00
7F80
1FE0
0FF0
07F8
01FC
00FF
007F
007F
00FF
01FC
03F8
0FF0
1FE0
3FC0
FF00
FE00
FC00
7800
3000
ENDCHAR
STARTCHAR question
ENCODING 63
SWIDTH 475 0
DWIDTH 23 0
BBX 20 36 2 -1
BITMAP
00E000
1FFE00
7FFF80
FFFFC0
FFFFE0
FFFFE0
F81FE0
600FF0
000FF0
000FE0
001FE0
007FE0
01FFC0
07FF80
0FFE00
1FF800
3FE000
3F8000
3F0000
3F0000
3F8000
3FFC00
1FFC00
1FFE00
07FE00
000000
000000
000000
03C000
0FE000
0FF000
0FF000
0FF000
0FF000
0FE000
03C000
ENDCHAR
STARTCHAR at
ENCODING 64
SWIDTH 873 0
DWIDTH 42 0
BBX 37 38 3 -7
BITMAP
0001FFC000
000FFFF800
003FFFFC00
00FF00FF00
01F8001F80
03E00007C0
07C00003C0
0F000001E0
1F000001E0
1E00F870F0
3C03FFE0F0
3807FFE070
780FFFE078
701FCFE078
F03F07E078
F03F07E078
E07E07C078
E07E07C070
E07C0FC070
E0FC0FC070
E0FC0FC0F0
E0FC1FC0E0
E0FC3F81E0
E0FE7F83C0
E0FFEFC780
F07FEFFF00
F07FC7FE00
783F07FC00
780C00C000
3C00000000
3E00000000
1F00000000
0F80000C00
07E0003E00
03FC07FE00
00FFFFF800
003FFFC000
0007FC0000
ENDCHAR
STARTCHAR A
ENCODING 65
SWIDTH 743 0
DWIDTH 36 0
BBX 35 36 0 -1
BITMAP
0001F00000
0003F80000
0003F80000
0003FC0000
0007FC0000
0007FC0000
000FFE0000
000FFE0000
000FFF0000
001FFF0000
001FFF8000
003FBF8000
003FBFC000
007F1FC000
007F1FC000
007F1FE000
00FE0FE000
00FE0FF000
01FC07F000
01FC07F800
03FC07F800
03F803FC00
03FFFFFC00
07FFFFFC00
07FFFFFE00
0FFFFFFE00
0FFFFFFF00
1FE000FF00
1FE000FF80
1FC0007F80
3FC0007F80
3FC0003FC0
7F80003FC0
7F80003FE0
FF00001FE0
0000001E00
ENDCHAR
STARTCHAR B
ENCODING 66
SWIDTH 647 0
DWIDTH 31 0
BBX 25 35 4 0
BITMAP
FFFF0000
FFFFE000
FFFFF800
FFFFFC00
FFFFFC00
FFFFFE00
FF03FE00
FF00FF00
FF00FF00
FF00FF00
FF00FF00
FF00FE00
FF00FE00
FF01FE00
FF07FC00
FFFFF800
FFFFE000
FFFFF000
FFFFFC00
FFFFFE00
FF03FF00
FF00FF00
FF007F80
FF003F80
FF003F80
FF003F80
FF007F80
FF007F80
FF01FF80
FFFFFF00
FFFFFF00
FFFFFE00
FFFFFC00
FFFFF000
FFFF8000
ENDCHAR
STARTCHAR C
ENCODING 67
SWIDTH 678 0
DWIDTH 33 0
BBX 29 36 2 -1
BITMAP
0003FE00
001FFFC0
007FFFF0
01FFFFF0
03FFFFF0
07FFFFF0
0FFF8FF0
1FFC00E0
1FF00020
3FE00000
3FC00000
7F800000
7F800000
7F000000
FF000000
FF000000
FF000000
FF000000
FF000000
FF000000
FF000000
FF000000
FF000000
7F800000
7F800000
7FC00008
3FE00018
3FF00030
1FF800F0
1FFF8FF0
0FFFFFF0
07FFFFF0
01FFFFF0
00FFFFE0
003FFF80
0007FC00
ENDCHAR
STARTCHAR D
ENCODING 68
SWIDTH 741 0
DWIDTH 36 0
BBX 30 35 4 0
BITMAP
FFFF0000
FFFFE000
FFFFFC00
FFFFFE00
FFFFFF80
FFFFFFC0
FF01FFC0
FF007FE0
FF001FF0
FF001FF0
FF000FF8
FF0007F8
FF0007F8
FF0007F8
FF0003F8
FF0003FC
FF0003FC
FF0003FC
FF0003FC
FF0003F8
FF0003F8
FF0007F8
FF0007F8
FF0007F8
FF000FF0
FF001FF0
FF001FE0
FF007FE0
FF01FFC0
FFFFFF80
FFFFFF00
FFFFFE00
FFFFFC00
FFFFF000
FFFF0000
ENDCHAR
STARTCHAR E
ENCODING 69
SWIDTH 572 0
DWIDTH 27 0
BBX 22 36 4 -1
BITMAP
FFFFF8
FFFFF8
FFFFF8
FFFFF8
FFFFF8
FFFFF8
FF0000
FF0000
FF0000
FF0000
FF0000
FF0000
FF0000
FF0000
FFFFE0
FFFFE0
FFFFE0
FFFFE0
FFFFE0
FFFFE0
FF0000
FF0000
FF0000
FF0000
FF0000
FF0000
FF0000
FF0000
FF0000
FF0000
FFFFFC
FFFFFC
FFFFFC
FFFFFC
FFFFFC
FFFFFC
ENDCHAR
STARTCHAR F
ENCODING 70
SWIDTH 552 0
DWIDTH 27 0
BBX 21 35 4 0
BITMAP
FFFFF8
FFFFF8
FFFFF8
FFFFF8
FFFFF8
FFFFF8
FF0000
FF0000
FF0000
FF0000
FF0000
FF0000
FF0000
FF0000
FF0000
FFFFC0
FFFFC0
FFFFC0
FFFFC0
FFFFC0
FFFFC0
FF0000
FF0000
FF0000
FF0000
FF0000
FF0000
FF0000
FF0000
FF0000
FF0000
FF0000
FF0000
FF0000
FF0000
ENDCHAR
STARTCHAR G
ENCODING 71
SWIDTH 741 0
DWIDTH 36 0
BBX 31 36 2 -1
BITMAP
0003FE00
001FFFC0
007FFFF8
01FFFFFC
03FFFFFC
07FFFFF8
0FFFDFF8
1FFC00F8
1FF00030
3FE00000
3FC00000
7F800000
7F800000
7F000000
FF000000
FF000000
FF00FFFE
FF00FFFE
FF00FFFE
FF00FFFE
FF00FFFE
FF00FFFE
FF0000FE
7F8000FE
7F8000FE
7FC000FC
3FE000FC
3FF000FC
1FF800FC
1FFF07FC
0FFFFFFC
07FFFFFC
01FFFFFC
00FFFFF8
003FFFE0
0007FE00
ENDCHAR
STARTCHAR H
ENCODING 72
SWIDTH 791 0
DWIDTH 38 0
BBX 30 35 4 0
BITMAP
0100000C
FF0003FC
FF0003FC
FF0003FC
FF0003FC
FF0003FC
FF0003FC
FF0003FC
FF0003FC
FF0003FC
FF0003FC
FF0003FC
FF0003FC
FF0003FC
FF0003FC
FFFFFFFC
FFFFFFFC
FFFFFFFC
FFFFFFFC
FFFFFFFC
FFFFFFFC
FF0003FC
FF0003FC
FF0003FC
FF0003FC
FF0003FC
FF0003FC
FF0003FC
FF0003FC
FF0003FC
FF0003FC
FF0003FC
FF0003FC
FF0003FC
FF0003FC
ENDCHAR
STARTCHAR I
ENCODING 73
SWIDTH 340 0
DWIDTH 16 0
BBX 8 35 4 0
BITMAP
01
FF
FF
FF
FF
FF
FF
FF
FF
FF
FF
FF
FF
FF
FF
FF
FF
FF
FF
FF
FF
FF
FF
FF
FF
FF
FF
FF
FF
FF
FF
FF
FF
FF
FF
ENDCHAR
STARTCHAR J
ENCODING 74
SWIDTH 468 0
DWIDTH 22 0
BBX 18 36 1 -1
BITMAP
0000C0
003FC0
003FC0
003FC0
003FC0
003FC0
003FC0
003FC0
003FC0
003FC0
003FC0
003FC0
003FC0
003FC0
003FC0
003FC0
003FC0
003FC0
003FC0
003FC0
003FC0
003FC0
003FC0
003FC0
003FC0
003FC0
003FC0
007F80
C07F80
FFFF80
FFFF80
FFFF00
FFFF00
FFFE00
FFFC00
1FE000
ENDCHAR
STARTCHAR K
ENCODING 75
SWIDTH 703 0
DWIDTH 34 0
BBX 29 36 4 -1
BITMAP
01000000
FF000FF8
FF001FF0
FF003FE0
FF007FC0
FF00FF80
FF00FF00
FF01FF00
FF03FE00
FF07FC00
FF0FF800
FF0FF000
FF1FE000
FF3FC000
FF7FC000
FF7F8000
FFFF0000
FFFE0000
FFFF0000
FFFF8000
FF7F8000
FF7FC000
FF3FE000
FF1FF000
FF0FF800
FF07F800
FF07FC00
FF03FE00
FF01FF00
FF00FF80
FF00FFC0
FF007FC0
FF003FE0
FF001FF0
FF000FF8
00000FF8
ENDCHAR
STARTCHAR L
ENCODING 76
SWIDTH 555 0
DWIDTH 27 0
BBX 22 36 4 -1
BITMAP
010000
FF0000
FF0000
FF0000
FF0000
FF0000
FF0000
FF0000
FF0000
FF0000
FF0000
FF0000
FF0000
FF0000
FF0000
FF0000
FF0000
FF0000
FF0000
FF0000
FF0000
FF0000
FF0000
FF0000
FF0000
FF0000
FF0000
FF0000
FF0000
FF0000
FFFFFC
FFFFFC
FFFFFC
FFFFF8
FFFFF8
FFFFF8
ENDCHAR
STARTCHAR M
ENCODING 77
SWIDTH 921 0
DWIDTH 44 0
BBX 40 36 2 -1
BITMAP
07C00003E0
07C00003E0
07E00007F0
0FE00007F0
0FF00007F0
0FF0000FF0
0FF8000FF0
0FF8001FF0
0FFC001FF0
0FFC003FF0
0FFC003FF8
1FFE003FF8
1FFE007FF8
1FFF007FF8
1FFF00FFF8
1FFF80FFF8
1FFF81FFF8
1FDFC1FBFC
1F9FC1FBFC
3F9FC3F1FC
3F8FE3F1FC
3F8FE7F1FC
3F87F7E1FC
3F87FFE1FC
3F87FFC1FC
3F83FFC1FE
7F03FF81FE
7F01FF80FE
7F01FF80FE
7F00FF00FE
7F00FF00FE
7F00FE00FF
7F007E00FF
FF007E00FF
FF003C00FF
00003C00F0
ENDCHAR
STARTCHAR N
ENCODING 78
SWIDTH 794 0
DWIDTH 38 0
BBX 30 36 4 -1
BITMAP
F8000004
FC0003FC
FE0001FC
FF0001FC
FF0001FC
FF8001FC
FFC001FC
FFE001FC
FFF001FC
FFF001FC
FFF801FC
FFFC01FC
FFFE01FC
FFFF01FC
FEFF81FC
FE7F81FC
FE3FC1FC
FE3FE1FC
FE1FF1FC
FE0FF9FC
FE07F9FC
FE03FDFC
FE03FFFC
FE01FFFC
FE00FFFC
FE007FFC
FE003FFC
FE001FFC
FE001FFC
FE000FFC
FE0007FC
FE0003FC
FE0001FC
FE0001FC
FF0000FC
0000007C
ENDCHAR
STARTCHAR O
ENCODING 79
SWIDTH 794 0
DWIDTH 38 0
BBX 34 36 2 -1
BITMAP
0007FC0000
003FFF8000
00FFFFC000
01FFFFF000
03FFFFF800
07FFFFFC00
0FFE0FFE00
1FF003FE00
1FE001FF00
3FC000FF80
3FC0007F80
7F80007F80
7F00003FC0
7F00003FC0
FF00003FC0
FF00003FC0
FF00001FC0
FF00001FC0
FF00001FC0
FF00001FC0
FF00003FC0
FF00003FC0
FF00003F80
FF00003F80
7F80007F80
7F80007F80
3FC000FF00
3FE001FF00
1FF003FE00
1FFC0FFC00
0FFFFFF800
07FFFFF000
03FFFFE000
00FFFFC000
007FFF0000
000FF80000
ENDCHAR
STARTCHAR P
ENCODING 80
SWIDTH 612 0
DWIDTH 29 0
BBX 25 35 4 0
BITMAP
FFFE0000
FFFFC000
FFFFF000
FFFFF800
FFFFFC00
FFFFFE00
FF03FF00
FF01FF00
FF00FF00
FF007F00
FF007F80
FF007F80
FF007F00
FF007F00
FF007F00
FF00FF00
FF01FE00
FF07FE00
FFFFFC00
FFFFFC00
FFFFF800
FFFFE000
FFFF8000
FFF80000
FF000000
FF000000
FF000000
FF000000
FF000000
FF000000
FF000000
FF000000
FF000000
FF000000
FF000000
ENDCHAR
STARTCHAR Q
ENCODING 81
SWIDTH 796 0
DWIDTH 38 0
BBX 38 42 2 -7
BITMAP
0007FC0000
003FFF8000
00FFFFE000
01FFFFF000
03FFFFF800
07FFFFFC00
0FFE0FFE00
1FF003FF00
3FE001FF00
3FC000FF80
7F80007F80
7F80007F80
7F00003FC0
7F00003FC0
FF00003FC0
FF00003FC0
FF00001FC0
FF00001FC0
FF00001FC0
FF00001FC0
FF00003FC0
FF00003FC0
FF00003F80
7F80007F80
7F80007F80
7FC000FF00
3FC001FF00
3FF003FE00
1FF807FE00
0FFFFFFC00
07FFFFF800
03FFFFF000
01FFFFE000
00FFFF8000
001FFFF800
0001FFFF00
00003FFFF0
000007FFFC
000001FFF8
0000003FF0
00000007E0
00000001C0
ENDCHAR
STARTCHAR R
ENCODING 82
SWIDTH 673 0
DWIDTH 32 0
BBX 27 36 4 -1
BITMAP
00FE0000
FFFFE000
FFFFF800
FFFFFC00
FFFFFE00
FFFFFF00
FFFFFF00
FF01FF00
FF00FF80
FF007F80
FF007F80
FF007F80
FF007F80
FF007F80
FF007F00
FF00FF00
FF01FE00
FF0FFE00
FFFFFC00
FFFFF800
FFFFE000
FFFFE000
FFFFE000
FF0FF000
FF07F800
FF07F800
FF03FC00
FF03FE00
FF01FE00
FF01FF00
FF00FF00
FF007F80
FF007FC0
FF003FE0
FF003FE0
00001F80
ENDCHAR
STARTCHAR S
ENCODING 83
SWIDTH 551 0
DWIDTH 26 0
BBX 23 36 2 -1
BITMAP
00FF00
03FFF0
0FFFFC
1FFFF8
1FFFF8
3FFFF8
3FE1F0
7F8030
7F8000
7F0000
7F0000
7F8000
7FC000
3FE000
3FF800
1FFE00
0FFF80
07FFC0
03FFE0
00FFF0
003FF8
001FFC
0007FC
0003FC
0001FC
0001FE
8001FC
E001FC
F803FC
FF07FC
FFFFF8
FFFFF8
FFFFF0
7FFFE0
1FFF80
03FE00
ENDCHAR
STARTCHAR T
ENCODING 84
SWIDTH 662 0
DWIDTH 32 0
BBX 30 35 1 0
BITMAP
FFFFFFFC
FFFFFFF8
FFFFFFF8
FFFFFFF8
FFFFFFF8
FFFFFFF8
FFFFFFF8
001FE000
001FE000
001FE000
001FE000
001FE000
001FE000
001FE000
001FE000
001FE000
001FE000
001FE000
001FE000
001FE000
001FE000
001FE000
001FE000
001FE000
001FE000
001FE000
001FE000
001FE000
001FE000
001FE000
001FE000
001FE000
001FE000
001FE000
001FE000
ENDCHAR
STARTCHAR U
ENCODING 85
SWIDTH 772 0
DWIDTH 37 0
BBX 31 36 3 -1
BITMAP
01800006
FF8003FC
FF8003FC
7F8003FC
7F0003FC
7F0003FC
7F0001FC
7F0001FC
7F0001FC
7F0001FC
7F0001FC
7F0001FC
7F0001FC
7F0001FC
7F0001FC
7F0001FC
7F0001FC
7F0001FC
7F0001FC
7F0001FC
7F0001FC
7F0001FC
7F0001FC
7F8001FC
7F8003FC
7F8003FC
7FC003FC
7FC007F8
3FE00FF8
3FFE7FF0
1FFFFFF0
0FFFFFE0
07FFFFC0
03FFFF00
00FFFE00
001FF000
ENDCHAR
STARTCHAR V
ENCODING 86
SWIDTH 706 0
DWIDTH 34 0
BBX 34 36 0 -1
BITMAP
FF80000000
7F80007FC0
7F80007F80
7FC0007F80
3FC000FF00
3FC000FF00
1FE000FE00
1FE001FE00
0FF001FE00
0FF001FC00
0FF003FC00
07F803F800
07F803F800
03F807F800
03FC07F000
03FC0FF000
01FC0FE000
01FE0FE000
00FE1FC000
00FE1FC000
00FF1FC000
007F3F8000
007FBF8000
003FBF0000
003FFF0000
003FFF0000
001FFE0000
001FFE0000
000FFC0000
000FFC0000
000FFC0000
0007F80000
0007F80000
0003F00000
0003F00000
0003F00000
ENDCHAR
STARTCHAR W
ENCODING 87
SWIDTH 1031 0
DWIDTH 49 0
BBX 49 36 0 -1
BITMAP
FF8001E0000000
7F8003F0007F80
7F8003F0007F80
7F8003F0007F00
3FC007F800FF00
3FC007F800FF00
3FC007F800FE00
1FE00FFC01FE00
1FE00FFC01FE00
1FE00FFC01FC00
0FE01FFE01FC00
0FF01FFE03FC00
0FF01FFE03F800
07F03FFF03F800
07F83F7F03F800
07F83F3F07F000
03F87F3F87F000
03F87E3F87F000
03FC7E1F8FE000
01FC7E1FCFE000
01FCFC1FCFE000
01FEFC0FCFC000
00FEFC0FFFC000
00FFF80FFF8000
00FFF807FF8000
007FF807FF8000
007FF007FF0000
007FF003FF0000
003FF003FF0000
003FE003FE0000
003FE001FE0000
001FE001FE0000
001FC001FC0000
001FC000FC0000
000FC000FC0000
000F8000F80000
ENDCHAR
STARTCHAR X
ENCODING 88
SWIDTH 733 0
DWIDTH 35 0
BBX 33 36 1 -1
BITMAP
FF80000000
7FC000FF80
3FC001FF00
3FE001FE00
1FF003FC00
0FF007FC00
0FF807F800
07FC0FF000
03FC1FF000
03FE1FE000
01FE3FC000
00FF3FC000
007FFF8000
007FFF0000
003FFF0000
001FFE0000
001FFC0000
000FFC0000
001FFC0000
003FFE0000
003FFE0000
007FFF0000
00FFFF8000
00FF7F8000
01FE3FC000
03FE3FE000
03FC1FE000
07F81FF000
0FF80FF800
0FF007F800
1FE007FC00
3FE003FE00
3FC003FE00
7FC001FF00
FF8000FF80
000000F800
ENDCHAR
STARTCHAR Y
ENCODING 89
SWIDTH 672 0
DWIDTH 32 0
BBX 32 35 0 0
BITMAP
FF800000
7F8000FF
7FC001FF
3FC001FE
3FE003FC
1FE003FC
0FF007F8
0FF00FF0
07F80FF0
07FC1FE0
03FC1FC0
01FE3FC0
01FE7F80
00FF7F00
00FFFF00
007FFE00
003FFC00
003FFC00
001FF800
000FF800
000FF000
000FF000
000FF000
000FF000
000FF000
000FF000
000FF000
000FF000
000FF000
000FF000
000FF000
000FF000
000FF000
000FF000
000FF000
ENDCHAR
STARTCHAR Z
ENCODING 90
SWIDTH 657 0
DWIDTH 32 0
BBX 29 36 1 -1
BITMAP
3FFFFFF8
3FFFFFF8
3FFFFFF8
3FFFFFF8
3FFFFFF0
3FFFFFF0
00003FE0
00003FC0
00007FC0
0000FF80
0001FF00
0001FF00
0003FE00
0007FC00
0007FC00
000FF800
001FF000
001FF000
003FE000
007FC000
007F8000
00FF8000
01FF0000
01FE0000
03FE0000
07FC0000
0FF80000
0FF80000
1FF00000
3FE00000
3FFFFFF0
7FFFFFF0
FFFFFFF0
FFFFFFF0
7FFFFFF0
7FFFFFF0
ENDCHAR
STARTCHAR bracketleft
ENCODING 91
SWIDTH 388 0
DWIDTH 19 0
BBX 15 47 3 -12
BITMAP
FFFE
FFFE
FFFE
FFFE
FFFE
FE00
FE00
FE00
FE00
FE00
FE00
FE00
FE00
FE00
FE00
FE00
FE00
FE00
FE00
FE00
FE00
FE00
FE00
FE00
FE00
FE00
FE00
FE00
FE00
FE00
FE00
FE00
FE00
FE00
FE00
FE00
FE00
FE00
FE00
FE00
FE00
FE00
FFFE
FFFE
FFFE
FFFE
FFFE
ENDCHAR
STARTCHAR backslash
ENCODING 92
SWIDTH 341 0
DWIDTH 16 0
BBX 19 47 -1 -12
BITMAP
FC0000
7C0000
7C0000
7E0000
3E0000
3E0000
3E0000
3F0000
1F0000
1F0000
1F8000
0F8000
0F8000
0F8000
0FC000
07C000
07C000
07E000
03E000
03E000
03E000
03F000
01F000
01F000
01F800
00F800
00F800
00F800
00FC00
007C00
007C00
007E00
003E00
003E00
003E00
003F00
001F00
001F00
001F00
000F80
000F80
000F80
000FC0
0007C0
0007C0
0007E0
0007E0
ENDCHAR
STARTCHAR bracketright
ENCODING 93
SWIDTH 388 0
DWIDTH 19 0
BBX 15 47 0 -12
BITMAP
7FFE
7FFE
7FFE
FFFE
FFFE
00FE
007E
007E
007E
007E
007E
007E
007E
007E
007E
007E
007E
007E
007E
007E
007E
007E
007E
007E
007E
007E
007E
007E
007E
007E
007E
007E
007E
007E
007E
007E
007E
007E
007E
007E
007E
007E
7FFE
7FFE
7FFE
7FFE
7FFE
ENDCHAR
STARTCHAR asciicircum
ENCODING 94
SWIDTH 573 0
DWIDTH 28 0
BBX 22 16 3 19
BITMAP
007000
00F800
00FC00
01FC00
03FE00
07FF00
07FF80
0FDFC0
1F8FE0
3F87E0
7F03F0
7E01F8
FC01FC
7C00F8
380070
100000
ENDCHAR
STARTCHAR underscore
ENCODING 95
SWIDTH 667 0
DWIDTH 32 0
BBX 29 5 2 0
BITMAP
FFFFFFF8
FFFFFFF0
FFFFFFF0
FFFFFFF0
FFFFFFF0
ENDCHAR
STARTCHAR grave
ENCODING 96
SWIDTH 345 0
DWIDTH 17 0
BBX 12 8 2 27
BITMAP
FF00
7F80
3F80
1FC0
0FC0
07E0
03F0
01F0
ENDCHAR
STARTCHAR a
ENCODING 97
SWIDTH 522 0
DWIDTH 25 0
BBX 23 25 1 -1
BITMAP
01FE00
0FFF80
3FFFE0
3FFFE0
3FFFF0
3FFFF0
1C07F8
1007F8
0003F8
0003F8
0003F8
03FFF8
0FFFF8
3FFFF8
7F83F8
7F03F8
FE03F8
FE03F8
FE07F8
FE0FF8
FFBFFE
7FFFFE
7FF9FE
3FF1FE
0FC07C
ENDCHAR
STARTCHAR b
ENCODING 98
SWIDTH 584 0
DWIDTH 28 0
BBX 24 37 3 -1
BITMAP
060000
FE0000
FE0000
FE0000
FE0000
FE0000
FE0000
FE0000
FE0000
FE0000
FE0000
FE0000
FE1F80
FE7FE0
FFFFF0
FFFFF8
FFFFFC
FFCFFC
FF03FE
FE01FE
FE00FE
FE00FE
FE00FF
FE00FF
FE00FF
FE00FE
FE00FE
FE00FE
FE01FE
FE01FC
FE03FC
FFCFF8
FFFFF8
FFFFF0
FFFFE0
FBFF80
C07E00
ENDCHAR
STARTCHAR c
ENCODING 99
SWIDTH 483 0
DWIDTH 23 0
BBX 20 25 1 -1
BITMAP
007F80
01FFF0
07FFF0
0FFFF0
1FFFF0
1FFFF0
3FE070
3F8000
7F8000
7F0000
7F0000
7F0000
FF0000
FF0000
7F0000
7F0000
7F8000
7FC010
3FE030
3FFFF0
1FFFF0
0FFFF0
07FFF0
03FFE0
007F80
ENDCHAR
STARTCHAR d
ENCODING 100
SWIDTH 584 0
DWIDTH 28 0
BBX 24 37 1 -1
BITMAP
000003
00007F
00007F
00007F
00007F
00007F
00007F
00007F
00007F
00007F
00007F
00007F
007E7F
03FFFF
07FFFF
0FFFFF
1FFFFF
3FF3FF
3FC07F
7F807F
7F007F
7F007F
7F007F
7F007F
FF007F
FF007F
FF007F
7F007F
7F007F
7F807F
7FC0FF
3FF7FF
3FFFFF
1FFFFF
0FFFFF
07FE7F
01F800
ENDCHAR
STARTCHAR e
ENCODING 101
SWIDTH 529 0
DWIDTH 25 0
BBX 23 25 1 -1
BITMAP
007F00
01FFE0
07FFF0
0FFFF8
1FFFF8
3FC3FC
3F80FC
7F00FE
7F00FE
7F007E
7FFFFE
7FFFFE
FFFFFC
FFFE00
7F0000
7F0000
7F0000
7F8004
3FC01C
3FFBFC
1FFFFC
0FFFFC
07FFFC
03FFF0
007F80
ENDCHAR
STARTCHAR f
ENCODING 102
SWIDTH 365 0
DWIDTH 18 0
BBX 17 35 1 0
BITMAP
007F00
01FF00
03FF00
07FF00
07FF80
0FFF80
0FF000
0FE000
0FE000
0FE000
1FE000
1FE000
7FFF00
FFFF00
FFFF00
FFFF00
FFFF00
1FE000
1FE000
1FE000
1FE000
1FE000
1FE000
1FE000
1FE000
1FE000
1FE000
1FE000
1FE000
1FE000
1FE000
1FE000
1FE000
1FE000
1FE000
ENDCHAR
STARTCHAR g
ENCODING 103
SWIDTH 513 0
DWIDTH 25 0
BBX 24 40 0 -12
BITMAP
00001F
00003F
00007F
00007F
007F7F
01FFF0
07FFF0
0FFFF8
1FFFF8
1FC1FC
1F80FC
3F80FE
3F80FE
3F80FE
3F80FC
3F81FC
1FC3FC
1FFFF8
0FFFF0
03FFE0
0FFF80
1F0000
3E0000
3F0000
3FFFE0
3FFFFC
1FFFFE
0FFFFF
0FFFFF
3F01FF
7E007F
7C003F
FC003F
FC007F
FE00FE
FF87FC
7FFFF8
3FFFF0
1FFFC0
03FE00
ENDCHAR
STARTCHAR h
ENCODING 104
SWIDTH 587 0
DWIDTH 28 0
BBX 23 36 3 0
BITMAP
060000
FE0000
FE0000
FE0000
FE0000
FE0000
FE0000
FE0000
FE0000
FE0000
FE0000
FE0000
FE07C0
FE1FF0
FE7FF8
FEFFF8
FFFFFC
FFFFFC
FFC3FC
FF01FC
FF01FC
FE01FC
FE01FC
FE01FC
FE01FC
FE01FC
FE01FC
FE01FC
FE01FC
FE01FC
FE01FC
FE01FC
FE01FC
FE01FC
FE01FC
FE01FE
ENDCHAR
STARTCHAR i
ENCODING 105
SWIDTH 272 0
DWIDTH 13 0
BBX 9 36 2 0
BITMAP
1C00
3F00
7F80
7F80
FF80
7F80
7F00
1E00
0000
0000
0000
0000
0300
7F00
7F00
7F00
7F00
7F00
7F00
7F00
7F00
7F00
7F00
7F00
7F00
7F00
7F00
7F00
7F00
7F00
7F00
7F00
7F00
7F00
7F00
7F00
ENDCHAR
STARTCHAR j
ENCODING 106
SWIDTH 274 0
DWIDTH 13 0
BBX 13 48 -2 -12
BITMAP
01C0
03F0
07F8
07F8
07F8
07F8
07F0
01E0
0000
0000
0000
0000
0030
07F0
07F0
07F0
07F0
07F0
07F0
07F0
07F0
07F0
07F0
07F0
07F0
07F0
07F0
07F0
07F0
07F0
07F0
07F0
07F0
07F0
07F0
07F0
07F0
07F0
07F0
07F0
0FF0
1FF0
FFE0
FFE0
FFE0
FFC0
FF80
7E00
ENDCHAR
STARTCHAR k
ENCODING 107
SWIDTH 532 0
DWIDTH 26 0
BBX 22 37 3 -1
BITMAP
060000
FE0000
FE0000
FE0000
FE0000
FE0000
FE0000
FE0000
FE0000
FE0000
FE0000
FE0000
FE000C
FE03F8
FE07F0
FE0FE0
FE1FE0
FE1FC0
FE3F80
FE7F00
FE7F00
FEFE00
FFFC00
FFF800
FFFC00
FFFE00
FEFF00
FEFF00
FE7F80
FE3FC0
FE3FE0
FE1FE0
FE0FF0
FE0FF8
FE07F8
FE03FC
0003E0
ENDCHAR
STARTCHAR l
ENCODING 108
SWIDTH 272 0
DWIDTH 13 0
BBX 7 36 3 0
BITMAP
06
FE
FE
FE
FE
FE
FE
FE
FE
FE
FE
FE
FE
FE
FE
FE
FE
FE
FE
FE
FE
FE
FE
FE
FE
FE
FE
FE
FE
FE
FE
FE
FE
FE
FE
FE
ENDCHAR
STARTCHAR m
ENCODING 109
SWIDTH 876 0
DWIDTH 42 0
BBX 36 24 3 0
BITMAP
3E0FC03F00
FE3FE0FFC0
FE7FF1FFE0
FEFFFBFFE0
FFFFFFFFF0
FFFFFFFFF0
FF83FF0FF0
FF03FE07F0
FE03FC07F0
FE03FC07F0
FE03FC07F0
FE03FC07F0
FE03FC07F0
FE03FC07F0
FE03FC07F0
FE03FC07F0
FE03FC07F0
FE03FC07F0
FE03FC07F0
FE03FC07F0
FE03FC07F0
FE03FC07F0
FE03FC07F0
FE03FC07F0
ENDCHAR
STARTCHAR n
ENCODING 110
SWIDTH 587 0
DWIDTH 28 0
BBX 23 24 3 0
BITMAP
3E07C0
FE1FF0
FE7FF8
FEFFF8
FFFFFC
FFFFFC
FFC3FC
FF01FC
FF01FC
FE01FC
FE01FC
FE01FC
FE01FC
FE01FC
FE01FC
FE01FC
FE01FC
FE01FC
FE01FC
FE01FC
FE01FC
FE01FC
FE01FC
FE01FE
ENDCHAR
STARTCHAR o
ENCODING 111
SWIDTH 560 0
DWIDTH 27 0
BBX 24 25 1 -1
BITMAP
007F00
01FFE0
07FFF0
0FFFF8
1FFFFC
3FF7FE
3FC1FE
7F80FF
7F007F
7F007F
7F007F
7F007F
FF007F
FF007F
7F007F
7F007F
7F007F
7F80FE
3F81FE
3FF7FC
1FFFFC
0FFFF8
07FFF0
03FFC0
007F00
ENDCHAR
STARTCHAR p
ENCODING 112
SWIDTH 585 0
DWIDTH 28 0
BBX 24 35 3 -11
BITMAP
7E1F80
FE7FE0
FEFFF0
FFFFF8
FFFFFC
FFC7FC
FF01FE
FE01FE
FE00FE
FE00FE
FE00FF
FE00FF
FE00FF
FE00FE
FE00FE
FE00FE
FE00FE
FE01FC
FF03FC
FFC7FC
FFFFF8
FFFFF0
FFFFE0
FFFFC0
FE7F00
FE0000
FE0000
FE0000
FE0000
FE0000
FE0000
FE0000
FE0000
FE0000
F80000
ENDCHAR
STARTCHAR q
ENCODING 113
SWIDTH 584 0
DWIDTH 28 0
BBX 24 35 1 -11
BITMAP
007E03
03FFDF
07FFFF
0FFFFF
1FFFFF
3FF1FF
3FC07F
7F807F
7F807F
7F007F
7F007F
7F007F
FF007F
FF007F
FF007F
7F007F
7F007F
7F807F
7FC0FF
3FF3FF
3FFFFF
1FFFFF
0FFFFF
07FE7F
01F87F
00007F
00007F
00007F
00007F
00007F
00007F
00007F
00007F
00007F
00007C
ENDCHAR
STARTCHAR r
ENCODING 114
SWIDTH 391 0
DWIDTH 19 0
BBX 15 24 3 0
BITMAP
1E06
FE1E
FE7E
FEFE
FEFE
FFFE
FFFE
FFC0
FF00
FF00
FE00
FE00
FE00
FE00
FE00
FE00
FE00
FE00
FE00
FE00
FE00
FE00
FE00
FE00
ENDCHAR
STARTCHAR s
ENCODING 115
SWIDTH 447 0
DWIDTH 21 0
BBX 18 25 2 -1
BITMAP
03FC00
0FFF80
3FFF80
7FFF80
7FFF00
FF0700
FE0100
FE0000
FF0000
FFC000
7FF800
3FFE00
1FFF00
0FFF80
03FFC0
007FC0
001FC0
001FC0
C01FC0
F83FC0
FFFF80
FFFF80
FFFF00
7FFE00
0FF000
ENDCHAR
STARTCHAR t
ENCODING 116
SWIDTH 389 0
DWIDTH 19 0
BBX 17 31 1 -1
BITMAP
006000
03E000
0FE000
0FE000
0FE000
0FE000
0FE000
FFFF80
FFFF00
FFFF00
FFFF00
FFFF00
1FE000
1FE000
1FE000
1FE000
1FE000
1FE000
1FE000
1FE000
1FE000
1FE000
1FE000
1FE000
1FE080
1FFF00
0FFF00
0FFF00
07FF00
03FF00
01FC00
ENDCHAR
STARTCHAR u
ENCODING 117
SWIDTH 587 0
DWIDTH 28 0
BBX 23 25 3 -1
BITMAP
FE01FE
FE01FC
FE01FC
FE01FC
FE01FC
FE01FC
FE01FC
FE01FC
FE01FC
FE01FC
FE01FC
FE01FC
FE01FC
FE01FC
FE01FC
FE01FC
FE01FC
FF03FC
FF07FC
FFFFFC
FFFFFC
7FFDFC
7FF8FC
3FF0FE
0FC000
ENDCHAR
STARTCHAR v
ENCODING 118
SWIDTH 522 0
DWIDTH 25 0
BBX 25 25 0 -1
BITMAP
3F000080
FF007F00
7F007F00
7F807F00
3F80FE00
3F80FE00
1FC0FC00
1FC1FC00
1FC1FC00
0FE1F800
0FE1F800
07E3F800
07F3F000
07F3F000
03F7E000
03FFE000
01FFE000
01FFC000
01FFC000
00FF8000
00FF8000
007F8000
007F0000
007F0000
003F0000
ENDCHAR
STARTCHAR w
ENCODING 119
SWIDTH 772 0
DWIDTH 37 0
BBX 37 25 0 -1
BITMAP
FF00F80000
FF00FC03F8
7F00FC03F0
7F01FC07F0
3F81FE07F0
3F81FE07E0
3F83FE0FE0
1FC3FF0FE0
1FC3FF0FC0
1FC7FF1FC0
0FC7FF1F80
0FE7DF9F80
0FEFDF9F80
07EFDFBF00
07FF8FFF00
07FF8FFF00
03FF0FFE00
03FF07FE00
03FF07FC00
01FE07FC00
01FE03FC00
01FE03F800
00FC03F800
00FC01F800
00FC01F000
ENDCHAR
STARTCHAR x
ENCODING 120
SWIDTH 525 0
DWIDTH 25 0
BBX 25 25 0 -1
BITMAP
3F800080
3FC07F00
3FC0FE00
1FE0FE00
0FE1FC00
0FF1F800
07F3F800
07FFF000
03FFF000
01FFE000
01FFC000
00FFC000
00FF8000
00FFC000
01FFE000
03FFE000
07F7F000
07F7F000
0FE3F800
1FE3FC00
1FC1FC00
3F81FE00
7F80FF00
FF00FF00
00007F80
ENDCHAR
STARTCHAR y
ENCODING 121
SWIDTH 515 0
DWIDTH 25 0
BBX 24 34 1 -10
BITMAP
FE0003
FE00FE
FF00FE
FF00FC
7F01FC
7F81F8
3F81F8
3F83F8
1FC3F0
1FC3F0
0FC7E0
0FE7E0
0FEFE0
07EFC0
07FFC0
03FF80
03FF80
01FF80
01FF00
01FF00
00FE00
00FE00
00FE00
01FC00
01FC00
03F800
03F800
07F800
07F000
07F000
0FE000
0FE000
1FE000
180000
ENDCHAR
STARTCHAR z
ENCODING 122
SWIDTH 497 0
DWIDTH 24 0
BBX 22 25 1 -1
BITMAP
7FFFF8
7FFFF8
7FFFFC
7FFFF8
7FFFF8
7FFFF0
001FE0
001FC0
003FC0
007F80
00FF00
00FF00
01FE00
03FC00
03F800
07F800
0FF000
1FE000
1FC000
3FFFF8
7FFFF8
FFFFF8
FFFFF8
FFFFF8
7FFFF8
ENDCHAR
STARTCHAR braceleft
ENCODING 123
SWIDTH 404 0
DWIDTH 19 0
BBX 16 46 2 -12
BITMAP
0006
003E
00FE
03FF
07FC
07F0
0FE0
0FC0
1FC0
1FC0
1FC0
0FC0
0FE0
0FE0
07F0
07F0
03F8
03F8
03F8
03F0
0FF0
7FE0
FF80
FF80
FFE0
1FF0
03F0
03F8
03F8
03F8
07F0
07F0
0FF0
0FE0
0FE0
1FC0
1FC0
1FC0
0FC0
0FE0
07F0
07FC
03FF
00FE
003E
0006
ENDCHAR
STARTCHAR bar
ENCODING 124
SWIDTH 291 0
DWIDTH 14 0
BBX 6 47 4 -12
BITMAP
FC
FC
FC
FC
FC
FC
FC
FC
FC
FC
FC
FC
FC
FC
FC
FC
FC
FC
FC
FC
FC
FC
FC
FC
FC
FC
FC
FC
FC
FC
FC
FC
FC
FC
FC
FC
FC
FC
FC
FC
FC
FC
FC
FC
FC
FC
FC
ENDCHAR
STARTCHAR braceright
ENCODING 125
SWIDTH 404 0
DWIDTH 19 0
BBX 15 46 2 -12
BITMAP
6000
F800
FE00
FF80
7FC0
1FE0
0FE0
07F0
07F0
07F0
07F0
07F0
0FE0
0FE0
1FE0
1FC0
1FC0
3F80
1F80
1FC0
0FF0
07FE
03FE
01FE
07FE
0FF0
1FC0
1F80
3F80
1FC0
1FC0
1FE0
0FE0
0FE0
07F0
07F0
07F0
07F0
07F0
0FE0
1FE0
7FC0
FF80
FF00
FC00
6000
ENDCHAR
STARTCHAR asciitilde
ENCODING 126
SWIDTH 505 0
DWIDTH 24 0
BBX 20 8 2 10
BITMAP
0000E0
1F80F0
3FF1F0
7FFFF0
7FFFE0
FFFFE0
F87FC0
F00F80
ENDCHAR
STARTCHAR uni00A0
ENCODING 160
SWIDTH 208 0
DWIDTH 10 0
BBX 1 1 0 0
BITMAP
00
ENDCHAR
STARTCHAR exclamdown
ENCODING 161
SWIDTH 277 0
DWIDTH 13 0
BBX 9 37 2 -1
BITMAP
1E00
7F00
7F00
FF80
FF80
7F00
7F00
3E00
0000
0000
0000
0000
0600
3E00
3E00
3E00
3F00
3F00
3F00
3F00
3F00
3F00
7F00
7F00
7F00
7F00
7F00
7F00
7F00
7F00
7F00
7F00
7F00
7F00
7F80
7F80
7F80
ENDCHAR
STARTCHAR cent
ENCODING 162
SWIDTH 491 0
DWIDTH 24 0
BBX 21 33 1 -5
BITMAP
000F00
000F00
000F00
000F00
007FC0
01FFF0
07FFF8
0FFFF8
1FFFF0
1FFFF0
3FCE30
3F9E10
7F1E00
7F1E00
7E1E00
7E1E00
FE1E00
FE1E00
7E1E00
7F1E00
7F1E00
7F9C08
3FDC38
3FFFF8
1FFFF8
0FFFF8
07FFF8
03FFF0
00FF80
003C00
003C00
003C00
003C00
ENDCHAR
STARTCHAR sterling
ENCODING 163
SWIDTH 536 0
DWIDTH 26 0
BBX 22 33 2 -1
BITMAP
003FC0
00FFF8
03FFF8
07FFF8
0FFFF8
0FFFF0
1FE010
1FC000
1FC000
1FC000
1FC000
1FC000
1FC000
1FE3E0
FFFFE0
FFFFE0
FFFFE0
FFFFE0
FFF000
03F000
03F000
03F000
03F000
07F000
07E000
0FC000
1FFFFC
7FFFFC
FFFFFC
FFFFFC
FFFFFC
FFFFFC
E00000
ENDCHAR
STARTCHAR yen
ENCODING 165
SWIDTH 656 0
DWIDTH 31 0
BBX 30 32 1 0
BITMAP
FF0007FC
7F8007F8
7F800FF0
3FC01FF0
3FC01FE0
1FE03FC0
0FE03FC0
0FF07F80
07F87F80
07F8FF00
03FCFE00
01FDFE00
01FFFC00
7FFFFFF0
7FFFFFF0
7FFFFFF0
7FFFFFF0
003FE000
001FC000
001FC000
001FC000
7FFFFFF0
7FFFFFF0
7FFFFFF0
7FFFFFF0
001FC000
001FC000
001FC000
001FC000
001FC000
001FC000
001FC000
ENDCHAR
STARTCHAR section
ENCODING 167
SWIDTH 500 0
DWIDTH 24 0
BBX 20 39 2 -7
BITMAP
01FE00
07FFC0
1FFFE0
3FFFC0
3FFFC0
7FCFC0
7F00C0
7F0000
7F0000
7F0000
7FC000
3FF000
1FFE00
0FFF00
1FFFC0
3FFFE0
7F3FF0
FE0FF0
FC07F0
FC03F0
FE03F0
FF07F0
FFC7E0
7FFFE0
3FFFC0
1FFF00
07FF80
01FFC0
003FE0
000FE0
0007F0
8007F0
E007F0
FC0FE0
FFFFE0
FFFFC0
FFFFC0
7FFF00
1FFE00
ENDCHAR
STARTCHAR dieresis
ENCODING 168
SWIDTH 447 0
DWIDTH 21 0
BBX 17 7 2 28
BITMAP
3C0F00
7E1F80
FE3F80
FE3F80
FE3F80
FE3F80
7C1F00
ENDCHAR
STARTCHAR copyright
ENCODING 169
SWIDTH 863 0
DWIDTH 41 0
BBX 36 36 3 -1
BITMAP
0003FC0000
001FFF8000
007FFFE000
01FC07F000
03E000F800
07C0003C00
0F00001E00
1E00000F00
1C00000780
3C01FE0380
7807FF03C0
700FFF01C0
701FFF01E0
F03F8300E0
E03E0000E0
E07E0000E0
E07C0000F0
E07C0000F0
E07C000070
E07C0000F0
E07E0000E0
E03E0100E0
F03F8300E0
701FFF00E0
701FFF01C0
7807FF01C0
3803FE03C0
3C00000780
1E00000F00
0F00001F00
0780003E00
03E000FC00
01FC03F000
007FFFE000
003FFF8000
0003FC0000
ENDCHAR
STARTCHAR ordfeminine
ENCODING 170
SWIDTH 365 0
DWIDTH 18 0
BBX 16 16 1 19
BITMAP
0FE0
3FF8
7FFC
3FFC
38FC
207C
007C
0FFC
3FFC
7FFC
7C7C
F87C
FCFC
7FFF
7FBF
3F3F
ENDCHAR
STARTCHAR guillemotleft
ENCODING 171
SWIDTH 647 0
DWIDTH 31 0
BBX 27 24 2 -1
BITMAP
007E07E0
007C0FC0
00FC0FC0
01F81F80
03F03F00
07F07F00
0FE0FE00
0FC0FC00
1FC1F800
3F83F800
7F07F000
FF0FE000
FF0FF000
7F07F000
3F83F800
1FC1FC00
1FE1FC00
0FE0FE00
07F07F00
03F83F00
01F81F80
00FC1FC0
007E0FC0
00700780
ENDCHAR
STARTCHAR registered
ENCODING 174
SWIDTH 479 0
DWIDTH 23 0
BBX 19 20 2 15
BITMAP
03F000
0FFE00
1E0F00
380380
7001C0
63F0C0
E3F8E0
C39C60
C39C60
C39860
C3F860
C3F060
C3B860
C39860
639CC0
7001C0
380380
1E0F00
0FFE00
03F800
ENDCHAR
STARTCHAR macron
ENCODING 175
SWIDTH 411 0
DWIDTH 20 0
BBX 16 5 2 28
BITMAP
FFFF
FFFF
FFFF
FFFF
FFFF
ENDCHAR
STARTCHAR degree
ENCODING 176
SWIDTH 386 0
DWIDTH 19 0
BBX 16 16 1 19
BITMAP
03E0
0FF8
3FFC
3FFE
7C3F
781F
F80F
F80F
F80F
F80F
781F
7C3E
7FFE
3FFC
1FF8
07E0
ENDCHAR
STARTCHAR plusminus
ENCODING 177
SWIDTH 565 0
DWIDTH 27 0
BBX 20 27 4 0
BITMAP
01F000
01F000
01F000
01F000
01F000
01F000
01F000
FFFFF0
FFFFE0
FFFFE0
FFFFE0
FFFFE0
01F000
01F000
01F000
01F000
01F000
01F000
01F000
000000
000000
000000
FFFFF0
FFFFE0
FFFFE0
FFFFE0
FFFFE0
ENDCHAR
STARTCHAR two.sup
ENCODING 178
SWIDTH 374 0
DWIDTH 18 0
BBX 14 20 2 21
BITMAP
0300
3FE0
FFF8
FFF8
FFFC
70FC
407C
007C
007C
00F8
01F0
03F0
07C0
0F80
3F00
7E00
FFFC
FFFC
FFFC
FFFC
ENDCHAR
STARTCHAR three.sup
ENCODING 179
SWIDTH 374 0
DWIDTH 18 0
BBX 14 21 2 20
BITMAP
1FC0
FFF0
FFF8
FFFC
70FC
007C
007C
00F8
03F0
1FE0
1FC0
1FF0
03FC
007C
007C
007C
C1FC
FFFC
FFF8
FFF0
7FC0
ENDCHAR
STARTCHAR acute
ENCODING 180
SWIDTH 346 0
DWIDTH 17 0
BBX 12 8 3 27
BITMAP
1FF0
1FE0
3FC0
3F80
7F00
7E00
FC00
F800
ENDCHAR
STARTCHAR paragraph
ENCODING 182
SWIDTH 638 0
DWIDTH 31 0
BBX 25 32 2 0
BITMAP
00FF8F80
07FF8F80
0FFF8F80
3FFF8F80
3FFF8F80
7FFF8F80
FFFF8F80
FFFF8F80
FFFF8F80
FFFF8F80
FFFF8F80
FFFF8F80
FFFF8F80
FFFF8F80
FFFF8F80
7FFF8F80
7FFF8F80
3FFF8F80
1FFF8F80
07FF8F80
00FF8F80
00078F80
00078F80
00078F80
00078F80
00078F80
00078F80
00078F80
00078F80
00078F80
00078F80
00078F80
ENDCHAR
STARTCHAR periodcentered
ENCODING 183
SWIDTH 269 0
DWIDTH 13 0
BBX 9 8 2 13
BITMAP
3E00
7F00
7F00
FF80
FF80
7F00
7F00
3E00
ENDCHAR
STARTCHAR cedilla
ENCODING 184
SWIDTH 295 0
DWIDTH 14 0
BBX 10 13 2 -12
BITMAP
1000
1C00
3C00
3800
3E00
3F80
1FC0
07C0
03C0
F7C0
FFC0
FF80
7E00
ENDCHAR
STARTCHAR one.sup
ENCODING 185
SWIDTH 280 0
DWIDTH 13 0
BBX 9 20 1 21
BITMAP
0380
1F80
FF80
FF80
FF80
EF80
0F80
0F80
0F80
0F80
0F80
0F80
0F80
0F80
0F80
0F80
0F80
0F80
0F80
0F80
ENDCHAR
STARTCHAR ordmasculine
ENCODING 186
SWIDTH 394 0
DWIDTH 19 0
BBX 16 16 1 19
BITMAP
03E0
0FF8
1FFE
3FFE
7E3F
7C1F
7C1F
FC1F
FC1F
FC1F
7C1F
7E3F
3FFE
3FFC
1FF8
07E0
ENDCHAR
STARTCHAR guillemotright
ENCODING 187
SWIDTH 647 0
DWIDTH 31 0
BBX 27 25 2 -1
BITMAP
0C000000
3C01C000
7E07C000
7F07E000
3F83F000
1FC1F800
1FC1FC00
0FE0FE00
07F07F00
07F87F00
03F83F80
01FC1FC0
01FE1FE0
00FE0FE0
01FC1FC0
03F83F80
03F07F00
07E07E00
0FE0FE00
0FC1FC00
1F81F800
3F03F000
7E07E000
7E07E000
FC0FC000
ENDCHAR
STARTCHAR onequarter
ENCODING 188
SWIDTH 840 0
DWIDTH 40 0
BBX 37 36 2 -1
BITMAP
0000001000
0780003C00
3F80007C00
FF80007800
FF8000F000
FF8000F000
EF8001E000
0F8003C000
0F8003C000
0F80078000
0F80070000
0F800F0000
0F801E0000
0F801E0000
0F803C0600
0F803807C0
0F80780FC0
0F80F01FC0
0F80E03FC0
0F81E03FC0
0F83C07BC0
0003C0F3C0
000781F3C0
000F01E3C0
000F03C3C0
001E07C3C0
003C0F83C0
003C0FFFF8
00780FFFF8
00F807FFF8
00F007FFF8
01E00003C0
03E00003C0
03C00003C0
07800003C0
0180000000
ENDCHAR
STARTCHAR onehalf
ENCODING 189
SWIDTH 840 0
DWIDTH 40 0
BBX 36 36 2 -1
BITMAP
0000004000
078000F800
3F8000F000
FF8001E000
FF8001E000
FF8003C000
EF80078000
0F80078000
0F800F0000
0F800F0000
0F801E0000
0F803C0000
0F803C0000
0F80780000
0F80F00800
0F80F0FF80
0F81E3FFC0
0F81C3FFE0
0F83C3FFE0
0F8783C3F0
0F870101F0
000F0001F0
001E0003E0
001E0003E0
003C0007C0
0078000FC0
0078001F80
00F0003F00
01E0007C00
01E000F800
03C003F030
07C007FFF0
078007FFF0
0F0007FFF0
1F0003FFF0
0200000000
ENDCHAR
STARTCHAR threequarters
ENCODING 190
SWIDTH 934 0
DWIDTH 45 0
BBX 40 36 3 -1
BITMAP
0000000200
3FE0000780
FFF0000F80
FFF8000F00
FFFC001E00
60FC001E00
007C003C00
007C007800
00F8007800
07F000F000
1FC000F000
1FE001E000
1FF803C000
03FC03C000
007C078000
007C0700FC
007C0F00FC
C1FC1E01FC
FFFC1E03FC
FFF83C07FC
FFF0780FBC
7F80780F3C
0000F01E3C
0000E03E7C
0001E07C7C
0003C0787C
000380F07C
000780FFFF
000F00FFFF
000F00FFFF
001E00FFFF
003C00007C
007C00007C
007800007C
00F000007C
0030000000
ENDCHAR
STARTCHAR questiondown
ENCODING 191
SWIDTH 475 0
DWIDTH 23 0
BBX 20 36 1 -1
BITMAP
003C00
007E00
00FF00
00FF00
00FF00
00FF00
00FE00
003C00
000000
000000
000000
03FC00
07FF00
07FF80
03FF80
03FFC0
001FC0
000FC0
001FC0
003FC0
00FF80
07FF00
0FFE00
3FF800
7FE000
7F8000
FF0000
FE0000
FE0020
FF00E0
FFFFE0
7FFFF0
7FFFF0
3FFFF0
0FFFC0
03FE00
ENDCHAR
STARTCHAR Agrave
ENCODING 192
SWIDTH 743 0
DWIDTH 36 0
BBX 35 47 0 -1
BITMAP
001F800000
007FC00000
003FC00000
001FE00000
000FE00000
0007F00000
0003F00000
0001F80000
0000000000
0000000000
0000000000
0001F00000
0003F80000
0003F80000
0003FC0000
0007FC0000
0007FC0000
000FFE0000
000FFE0000
000FFF0000
001FFF0000
001FFF8000
003FBF8000
003FBFC000
007F1FC000
007F1FC000
007F1FE000
00FE0FE000
00FE0FF000
01FC07F000
01FC07F800
03FC07F800
03F803FC00
03FFFFFC00
07FFFFFC00
07FFFFFE00
0FFFFFFE00
0FFFFFFF00
1FE000FF00
1FE000FF80
1FC0007F80
3FC0007F80
3FC0003FC0
7F80003FC0
7F80003FE0
FF00001FE0
0000001E00
ENDCHAR
STARTCHAR Aacute
ENCODING 193
SWIDTH 743 0
DWIDTH 36 0
BBX 35 47 0 -1
BITMAP
000007E000
00003FC000
00007F8000
00007F0000
0000FE0000
0000FC0000
0001F80000
0001F00000
0000000000
0000000000
0000000000
0001F00000
0003F80000
0003F80000
0003FC0000
0007FC0000
0007FC0000
000FFE0000
000FFE0000
000FFF0000
001FFF0000
001FFF8000
003FBF8000
003FBFC000
007F1FC000
007F1FC000
007F1FE000
00FE0FE000
00FE0FF000
01FC07F000
01FC07F800
03FC07F800
03F803FC00
03FFFFFC00
07FFFFFC00
07FFFFFE00
0FFFFFFE00
0FFFFFFF00
1FE000FF00
1FE000FF80
1FC0007F80
3FC0007F80
3FC0003FC0
7F80003FC0
7F80003FE0
FF00001FE0
0000001E00
ENDCHAR
STARTCHAR Acircumflex
ENCODING 194
SWIDTH 743 0
DWIDTH 36 0
BBX 35 47 0 -1
BITMAP
0003F80000
0003FC0000
0007FE0000
000FFE0000
001FFF0000
001F9F8000
003F0F8000
007C07C000
0000000000
0000000000
0000000000
0001F00000
0003F80000
0003F80000
0003FC0000
0007FC0000
0007FC0000
000FFE0000
000FFE0000
000FFF0000
001FFF0000
001FFF8000
003FBF8000
003FBFC000
007F1FC000
007F1FC000
007F1FE000
00FE0FE000
00FE0FF000
01FC07F000
01FC07F800
03FC07F800
03F803FC00
03FFFFFC00
07FFFFFC00
07FFFFFE00
0FFFFFFE00
0FFFFFFF00
1FE000FF00
1FE000FF80
1FC0007F80
3FC0007F80
3FC0003FC0
7F80003FC0
7F80003FE0
FF00001FE0
0000001E00
ENDCHAR
STARTCHAR Atilde
ENCODING 195
SWIDTH 743 0
DWIDTH 36 0
BBX 35 47 0 -1
BITMAP
000F01F000
001FC1F000
003FF1E000
007FFFE000
007FFFE000
0078FFC000
00F83FC000
00F81F8000
0000000000
0000000000
0000000000
0001F00000
0003F80000
0003F80000
0003FC0000
0007FC0000
0007FC0000
000FFE0000
000FFE0000
000FFF0000
001FFF0000
001FFF8000
003FBF8000
003FBFC000
007F1FC000
007F1FC000
007F1FE000
00FE0FE000
00FE0FF000
01FC07F000
01FC07F800
03FC07F800
03F803FC00
03FFFFFC00
07FFFFFC00
07FFFFFE00
0FFFFFFE00
0FFFFFFF00
1FE000FF00
1FE000FF80
1FC0007F80
3FC0007F80
3FC0003FC0
7F80003FC0
7F80003FE0
FF00001FE0
0000001E00
ENDCHAR
STARTCHAR Adieresis
ENCODING 196
SWIDTH 743 0
DWIDTH 36 0
BBX 35 46 0 -1
BITMAP
003E0F8000
003F0FC000
007F1FC000
007F1FC000
007F1FC000
003F0FC000
001E078000
0000000000
0000000000
0000000000
0001F00000
0003F80000
0003F80000
0003FC0000
0007FC0000
0007FC0000
000FFE0000
000FFE0000
000FFF0000
001FFF0000
001FFF8000
003FBF8000
003FBFC000
007F1FC000
007F1FC000
007F1FE000
00FE0FE000
00FE0FF000
01FC07F000
01FC07F800
03FC07F800
03F803FC00
03FFFFFC00
07FFFFFC00
07FFFFFE00
0FFFFFFE00
0FFFFFFF00
1FE000FF00
1FE000FF80
1FC0007F80
3FC0007F80
3FC0003FC0
7F80003FC0
7F80003FE0
FF00001FE0
0000001E00
ENDCHAR
STARTCHAR Aring
ENCODING 197
SWIDTH 743 0
DWIDTH 36 0
BBX 35 45 0 -1
BITMAP
0001F80000
0007FC0000
000FFE0000
000FBF0000
001E0F0000
001E0F0000
001E0F0000
001E0F0000
001FBF0000
000FFE0000
0007FC0000
0003F80000
0003F80000
0007FC0000
0007FC0000
0007FE0000
000FFE0000
000FFF0000
001FFF0000
001FFF8000
003FBF8000
003FBF8000
003F3FC000
007F1FC000
007F1FE000
00FE0FE000
00FE0FF000
01FC07F000
01FC07F800
03FC07F800
03F803F800
03FFFFFC00
07FFFFFC00
07FFFFFE00
0FFFFFFE00
0FFFFFFF00
1FE000FF00
1FE000FF80
1FC0007F80
3FC0007F80
3FC0003FC0
7F80003FC0
7F80003FE0
FF00001FE0
0000001E00
ENDCHAR
STARTCHAR AE
ENCODING 198
SWIDTH 932 0
DWIDTH 45 0
BBX 44 36 -1 -1
BITMAP
00000FFFFFE0
00001FFFFFE0
00001FFFFFE0
00003FFFFFE0
00003FFFFFE0
00007FFFFFE0
00007FFC0000
0000FFFC0000
0001FFFC0000
0001FFFC0000
0003FFFC0000
0003FBFC0000
0007F3FC0000
000FF3FC0000
000FE3FFFF80
001FE3FFFF80
001FC3FFFF80
003FC3FFFF80
003F83FFFF80
007F83FFFF80
00FF03FC0000
00FF03FC0000
01FE03FC0000
01FFFFFC0000
03FFFFFC0000
07FFFFFC0000
07FFFFFC0000
0FFFFFFC0000
0FF003FC0000
1FF003FC0000
1FE003FFFFF0
3FC003FFFFF0
7FC003FFFFF0
7F8003FFFFF0
FF8003FFFFF0
000003FFFFF0
ENDCHAR
STARTCHAR Ccedilla
ENCODING 199
SWIDTH 678 0
DWIDTH 33 0
BBX 29 47 2 -12
BITMAP
0003FE00
001FFFC0
007FFFF0
01FFFFF0
03FFFFF0
07FFFFF0
0FFF8FF0
1FFC00E0
1FF00020
3FE00000
3FC00000
7F800000
7F800000
7F000000
FF000000
FF000000
FF000000
FF000000
FF000000
FF000000
FF000000
FF000000
FF000000
FF800000
7F800000
7FC00008
3FE00018
3FF00030
1FF800F0
1FFF8FF0
0FFFFFF0
07FFFFF0
03FFFFF0
00FFFFE0
007FFF80
000FFC00
00038000
00038000
0007E000
0007F000
0007F800
00007C00
00007C00
000EFC00
001FF800
001FF000
000FE000
ENDCHAR
STARTCHAR Egrave
ENCODING 200
SWIDTH 572 0
DWIDTH 27 0
BBX 22 47 4 -1
BITMAP
0FC000
3FE000
1FE000
0FF000
07F000
03F800
01F800
00FC00
000000
000000
000000
FFFFF8
FFFFF8
FFFFF8
FFFFF8
FFFFF8
FFFFF8
FF0000
FF0000
FF0000
FF0000
FF0000
FF0000
FF0000
FF0000
FFFFE0
FFFFE0
FFFFE0
FFFFE0
FFFFE0
FFFFE0
FF0000
FF0000
FF0000
FF0000
FF0000
FF0000
FF0000
FF0000
FF0000
FF0000
FFFFFC
FFFFFC
FFFFFC
FFFFFC
FFFFFC
FFFFFC
ENDCHAR
STARTCHAR Eacute
ENCODING 201
SWIDTH 572 0
DWIDTH 27 0
BBX 22 47 4 -1
BITMAP
0003F0
001FE0
003FC0
003F80
007F00
007E00
00FC00
00F800
000000
000000
000000
FFFFF8
FFFFF8
FFFFF8
FFFFF8
FFFFF8
FFFFF8
FF0000
FF0000
FF0000
FF0000
FF0000
FF0000
FF0000
FF0000
FFFFE0
FFFFE0
FFFFE0
FFFFE0
FFFFE0
FFFFE0
FF0000
FF0000
FF0000
FF0000
FF0000
FF0000
FF0000
FF0000
FF0000
FF0000
FFFFFC
FFFFFC
FFFFFC
FFFFFC
FFFFFC
FFFFFC
ENDCHAR
STARTCHAR Ecircumflex
ENCODING 202
SWIDTH 572 0
DWIDTH 27 0
BBX 22 47 4 -1
BITMAP
01FC00
01FE00
03FF00
07FF00
07FF80
0FCFC0
1F87C0
3E03E0
000000
000000
000000
FFFFF8
FFFFF8
FFFFF8
FFFFF8
FFFFF8
FFFFF8
FF0000
FF0000
FF0000
FF0000
FF0000
FF0000
FF0000
FF0000
FFFFE0
FFFFE0
FFFFE0
FFFFE0
FFFFE0
FFFFE0
FF0000
FF0000
FF0000
FF0000
FF0000
FF0000
FF0000
FF0000
FF0000
FF0000
FFFFFC
FFFFFC
FFFFFC
FFFFFC
FFFFFC
FFFFFC
ENDCHAR
STARTCHAR Edieresis
ENCODING 203
SWIDTH 572 0
DWIDTH 27 0
BBX 22 46 4 -1
BITMAP
1F07C0
1F87E0
3F8FE0
3F8FE0
3F8FE0
1F87E0
0F03C0
000000
000000
000000
FFFFF8
FFFFF8
FFFFF8
FFFFF8
FFFFF8
FFFFF8
FF0000
FF0000
FF0000
FF0000
FF0000
FF0000
FF0000
FF0000
FFFFE0
FFFFE0
FFFFE0
FFFFE0
FFFFE0
FFFFE0
FF0000
FF0000
FF0000
FF0000
FF0000
FF0000
FF0000
FF0000
FF0000
FF0000
FFFFFC
FFFFFC
FFFFFC
FFFFFC
FFFFFC
FFFFFC
ENDCHAR
STARTCHAR Igrave
ENCODING 204
SWIDTH 340 0
DWIDTH 16 0
BBX 13 46 -1 0
BITMAP
3F00
FF80
3F80
1FC0
0FC0
07E0
03F0
01F0
0000
0000
0000
0008
07F8
07F8
07F8
07F8
07F8
07F8
07F8
07F8
07F8
07F8
07F8
07F8
07F8
07F8
07F8
07F8
07F8
07F8
07F8
07F8
07F8
07F8
07F8
07F8
07F8
07F8
07F8
07F8
07F8
07F8
07F8
07F8
07F8
07F8
ENDCHAR
STARTCHAR Iacute
ENCODING 205
SWIDTH 340 0
DWIDTH 16 0
BBX 13 46 4 0
BITMAP
01F8
0FF0
0FE0
1FC0
1F80
3F00
3E00
7C00
0000
0000
0000
0100
FF00
FF00
FF00
FF00
FF00
FF00
FF00
FF00
FF00
FF00
FF00
FF00
FF00
FF00
FF00
FF00
FF00
FF00
FF00
FF00
FF00
FF00
FF00
FF00
FF00
FF00
FF00
FF00
FF00
FF00
FF00
FF00
FF00
FF00
ENDCHAR
STARTCHAR Icircumflex
ENCODING 206
SWIDTH 340 0
DWIDTH 16 0
BBX 16 46 0 0
BITMAP
07F0
0FF0
1FF8
1FFC
3FFC
7E7E
FC3F
F81F
0000
0000
0000
0010
0FF0
0FF0
0FF0
0FF0
0FF0
0FF0
0FF0
0FF0
0FF0
0FF0
0FF0
0FF0
0FF0
0FF0
0FF0
0FF0
0FF0
0FF0
0FF0
0FF0
0FF0
0FF0
0FF0
0FF0
0FF0
0FF0
0FF0
0FF0
0FF0
0FF0
0FF0
0FF0
0FF0
0FF0
ENDCHAR
STARTCHAR Idieresis
ENCODING 207
SWIDTH 340 0
DWIDTH 16 0
BBX 18 45 -1 0
BITMAP
3E0F00
7E1F80
7F1FC0
FF3FC0
7F1FC0
7E1F80
3C0F00
000000
000000
000000
000800
07F800
07F800
07F800
07F800
07F800
07F800
07F800
07F800
07F800
07F800
07F800
07F800
07F800
07F800
07F800
07F800
07F800
07F800
07F800
07F800
07F800
07F800
07F800
07F800
07F800
07F800
07F800
07F800
07F800
07F800
07F800
07F800
07F800
07F800
ENDCHAR
STARTCHAR Eth
ENCODING 208
SWIDTH 740 0
DWIDTH 36 0
BBX 33 35 1 0
BITMAP
1FFFE00000
1FFFFC0000
1FFFFF8000
1FFFFFC000
1FFFFFF000
1FFFFFF800
1FE03FF800
1FE00FFC00
1FE003FE00
1FE003FE00
1FE001FF00
1FE000FF00
1FE000FF00
1FE000FF00
1FE0007F00
FFFF807F80
FFFF807F80
FFFF807F80
FFFF807F80
FFFF807F00
1FE0007F00
1FE000FF00
1FE000FF00
1FE000FF00
1FE001FE00
1FE003FE00
1FE007FC00
1FE00FFC00
1FE03FF800
1FFFFFF000
1FFFFFE000
1FFFFFC000
1FFFFF0000
1FFFFE0000
1FFFE00000
ENDCHAR
STARTCHAR Ntilde
ENCODING 209
SWIDTH 794 0
DWIDTH 38 0
BBX 30 47 4 -1
BITMAP
007C0000
00FE0780
01FF8F80
01FFCF80
03FFFF00
03E7FF00
03C3FF00
03C1FE00
00007C00
00000000
00000000
F8000004
FC0003FC
FE0001FC
FF0001FC
FF0001FC
FF8001FC
FFC001FC
FFE001FC
FFF001FC
FFF001FC
FFF801FC
FFFC01FC
FFFE01FC
FFFF01FC
FEFF81FC
FE7F81FC
FE3FC1FC
FE3FE1FC
FE1FF1FC
FE0FF9FC
FE07F9FC
FE03FDFC
FE03FFFC
FE01FFFC
FE00FFFC
FE007FFC
FE003FFC
FE001FFC
FE001FFC
FE000FFC
FE0007FC
FE0003FC
FE0001FC
FE0001FC
FF0000FC
0000007C
ENDCHAR
STARTCHAR Ograve
ENCODING 210
SWIDTH 794 0
DWIDTH 38 0
BBX 34 46 2 -1
BITMAP
00FF800000
007F800000
003FC00000
001FC00000
000FE00000
0007E00000
0003F00000
0001E00000
0000000000
0000000000
0007FC0000
003FFF8000
00FFFFC000
01FFFFF000
03FFFFF800
07FFFFFC00
0FFE0FFE00
1FF003FE00
1FE001FF00
3FC000FF80
3FC0007F80
7F80007F80
7F00003FC0
7F00003FC0
FF00003FC0
FF00003FC0
FF00001FC0
FF00001FC0
FF00001FC0
FF00001FC0
FF00003FC0
FF00003FC0
FF00003F80
FF00003F80
7F80007F80
7F80007F80
3FC000FF00
3FE001FF00
1FF003FE00
1FFC0FFC00
0FFFFFF800
07FFFFF000
03FFFFE000
00FFFFC000
007FFF0000
000FF80000
ENDCHAR
STARTCHAR Oacute
ENCODING 211
SWIDTH 794 0
DWIDTH 38 0
BBX 34 46 2 -1
BITMAP
00003FC000
00007F8000
0000FF0000
0000FE0000
0001FC0000
0001F80000
0003F00000
0003C00000
0000000000
0000000000
0007FC0000
003FFF8000
00FFFFC000
01FFFFF000
03FFFFF800
07FFFFFC00
0FFE0FFE00
1FF003FE00
1FE001FF00
3FC000FF80
3FC0007F80
7F80007F80
7F00003FC0
7F00003FC0
FF00003FC0
FF00003FC0
FF00001FC0
FF00001FC0
FF00001FC0
FF00001FC0
FF00003FC0
FF00003FC0
FF00003F80
FF00003F80
7F80007F80
7F80007F80
3FC000FF00
3FE001FF00
1FF003FE00
1FFC0FFC00
0FFFFFF800
07FFFFF000
03FFFFE000
00FFFFC000
007FFF0000
000FF80000
ENDCHAR
STARTCHAR Ocircumflex
ENCODING 212
SWIDTH 794 0
DWIDTH 38 0
BBX 34 46 2 -1
BITMAP
0007F80000
0007FC0000
000FFC0000
001FFE0000
001FFF0000
003F1F0000
007E0F8000
007C07C000
0000000000
0000000000
0007FC0000
003FFF8000
00FFFFC000
01FFFFF000
03FFFFF800
07FFFFFC00
0FFE0FFE00
1FF003FE00
1FE001FF00
3FC000FF80
3FC0007F80
7F80007F80
7F00003FC0
7F00003FC0
FF00003FC0
FF00003FC0
FF00001FC0
FF00001FC0
FF00001FC0
FF00001FC0
FF00003FC0
FF00003FC0
FF00003F80
FF00003F80
7F80007F80
7F80007F80
3FC000FF00
3FE001FF00
1FF003FE00
1FFC0FFC00
0FFFFFF800
07FFFFF000
03FFFFE000
00FFFFC000
007FFF0000
000FF80000
ENDCHAR
STARTCHAR Otilde
ENCODING 213
SWIDTH 794 0
DWIDTH 38 0
BBX 34 47 2 -1
BITMAP
001F000000
003F81E000
007FE3E000
007FF3E000
00FFFFC000
00FBFFC000
00F0FF8000
00F07F8000
00001F0000
0000000000
0000000000
0007FC0000
003FFF8000
00FFFFC000
01FFFFF000
03FFFFF800
07FFFFFC00
0FFE0FFE00
1FF003FE00
1FE001FF00
3FC000FF80
3FC0007F80
7F80007F80
7F00003FC0
7F00003FC0
FF00003FC0
FF00003FC0
FF00001FC0
FF00001FC0
FF00001FC0
FF00001FC0
FF00003FC0
FF00003FC0
FF00003F80
FF00003F80
7F80007F80
7F80007F80
3FC000FF00
3FE001FF00
1FF003FE00
1FFC0FFC00
0FFFFFF800
07FFFFF000
03FFFFE000
00FFFFC000
007FFF0000
000FF80000
ENDCHAR
STARTCHAR Odieresis
ENCODING 214
SWIDTH 794 0
DWIDTH 38 0
BBX 34 46 2 -1
BITMAP
003C0F0000
007E1F8000
00FF3FC000
00FF3FC000
00FE3F8000
007E1F8000
003C0F0000
0000000000
0000000000
0000000000
0007FC0000
003FFF8000
00FFFFC000
01FFFFF000
03FFFFF800
07FFFFFC00
0FFE0FFE00
1FF003FE00
1FE001FF00
3FC000FF80
3FC0007F80
7F80007F80
7F00003FC0
7F00003FC0
FF00003FC0
FF00003FC0
FF00001FC0
FF00001FC0
FF00001FC0
FF00001FC0
FF00003FC0
FF00003FC0
FF00003F80
FF00003F80
7F80007F80
7F80007F80
3FC000FF00
3FE001FF00
1FF003FE00
1FFC0FFC00
0FFFFFF800
07FFFFF000
03FFFFE000
00FFFFC000
007FFF0000
000FF80000
ENDCHAR
STARTCHAR multiply
ENCODING 215
SWIDTH 565 0
DWIDTH 27 0
BBX 21 21 3 3
BITMAP
100040
3800E0
7C01F0
FE03F8
7F07F0
3F8FE0
1FDFC0
0FFF80
07FF00
03FE00
01FC00
03FE00
07FF00
0FFF80
1FDFC0
3F8FE0
7F07F0
FE03F8
7C01F0
3800E0
100040
ENDCHAR
STARTCHAR Oslash
ENCODING 216
SWIDTH 793 0
DWIDTH 38 0
BBX 34 38 2 -2
BITMAP
0000000200
0007FC0780
003FFF8FC0
00FFFFFF80
01FFFFFF00
03FFFFFE00
07FFFFFC00
0FFE1FFE00
1FF803FF00
1FE003FF00
3FC007FF80
3FC007FF80
7F800FFF80
7F801F3FC0
7F003F3FC0
FF007E3FC0
FF00FC3FC0
FF00F83FC0
FF01F03FC0
FF03E03FC0
FF07E03FC0
FF0FC03FC0
FF0F803FC0
FF1F003F80
FF3E007F80
7FFC007F80
7FFC00FF80
7FF800FF00
3FF001FF00
1FF003FE00
1FFE1FFC00
0FFFFFF800
1FFFFFF000
3FFFFFE000
7FFFFFC000
FC7FFF0000
780FF80000
1000000000
ENDCHAR
STARTCHAR Ugrave
ENCODING 217
SWIDTH 772 0
DWIDTH 37 0
BBX 31 47 3 -1
BITMAP
00FE0000
01FE0000
00FF0000
007F0000
003F8000
001F8000
000FC000
0007C000
00000000
00000000
00000000
01800006
FF8003FC
FF8003FC
7F8003FC
7F0003FC
7F0003FC
7F0001FC
7F0001FC
7F0001FC
7F0001FC
7F0001FC
7F0001FC
7F0001FC
7F0001FC
7F0001FC
7F0001FC
7F0001FC
7F0001FC
7F0001FC
7F0001FC
7F0001FC
7F0001FC
7F0001FC
7F8001FC
7F8003FC
7F8003FC
7FC003FC
7FC007F8
3FE00FF8
3FFE7FF0
1FFFFFF0
0FFFFFE0
07FFFFC0
03FFFF00
00FFFE00
001FF000
ENDCHAR
STARTCHAR Uacute
ENCODING 218
SWIDTH 772 0
DWIDTH 37 0
BBX 31 47 3 -1
BITMAP
00003F80
0000FF00
0001FE00
0001FC00
0003F800
0007F000
0007E000
000FC000
00000000
00000000
00000000
01800006
FF8003FC
FF8003FC
7F8003FC
7F0003FC
7F0003FC
7F0001FC
7F0001FC
7F0001FC
7F0001FC
7F0001FC
7F0001FC
7F0001FC
7F0001FC
7F0001FC
7F0001FC
7F0001FC
7F0001FC
7F0001FC
7F0001FC
7F0001FC
7F0001FC
7F0001FC
7F8001FC
7F8003FC
7F8003FC
7FC003FC
7FC007F8
3FE00FF8
3FFE7FF0
1FFFFFF0
0FFFFFE0
07FFFFC0
03FFFF00
00FFFE00
001FF000
ENDCHAR
STARTCHAR Ucircumflex
ENCODING 219
SWIDTH 772 0
DWIDTH 37 0
BBX 31 47 3 -1
BITMAP
000FE000
001FF000
001FF000
003FF800
007EFC00
007C7C00
00F83E00
01F01F00
00000000
00000000
00000000
01800006
FF8003FC
FF8003FC
7F8003FC
7F0003FC
7F0003FC
7F0001FC
7F0001FC
7F0001FC
7F0001FC
7F0001FC
7F0001FC
7F0001FC
7F0001FC
7F0001FC
7F0001FC
7F0001FC
7F0001FC
7F0001FC
7F0001FC
7F0001FC
7F0001FC
7F0001FC
7F8001FC
7F8003FC
7F8003FC
7FC003FC
7FC007F8
3FE00FF8
3FFE7FF0
1FFFFFF0
0FFFFFE0
07FFFFC0
03FFFF00
00FFFE00
001FF000
ENDCHAR
STARTCHAR Udieresis
ENCODING 220
SWIDTH 772 0
DWIDTH 37 0
BBX 31 46 3 -1
BITMAP
00F83E00
01FC7F00
01FC7F00
01FC7F00
01FC7F00
01F87E00
00701C00
00000000
00000000
00000000
01800006
FF8003FC
FF8003FC
7F8003FC
7F0003FC
7F0003FC
7F0001FC
7F0001FC
7F0001FC
7F0001FC
7F0001FC
7F0001FC
7F0001FC
7F0001FC
7F0001FC
7F0001FC
7F0001FC
7F0001FC
7F0001FC
7F0001FC
7F0001FC
7F0001FC
7F0001FC
7F8001FC
7F8003FC
7F8003FC
7FC003FC
7FC007F8
3FE00FF8
3FFE7FF0
1FFFFFF0
0FFFFFE0
07FFFFC0
03FFFF00
00FFFE00
001FF000
ENDCHAR
STARTCHAR Yacute
ENCODING 221
SWIDTH 672 0
DWIDTH 32 0
BBX 32 46 0 0
BITMAP
00001FC0
0000FF80
0000FF00
0001FE00
0001F800
0003F000
0003E000
0007C000
00000000
00000000
00000000
FF800000
7F8000FF
7FC001FF
3FC001FE
3FE003FC
1FE003FC
0FF007F8
0FF00FF0
07F80FF0
07FC1FE0
03FC1FC0
01FE3FC0
01FE7F80
00FF7F00
00FFFF00
007FFE00
003FFC00
003FFC00
001FF800
000FF800
000FF000
000FF000
000FF000
000FF000
000FF000
000FF000
000FF000
000FF000
000FF000
000FF000
000FF000
000FF000
000FF000
000FF000
000FF000
ENDCHAR
STARTCHAR Thorn
ENCODING 222
SWIDTH 625 0
DWIDTH 30 0
BBX 25 35 4 0
BITMAP
01000000
FF000000
FF000000
FF000000
FF000000
FF000000
FF000000
FFFE0000
FFFFC000
FFFFF000
FFFFFC00
FFFFFE00
FFFFFE00
FF03FF00
FF00FF00
FF00FF80
FF007F80
FF007F80
FF007F80
FF007F80
FF007F00
FF00FF00
FF01FF00
FF07FE00
FFFFFC00
FFFFFC00
FFFFF800
FFFFE000
FFFF8000
FF400000
FF000000
FF000000
FF000000
FF000000
FF000000
ENDCHAR
STARTCHAR germandbls
ENCODING 223
SWIDTH 563 0
DWIDTH 27 0
BBX 23 35 3 -1
BITMAP
01FC00
07FF80
1FFFC0
1FFFE0
3FFFF0
7FFFF0
7F87F8
FF07F8
FE03F8
FE03F8
FE07F0
FE07F0
FE0FE0
FE1FC0
FE1FC0
FE3F80
FE3F80
FE3F80
FE3FC0
FE3FE0
FE1FF0
FE0FF8
FE07FC
FE03FC
FE01FE
FE00FE
FE00FE
FE00FE
FE00FE
FE33FE
FE3FFC
FE3FFC
FE3FF8
FE3FF0
003FC0
ENDCHAR
STARTCHAR agrave
ENCODING 224
SWIDTH 522 0
DWIDTH 25 0
BBX 23 36 1 -1
BITMAP
3FE000
1FE000
0FF000
07F000
03F800
01F800
00FC00
007E00
000000
000000
000000
01FE00
0FFF80
3FFFE0
3FFFE0
3FFFF0
3FFFF0
1C07F8
1007F8
0003F8
0003F8
0003F8
03FFF8
0FFFF8
3FFFF8
7F83F8
7F03F8
FE03F8
FE03F8
FE07F8
FE0FF8
FFBFFE
7FFFFE
7FF9FE
3FF1FE
0FC07C
ENDCHAR
STARTCHAR aacute
ENCODING 225
SWIDTH 522 0
DWIDTH 25 0
BBX 23 36 1 -1
BITMAP
000FF8
000FF0
001FE0
003FC0
003F80
007E00
007C00
00F800
000000
000000
000000
01FE00
0FFF80
3FFFE0
3FFFE0
3FFFF0
3FFFF0
1C07F8
1007F8
0003F8
0003F8
0003F8
03FFF8
0FFFF8
3FFFF8
7F83F8
7F03F8
FE03F8
FE03F8
FE07F8
FE0FF8
FFBFFE
7FFFFE
7FF9FE
3FF1FE
0FC07C
ENDCHAR
STARTCHAR acircumflex
ENCODING 226
SWIDTH 522 0
DWIDTH 25 0
BBX 23 36 1 -1
BITMAP
00FE00
01FF00
03FF80
03FF80
07EFC0
0FC7E0
0F83E0
1F01F0
000000
000000
000000
01FE00
0FFF80
3FFFE0
3FFFE0
3FFFF0
3FFFF0
1C07F8
1007F8
0003F8
0003F8
0003F8
03FFF8
0FFFF8
3FFFF8
7F83F8
7F03F8
FE03F8
FE07F8
FE07F8
FE0FF8
FFFFFE
7FFFFE
7FF9FE
3FF1FE
0FC07C
ENDCHAR
STARTCHAR atilde
ENCODING 227
SWIDTH 522 0
DWIDTH 25 0
BBX 23 36 1 -1
BITMAP
03C060
0FF078
0FFCF8
1FFFF8
1FFFF8
3E3FF0
3E1FE0
3C07C0
000000
000000
000000
01FE00
0FFF80
3FFFE0
3FFFE0
3FFFF0
3FFFF0
1C07F8
1007F8
0003F8
0003F8
0003F8
03FFF8
0FFFF8
3FFFF8
7F83F8
7F03F8
FE03F8
FE07F8
FE07F8
FE0FF8
FFFFFE
7FFFFE
7FF9FE
3FF1FE
0FC07C
ENDCHAR
STARTCHAR adieresis
ENCODING 228
SWIDTH 522 0
DWIDTH 25 0
BBX 23 36 1 -1
BITMAP
0701C0
0FC3E0
1FC7F0
1FC7F0
1FC7F0
1FC7F0
0F83E0
000000
000000
000000
000000
01FE00
0FFF80
3FFFE0
3FFFE0
3FFFF0
3FFFF0
1C07F8
1007F8
0003F8
0003F8
0003F8
03FFF8
0FFFF8
3FFFF8
7F83F8
7F03F8
FE03F8
FE07F8
FE07F8
FE0FF8
FFFFFE
7FFFFE
7FF9FE
3FF1FE
0FC07C
ENDCHAR
STARTCHAR aring
ENCODING 229
SWIDTH 522 0
DWIDTH 25 0
BBX 23 39 1 -1
BITMAP
00FE00
01FF80
03FF80
07C7C0
0783C0
0783C0
0783C0
07C7C0
03FF80
03FF00
00FE00
000000
000000
000000
01FE00
0FFF80
3FFFE0
3FFFE0
3FFFF0
3FFFF0
1C07F8
1007F8
0003F8
0003F8
0003F8
03FFF8
0FFFF8
3FFFF8
7F83F8
7F03F8
FE03F8
FE07F8
FE07F8
FE0FF8
FFFFFE
7FFFFE
7FF9FE
3FF1FE
0FC07C
ENDCHAR
STARTCHAR ae
ENCODING 230
SWIDTH 801 0
DWIDTH 38 0
BBX 36 25 1 -1
BITMAP
01FC01F800
0FFF0FFF00
3FFF9FFF80
3FFFFFFFC0
3FFFFFFFC0
3FFFFF1FE0
1C07FC07E0
1007FC07F0
0003F807F0
0003F803F0
0003FFFFF0
03FFFFFFF0
0FFFFFFFE0
3FFFFFF000
7F83F80000
7F03F80000
FE03F80000
FE07FC0020
FE07FE00E0
FF0FFFDFE0
7FFFFFFFE0
7FFF7FFFE0
3FFE3FFFE0
1FFC1FFF80
07F003FC00
ENDCHAR
STARTCHAR ccedilla
ENCODING 231
SWIDTH 483 0
DWIDTH 23 0
BBX 20 36 1 -12
BITMAP
007F80
01FFF0
07FFF0
0FFFF0
1FFFF0
1FFFF0
3FE070
3F8000
7F8000
7F0000
7F0000
7F0000
FF0000
FF0000
7F0000
7F0000
7F8000
7FC010
3FE030
3FFFF0
1FFFF0
0FFFF0
07FFF0
03FFE0
00FF80
003800
007800
007C00
007F00
007F80
0007C0
0007C0
00EFC0
01FF80
01FF00
00FE00
ENDCHAR
STARTCHAR egrave
ENCODING 232
SWIDTH 529 0
DWIDTH 25 0
BBX 23 36 1 -1
BITMAP
1FF000
0FF000
07F800
03F800
01FC00
00FE00
007E00
003F00
000000
000000
000000
007F00
01FFE0
07FFF0
0FFFF8
1FFFF8
3FC3FC
3F80FC
7F00FE
7F00FE
7F007E
7FFFFE
7FFFFE
FFFFFC
FFFE00
7F0000
7F0000
7F0000
7F8004
3FC01C
3FFBFC
1FFFFC
0FFFFC
07FFFC
03FFF0
007F80
ENDCHAR
STARTCHAR eacute
ENCODING 233
SWIDTH 529 0
DWIDTH 25 0
BBX 23 36 1 -1
BITMAP
0007FC
0007F8
000FF0
001FE0
001F80
003F00
003E00
007C00
000000
000000
000000
007F00
01FFE0
07FFF0
0FFFF8
1FFFF8
3FC3FC
3F80FC
7F00FE
7F00FE
7F007E
7FFFFE
7FFFFE
FFFFFC
FFFE00
7F0000
7F0000
7F0000
7F8004
3FC01C
3FFBFC
1FFFFC
0FFFFC
07FFFC
03FFF0
007F80
ENDCHAR
STARTCHAR ecircumflex
ENCODING 234
SWIDTH 529 0
DWIDTH 25 0
BBX 23 36 1 -1
BITMAP
007F00
00FF80
01FFC0
01FFC0
03F7E0
07E3F0
07C1F0
0F80F8
000000
000000
000000
007F00
01FFE0
07FFF0
0FFFF8
1FFFF8
3FC3FC
3F80FC
7F00FE
7F00FE
7F007E
7FFFFE
7FFFFE
FFFFFC
FFFE00
7F0000
7F0000
7F0000
7F8004
3FC01C
3FFBFC
1FFFFC
0FFFFC
07FFFC
03FFF0
007F80
ENDCHAR
STARTCHAR edieresis
ENCODING 235
SWIDTH 529 0
DWIDTH 25 0
BBX 23 36 1 -1
BITMAP
0380E0
07E1F8
0FE3F8
0FE3F8
0FE3F8
0FE3F8
07C1F0
000000
000000
000000
000000
007F00
01FFE0
07FFF0
0FFFF8
1FFFF8
3FC3FC
3F80FC
7F00FE
7F00FE
7F007E
7FFFFE
7FFFFE
FFFFFC
FFFE00
7F0000
7F0000
7F0000
7F8004
3FC01C
3FFBFC
1FFFFC
0FFFFC
07FFFC
03FFF0
007F80
ENDCHAR
STARTCHAR igrave
ENCODING 236
SWIDTH 272 0
DWIDTH 13 0
BBX 13 35 -3 0
BITMAP
FF80
7F80
3FC0
1FC0
0FE0
07E0
03F0
01F0
0000
0000
0000
0018
03F8
03F8
03F8
03F8
03F8
03F8
03F8
03F8
03F8
03F8
03F8
03F8
03F8
03F8
03F8
03F8
03F8
03F8
03F8
03F8
03F8
03F8
03F8
ENDCHAR
STARTCHAR iacute
ENCODING 237
SWIDTH 272 0
DWIDTH 13 0
BBX 13 35 3 0
BITMAP
0FF8
1FF0
1FC0
3F80
3F00
7E00
7C00
F800
0000
0000
0000
0600
FE00
FE00
FE00
FE00
FE00
FE00
FE00
FE00
FE00
FE00
FE00
FE00
FE00
FE00
FE00
FE00
FE00
FE00
FE00
FE00
FE00
FE00
FE00
ENDCHAR
STARTCHAR icircumflex
ENCODING 238
SWIDTH 272 0
DWIDTH 13 0
BBX 17 35 -2 0
BITMAP
07F000
0FF800
1FFC00
1FFC00
3F7E00
7E3F00
7C1F00
F80F80
000000
000000
000000
003000
07F000
07F000
07F000
07F000
07F000
07F000
07F000
07F000
07F000
07F000
07F000
07F000
07F000
07F000
07F000
07F000
07F000
07F000
07F000
07F000
07F000
07F000
07F000
ENDCHAR
STARTCHAR idieresis
ENCODING 239
SWIDTH 272 0
DWIDTH 13 0
BBX 17 35 -2 0
BITMAP
380E00
FC3F00
FE3F80
FE3F80
FE3F80
FE3F80
7C1F00
000000
000000
000000
000000
003000
07F000
07F000
07F000
07F000
07F000
07F000
07F000
07F000
07F000
07F000
07F000
07F000
07F000
07F000
07F000
07F000
07F000
07F000
07F000
07F000
07F000
07F000
07F000
ENDCHAR
STARTCHAR eth
ENCODING 240
SWIDTH 561 0
DWIDTH 27 0
BBX 24 36 1 -1
BITMAP
00F018
03FC7C
07FFFE
01FFFE
007FF8
007FC0
01FFE0
07FFF0
0FFFF8
03E3F8
0181FC
0000FC
007EFE
03FFFE
07FFFF
0FFFFF
1FFFFF
3FC1FF
3F80FF
7F007F
7F007F
7F007F
7F007F
FE007F
FF007F
7F007F
7F007F
7F007F
7F80FE
3F81FE
3FF7FC
1FFFFC
0FFFF8
07FFF0
03FFC0
007F00
ENDCHAR
STARTCHAR ntilde
ENCODING 241
SWIDTH 587 0
DWIDTH 28 0
BBX 23 35 3 0
BITMAP
07C060
0FF078
0FFCF8
1FFFF8
1FFFF0
3E7FF0
3E1FE0
3C07C0
000000
000000
000000
3E07C0
FE1FF0
FE7FF8
FEFFF8
FFFFFC
FFFFFC
FFC3FC
FF01FC
FF01FC
FE01FC
FE01FC
FE01FC
FE01FC
FE01FC
FE01FC
FE01FC
FE01FC
FE01FC
FE01FC
FE01FC
FE01FC
FE01FC
FE01FC
FE01FE
ENDCHAR
STARTCHAR ograve
ENCODING 242
SWIDTH 560 0
DWIDTH 27 0
BBX 24 36 1 -1
BITMAP
1FF000
0FF000
07F800
03F800
01FC00
00FC00
007E00
003E00
000000
000000
000000
007F00
01FFE0
07FFF0
0FFFF8
1FFFFC
3FF7FE
3FC1FE
7F80FF
7F007F
7F007F
7F007F
7F007F
FF007F
FF007F
7F007F
7F007F
7F007F
7F80FE
3F81FE
3FF7FC
1FFFFC
0FFFF8
07FFF0
03FFC0
007F00
ENDCHAR
STARTCHAR oacute
ENCODING 243
SWIDTH 560 0
DWIDTH 27 0
BBX 24 36 1 -1
BITMAP
0007FC
0007F8
000FE0
001FC0
001F80
003F00
003E00
007C00
000000
000000
000000
007F00
01FFE0
07FFF0
0FFFF8
1FFFFC
3FF7FE
3FC1FE
7F80FF
7F007F
7F007F
7F007F
7F007F
FF007F
FF007F
7F007F
7F007F
7F007F
7F80FE
3F81FE
3FF7FC
1FFFFC
0FFFF8
07FFF0
03FFC0
007F00
ENDCHAR
STARTCHAR ocircumflex
ENCODING 244
SWIDTH 560 0
DWIDTH 27 0
BBX 24 36 1 -1
BITMAP
007F00
00FF80
01FFC0
01FFC0
03F7E0
07E3F0
07C1F0
0F80F8
000000
000000
000000
007F00
01FFE0
07FFF0
0FFFF8
1FFFFC
3FF7FE
3FC1FE
7F80FF
7F007F
7F007F
7F007F
7F007F
FF007F
FF007F
7F007F
7F007F
7F007F
7F80FE
3F81FE
3FF7FC
1FFFFC
0FFFF8
07FFF0
03FFC0
007F00
ENDCHAR
STARTCHAR otilde
ENCODING 245
SWIDTH 560 0
DWIDTH 27 0
BBX 24 36 1 -1
BITMAP
03E030
07F83C
07FE7C
0FFFFC
0FFFF8
1F3FF8
1F0FF0
1E03E0
000000
000000
000000
007F00
01FFE0
07FFF0
0FFFF8
1FFFFC
3FF7FE
3FC1FE
7F80FF
7F007F
7F007F
7F007F
7F007F
FF007F
FF007F
7F007F
7F007F
7F007F
7F80FE
3F81FE
3FF7FC
1FFFFC
0FFFF8
07FFF0
03FFC0
007F00
ENDCHAR
STARTCHAR odieresis
ENCODING 246
SWIDTH 560 0
DWIDTH 27 0
BBX 24 36 1 -1
BITMAP
0380E0
0FC3F0
0FE3F8
0FE3F8
0FE3F8
0FE3F8
07C1F0
000000
000000
000000
000000
007F00
01FFE0
07FFF0
0FFFF8
1FFFFC
3FF7FE
3FC1FE
7F80FF
7F007F
7F007F
7F007F
7F007F
FF007F
FF007F
7F007F
7F007F
7F007F
7F80FE
3F81FE
3FF7FC
1FFFFC
0FFFF8
07FFF0
03FFC0
007F00
ENDCHAR
STARTCHAR divide
ENCODING 247
SWIDTH 561 0
DWIDTH 27 0
BBX 21 24 3 1
BITMAP
00F000
01F800
01FC00
01FC00
01FC00
01F800
007000
000000
000000
FFFFF8
FFFFF8
FFFFF8
FFFFF8
FFFFF8
000000
000000
000000
00F000
01F800
01FC00
01FC00
01FC00
01F800
007000
ENDCHAR
STARTCHAR oslash
ENCODING 248
SWIDTH 560 0
DWIDTH 27 0
BBX 25 27 1 -2
BITMAP
00000400
007F0E00
01FFFF80
07FFFF00
0FFFFE00
1FFFFC00
3FE3FE00
3F81FE00
7F03FF00
7F03FF00
7F07FF00
7E0F7F00
7E1F7F00
FE3E3F00
FE7C3F00
7EF87F00
7FF07F00
7FE07F00
7FC0FE00
3FC0FE00
3FE3FC00
1FFFFC00
3FFFF800
7FFFF000
FFFFC000
78FF0000
10000000
ENDCHAR
STARTCHAR ugrave
ENCODING 249
SWIDTH 587 0
DWIDTH 28 0
BBX 23 36 3 -1
BITMAP
3FC000
1FE000
0FF000
07F000
03F800
01F800
00FC00
007C00
000000
000000
000000
FE01FE
FE01FC
FE01FC
FE01FC
FE01FC
FE01FC
FE01FC
FE01FC
FE01FC
FE01FC
FE01FC
FE01FC
FE01FC
FE01FC
FE01FC
FE01FC
FE01FC
FF03FC
FF07FC
FFFFFC
FFFFFC
7FFDFC
7FF8FC
3FF0FE
0FC000
ENDCHAR
STARTCHAR uacute
ENCODING 250
SWIDTH 587 0
DWIDTH 28 0
BBX 23 36 3 -1
BITMAP
000FF0
001FE0
001FC0
003F80
003F00
007E00
00FC00
00F800
000000
000000
000000
FE01FE
FE01FC
FE01FC
FE01FC
FE01FC
FE01FC
FE01FC
FE01FC
FE01FC
FE01FC
FE01FC
FE01FC
FE01FC
FE01FC
FE01FC
FE01FC
FE01FC
FF03FC
FF07FC
FFFFFC
FFFFFC
7FFDFC
7FF8FC
3FF0FE
0FC000
ENDCHAR
STARTCHAR ucircumflex
ENCODING 251
SWIDTH 587 0
DWIDTH 28 0
BBX 23 36 3 -1
BITMAP
01FE00
01FF00
03FF00
07FF80
07FFC0
0FC7C0
1F83E0
1F01F0
000000
000000
000000
FE01FE
FE01FC
FE01FC
FE01FC
FE01FC
FE01FC
FE01FC
FE01FC
FE01FC
FE01FC
FE01FC
FE01FC
FE01FC
FE01FC
FE01FC
FE01FC
FE01FC
FF03FC
FF07FC
FFFFFC
FFFFFC
7FFDFC
7FF8FC
3FF0FE
0FC000
ENDCHAR
STARTCHAR udieresis
ENCODING 252
SWIDTH 587 0
DWIDTH 28 0
BBX 23 36 3 -1
BITMAP
0F03C0
1F87E0
1FC7F0
3FCFF0
3FCFF0
1F87E0
0F03C0
000000
000000
000000
000000
FE01FE
FE01FC
FE01FC
FE01FC
FE01FC
FE01FC
FE01FC
FE01FC
FE01FC
FE01FC
FE01FC
FE01FC
FE01FC
FE01FC
FE01FC
FE01FC
FE01FC
FF03FC
FF07FC
FFFFFC
FFFFFC
7FFDFC
7FF8FC
3FF0FE
0FC000
ENDCHAR
STARTCHAR yacute
ENCODING 253
SWIDTH 515 0
DWIDTH 25 0
BBX 24 45 1 -10
BITMAP
000FF8
000FF0
001FE0
001FC0
003F80
003F00
007E00
007C00
000000
000000
000000
FE0003
FE00FE
FF00FE
FF00FC
7F01FC
7F81F8
3F81F8
3F83F8
1FC3F0
1FC3F0
0FC7E0
0FE7E0
0FEFE0
07EFC0
07FFC0
03FF80
03FF80
01FF80
01FF00
01FF00
00FE00
00FE00
00FE00
01FC00
01FC00
03F800
03F800
07F800
07F000
07F000
0FE000
0FE000
1FE000
180000
ENDCHAR
STARTCHAR thorn
ENCODING 254
SWIDTH 585 0
DWIDTH 28 0
BBX 24 47 3 -11
BITMAP
060000
FE0000
FE0000
FE0000
FE0000
FE0000
FE0000
FE0000
FE0000
FE0000
FE0000
FE0000
FE1F80
FE7FE0
FFFFF0
FFFFF8
FFFFFC
FFCFFC
FF03FE
FE01FE
FE00FE
FE00FE
FE00FF
FE00FF
FE00FF
FE00FE
FE00FE
FE00FE
FE00FE
FE01FE
FF03FC
FFC7FC
FFFFF8
FFFFF0
FFFFE0
FFFFC0
FE7F00
FE0000
FE0000
FE0000
FE0000
FE0000
FE0000
FE0000
FE0000
FE0000
F80000
ENDCHAR
STARTCHAR ydieresis
ENCODING 255
SWIDTH 515 0
DWIDTH 25 0
BBX 24 45 1 -10
BITMAP
0781E0
0FC3F0
1FC7F0
1FC7F0
1FC7F0
1FC7F0
0F83E0
000000
000000
000000
000000
FE0003
FE00FE
FF00FE
FF00FC
7F01FC
7F81F8
3F81F8
3F83F8
1FC3F0
1FC3F0
0FC7E0
0FE7E0
0FEFE0
07EFC0
07FFC0
03FF80
03FF80
01FF80
01FF00
01FF00
00FE00
00FE00
00FE00
01FC00
01FC00
03F800
03F800
07F800
07F000
07F000
0FE000
0FE000
1FE000
180000
ENDCHAR
STARTCHAR Amacron
ENCODING 256
SWIDTH 743 0
DWIDTH 36 0
BBX 35 45 0 -1
BITMAP
007FFFC000
007FFFC000
007FFFC000
007FFFC000
007FFFC000
0000000000
0000000000
0000000000
0000000000
0001F00000
0003F80000
0003F80000
0003FC0000
0007FC0000
0007FC0000
000FFE0000
000FFE0000
000FFF0000
001FFF0000
001FFF8000
003FBF8000
003FBFC000
007F1FC000
007F1FC000
007F1FE000
00FE0FE000
00FE0FF000
01FC07F000
01FC07F800
03FC07F800
03F803FC00
03FFFFFC00
07FFFFFC00
07FFFFFE00
0FFFFFFE00
0FFFFFFF00
1FE000FF00
1FE000FF80
1FC0007F80
3FC0007F80
3FC0003FC0
7F80003FC0
7F80003FE0
FF00001FE0
0000001E00
ENDCHAR
STARTCHAR amacron
ENCODING 257
SWIDTH 522 0
DWIDTH 25 0
BBX 23 34 1 -1
BITMAP
1FFFF0
1FFFF0
1FFFF0
1FFFF0
1FFFF0
000000
000000
000000
000000
01FE00
0FFF80
3FFFE0
3FFFE0
3FFFF0
3FFFF0
1C07F8
1007F8
0003F8
0003F8
0003F8
03FFF8
0FFFF8
3FFFF8
7F83F8
7F03F8
FE03F8
FE03F8
FE07F8
FE0FF8
FFBFFE
7FFFFE
7FF9FE
3FF1FE
0FC07C
ENDCHAR
STARTCHAR Abreve
ENCODING 258
SWIDTH 743 0
DWIDTH 36 0
BBX 35 47 0 -1
BITMAP
003E07C000
003E07C000
003E0FC000
003F0F8000
001FFF8000
001FFF0000
000FFE0000
0003FC0000
0000000000
0000000000
0000000000
0001F00000
0003F80000
0003F80000
0003FC0000
0007FC0000
0007FC0000
000FFE0000
000FFE0000
000FFF0000
001FFF0000
001FFF8000
003FBF8000
003FBFC000
007F1FC000
007F1FC000
007F1FE000
00FE0FE000
00FE0FF000
01FC07F000
01FC07F800
03FC07F800
03F803FC00
03FFFFFC00
07FFFFFC00
07FFFFFE00
0FFFFFFE00
0FFFFFFF00
1FE000FF00
1FE000FF80
1FC0007F80
3FC0007F80
3FC0003FC0
7F80003FC0
7F80003FE0
FF00001FE0
0000001E00
ENDCHAR
STARTCHAR abreve
ENCODING 259
SWIDTH 522 0
DWIDTH 25 0
BBX 23 36 1 -1
BITMAP
1F01F0
1F01E0
0F83E0
0FC7E0
0FFFE0
07FFC0
03FF80
00FF00
000000
000000
000000
01FE00
0FFF80
3FFFE0
3FFFE0
3FFFF0
3FFFF0
1C07F8
1007F8
0003F8
0003F8
0003F8
03FFF8
0FFFF8
3FFFF8
7F83F8
7F03F8
FE03F8
FE07F8
FE07F8
FE0FF8
FFFFFE
7FFFFE
7FF9FE
3FF1FE
0FC07C
ENDCHAR
STARTCHAR Aogonek
ENCODING 260
SWIDTH 743 0
DWIDTH 36 0
BBX 35 46 0 -11
BITMAP
0001F00000
0003F80000
0003F80000
0003FC0000
0007FC0000
0007FC0000
000FFE0000
000FFE0000
000FFF0000
001FFF0000
001FFF8000
003FBF8000
003FBFC000
007F1FC000
007F1FC000
007F1FE000
00FE0FE000
00FE0FF000
01FC07F000
01FC07F800
03FC07F800
03F803FC00
03FFFFFC00
07FFFFFC00
07FFFFFE00
0FFFFFFE00
0FFFFFFF00
1FE000FF00
1FE000FF80
1FC0007F80
3FC0007F80
3FC0003FC0
7F80003FC0
7F80003FE0
FF00001FE0
0000001FE0
0000000F80
0000001F00
0000003E00
0000007C00
0000007C00
0000007E00
0000007FE0
0000007FE0
0000003FE0
0000000FC0
ENDCHAR
STARTCHAR aogonek
ENCODING 261
SWIDTH 522 0
DWIDTH 25 0
BBX 23 35 1 -11
BITMAP
01FE00
0FFF80
3FFFE0
3FFFE0
3FFFF0
3FFFF0
1C07F8
1007F8
0003F8
0003F8
0003F8
03FFF8
0FFFF8
3FFFF8
7F83F8
7F03F8
FE03F8
FE07F8
FE07F8
FE0FF8
FFFFFE
7FFFFE
7FF9FE
3FF1FE
1FC0FE
0000F8
0001F0
0003E0
0007C0
0007C0
0007E2
0007FE
0007FE
0003FE
0000FC
ENDCHAR
STARTCHAR Cacute
ENCODING 262
SWIDTH 678 0
DWIDTH 33 0
BBX 29 46 2 -1
BITMAP
00007FC0
00007F80
0000FF00
0000FE00
0001FC00
0001F800
0003F000
0007C000
00000000
00000000
0003FE00
001FFFC0
007FFFF0
01FFFFF0
03FFFFF0
07FFFFF0
0FFF8FF0
1FFC00E0
1FF00020
3FE00000
3FC00000
7F800000
7F800000
7F000000
FF000000
FF000000
FF000000
FF000000
FF000000
FF000000
FF000000
FF000000
FF000000
7F800000
7F800000
7FC00008
3FE00018
3FF00030
1FF800F0
1FFF8FF0
0FFFFFF0
07FFFFF0
01FFFFF0
00FFFFE0
003FFF80
0007FC00
ENDCHAR
STARTCHAR cacute
ENCODING 263
SWIDTH 483 0
DWIDTH 23 0
BBX 21 36 1 -1
BITMAP
0007F8
000FF0
000FE0
001FC0
001F80
003F00
003E00
007C00
000000
000000
000000
007F80
01FFF0
07FFF0
0FFFF0
1FFFF0
1FFFF0
3FE070
3F8000
7F8000
7F0000
7F0000
7F0000
FF0000
FF0000
7F0000
7F0000
7F8000
7FC010
3FE030
3FFFF0
1FFFF0
0FFFF0
07FFF0
03FFE0
007F80
ENDCHAR
STARTCHAR Cdotaccent
ENCODING 266
SWIDTH 678 0
DWIDTH 33 0
BBX 29 46 2 -1
BITMAP
0003E000
0007F000
0007F800
0007F800
0007F000
0007F000
0001E000
00000000
00000000
00000000
0003FE00
001FFFC0
007FFFF0
01FFFFF0
03FFFFF0
07FFFFF0
0FFF8FF0
1FFC00E0
1FF00020
3FE00000
3FC00000
7F800000
7F800000
7F000000
FF000000
FF000000
FF000000
FF000000
FF000000
FF000000
FF000000
FF000000
FF000000
7F800000
7F800000
7FC00008
3FE00018
3FF00030
1FF800F0
1FFF8FF0
0FFFFFF0
07FFFFF0
01FFFFF0
00FFFFE0
003FFF80
0007FC00
ENDCHAR
STARTCHAR cdotaccent
ENCODING 267
SWIDTH 483 0
DWIDTH 23 0
BBX 20 36 1 -1
BITMAP
003C00
007E00
00FF00
00FF00
00FF00
007E00
003E00
000000
000000
000000
000000
007F80
01FFF0
07FFF0
0FFFF0
1FFFF0
1FFFF0
3FE070
3F8000
7F8000
7F0000
7F0000
7F0000
FF0000
FF0000
7F0000
7F0000
7F8000
7FC010
3FE030
3FFFF0
1FFFF0
0FFFF0
07FFF0
03FFE0
007F80
ENDCHAR
STARTCHAR Ccaron
ENCODING 268
SWIDTH 678 0
DWIDTH 33 0
BBX 29 46 2 -1
BITMAP
00F80F80
007C1F00
003F3F00
003FFE00
001FFC00
000FFC00
000FF800
0007F000
00000000
00000000
0003FE00
001FFFC0
007FFFF0
01FFFFF0
03FFFFF0
07FFFFF0
0FFF8FF0
1FFC00E0
1FF00020
3FE00000
3FC00000
7F800000
7F800000
7F000000
FF000000
FF000000
FF000000
FF000000
FF000000
FF000000
FF000000
FF000000
FF000000
7F800000
7F800000
7FC00008
3FE00018
3FF00030
1FF800F0
1FFF8FF0
0FFFFFF0
07FFFFF0
01FFFFF0
00FFFFE0
003FFF80
0007FC00
ENDCHAR
STARTCHAR ccaron
ENCODING 269
SWIDTH 483 0
DWIDTH 23 0
BBX 21 36 1 -1
BITMAP
0F80F8
0FC1F0
07E3E0
03FFC0
03FFC0
01FF80
00FF00
007F00
000000
000000
000000
007F80
01FFF0
07FFF0
0FFFF0
1FFFF0
1FFFF0
3FE070
3F8000
7F8000
7F0000
7F0000
7F0000
FF0000
FF0000
7F0000
7F0000
7F8000
7FC010
3FE030
3FFFF0
1FFFF0
0FFFF0
07FFF0
03FFE0
007F80
ENDCHAR
STARTCHAR Dcaron
ENCODING 270
SWIDTH 741 0
DWIDTH 36 0
BBX 30 46 4 0
BITMAP
07C07C00
03E0F800
03F1F800
01FBF000
00FFE000
00FFC000
007FC000
003F8000
00000000
00000000
00000000
FFFF0000
FFFFE000
FFFFFC00
FFFFFE00
FFFFFF80
FFFFFFC0
FF01FFC0
FF007FE0
FF001FF0
FF001FF0
FF000FF8
FF0007F8
FF0007F8
FF0007F8
FF0003F8
FF0003FC
FF0003FC
FF0003FC
FF0003FC
FF0003F8
FF0003F8
FF0007F8
FF0007F8
FF0007F8
FF000FF0
FF001FF0
FF001FE0
FF007FE0
FF01FFC0
FFFFFF80
FFFFFF00
FFFFFE00
FFFFFC00
FFFFF000
FFFF0000
ENDCHAR
STARTCHAR dcaron
ENCODING 271
SWIDTH 584 0
DWIDTH 28 0
BBX 31 37 1 -1
BITMAP
00000300
00007F1E
00007F1E
00007F1E
00007F1E
00007F1C
00007F1C
00007F1C
00007F1C
00007F18
00007F00
00007F00
007E7F00
03FFFF00
07FFFF00
0FFFFF00
1FFFFF00
3FF3FF00
3FC07F00
7F807F00
7F007F00
7F007F00
7F007F00
7F007F00
FF007F00
FF007F00
FF007F00
7F007F00
7F007F00
7F807F00
7FC0FF00
3FF7FF00
3FFFFF00
1FFFFF00
0FFFFF00
07FE7F00
01F80000
ENDCHAR
STARTCHAR Dcroat
ENCODING 272
SWIDTH 740 0
DWIDTH 36 0
BBX 33 35 1 0
BITMAP
1FFFE00000
1FFFFC0000
1FFFFF8000
1FFFFFC000
1FFFFFF000
1FFFFFF800
1FE03FF800
1FE00FFC00
1FE003FE00
1FE003FE00
1FE001FF00
1FE000FF00
1FE000FF00
1FE000FF00
1FE0007F00
FFFF807F80
FFFF807F80
FFFF807F80
FFFF807F80
FFFF807F00
1FE0007F00
1FE000FF00
1FE000FF00
1FE000FF00
1FE001FE00
1FE003FE00
1FE007FC00
1FE00FFC00
1FE03FF800
1FFFFFF000
1FFFFFE000
1FFFFFC000
1FFFFF0000
1FFFFE0000
1FFFE00000
ENDCHAR
STARTCHAR dcroat
ENCODING 273
SWIDTH 584 0
DWIDTH 28 0
BBX 27 37 1 -1
BITMAP
00000300
00007F00
00007F00
00007F00
00007F00
001FFFE0
001FFFE0
001FFFE0
001FFFE0
00007F00
00007F00
00007F00
007E7F00
03FFFF00
07FFFF00
0FFFFF00
1FFFFF00
3FF3FF00
3FC07F00
7F807F00
7F007F00
7F007F00
7F007F00
7F007F00
FF007F00
FF007F00
FF007F00
7F007F00
7F007F00
7F807F00
7FC0FF00
3FF7FF00
3FFFFF00
1FFFFF00
0FFFFF00
07FE7F00
01F80000
ENDCHAR
STARTCHAR Emacron
ENCODING 274
SWIDTH 572 0
DWIDTH 27 0
BBX 22 45 4 -1
BITMAP
3FFFE0
3FFFE0
3FFFE0
3FFFE0
3FFFE0
000000
000000
000000
000000
FFFFF8
FFFFF8
FFFFF8
FFFFF8
FFFFF8
FFFFF8
FF0000
FF0000
FF0000
FF0000
FF0000
FF0000
FF0000
FF0000
FFFFE0
FFFFE0
FFFFE0
FFFFE0
FFFFE0
FFFFE0
FF0000
FF0000
FF0000
FF0000
FF0000
FF0000
FF0000
FF0000
FF0000
FF0000
FFFFFC
FFFFFC
FFFFFC
FFFFFC
FFFFFC
FFFFFC
ENDCHAR
STARTCHAR emacron
ENCODING 275
SWIDTH 529 0
DWIDTH 25 0
BBX 23 34 1 -1
BITMAP
0FFFF8
0FFFF8
0FFFF8
0FFFF8
0FFFF8
000000
000000
000000
000000
007F00
01FFE0
07FFF0
0FFFF8
1FFFF8
3FC3FC
3F80FC
7F00FE
7F00FE
7F007E
7FFFFE
7FFFFE
FFFFFC
FFFE00
7F0000
7F0000
7F0000
7F8004
3FC01C
3FFBFC
1FFFFC
0FFFFC
07FFFC
03FFF0
007F80
ENDCHAR
STARTCHAR Ebreve
ENCODING 276
SWIDTH 572 0
DWIDTH 27 0
BBX 22 47 4 -1
BITMAP
1E03E0
1F03E0
1F07C0
1F8FC0
0FFFC0
0FFF80
07FF00
01FE00
000000
000000
000000
FFFFF8
FFFFF8
FFFFF8
FFFFF8
FFFFF8
FFFFF8
FF0000
FF0000
FF0000
FF0000
FF0000
FF0000
FF0000
FF0000
FFFFE0
FFFFE0
FFFFE0
FFFFE0
FFFFE0
FFFFE0
FF0000
FF0000
FF0000
FF0000
FF0000
FF0000
FF0000
FF0000
FF0000
FF0000
FFFFFC
FFFFFC
FFFFFC
FFFFFC
FFFFFC
FFFFFC
ENDCHAR
STARTCHAR ebreve
ENCODING 277
SWIDTH 529 0
DWIDTH 25 0
BBX 23 36 1 -1
BITMAP
0F80F8
0F80F0
07C1F0
07E3F0
07FFF0
03FFE0
01FFC0
007F80
000000
000000
000000
007F00
01FFE0
07FFF0
0FFFF8
1FFFF8
3FC3FC
3F80FC
7F00FE
7F00FE
7F007E
7FFFFE
7FFFFE
FFFFFC
FFFE00
7F0000
7F0000
7F0000
7F8004
3FC01C
3FFBFC
1FFFFC
0FFFFC
07FFFC
03FFF0
007F80
ENDCHAR
STARTCHAR Edotaccent
ENCODING 278
SWIDTH 572 0
DWIDTH 27 0
BBX 22 47 4 -1
BITMAP
007000
00FC00
01FC00
01FE00
01FE00
01FC00
00F800
002000
000000
000000
000000
FFFFF8
FFFFF8
FFFFF8
FFFFF8
FFFFF8
FFFFF8
FF0000
FF0000
FF0000
FF0000
FF0000
FF0000
FF0000
FF0000
FFFFE0
FFFFE0
FFFFE0
FFFFE0
FFFFE0
FFFFE0
FF0000
FF0000
FF0000
FF0000
FF0000
FF0000
FF0000
FF0000
FF0000
FF0000
FFFFFC
FFFFFC
FFFFFC
FFFFFC
FFFFFC
FFFFFC
ENDCHAR
STARTCHAR edotaccent
ENCODING 279
SWIDTH 529 0
DWIDTH 25 0
BBX 23 36 1 -1
BITMAP
001C00
007F00
007F00
007F00
007F00
007F00
003E00
000000
000000
000000
000000
007F00
01FFE0
07FFF0
0FFFF8
1FFFF8
3FC3FC
3F80FC
7F00FE
7F00FE
7F007E
7FFFFE
7FFFFE
FFFFFC
FFFE00
7F0000
7F0000
7F0000
7F8004
3FC01C
3FFBFC
1FFFFC
0FFFFC
07FFFC
03FFF0
007F80
ENDCHAR
STARTCHAR Eogonek
ENCODING 280
SWIDTH 572 0
DWIDTH 27 0
BBX 22 46 4 -11
BITMAP
FFFFF8
FFFFF8
FFFFF8
FFFFF8
FFFFF8
FFFFF8
FF0000
FF0000
FF0000
FF0000
FF0000
FF0000
FF0000
FF0000
FFFFE0
FFFFE0
FFFFE0
FFFFE0
FFFFE0
FFFFE0
FF0000
FF0000
FF0000
FF0000
FF0000
FF0000
FF0000
FF0000
FF0000
FFFFFC
FFFFFC
FFFFFC
FFFFFC
FFFFFC
FFFFFC
0000F8
0003E0
0007C0
000F80
001F00
001F00
001F80
001FF8
000FF8
000FF8
0003F0
ENDCHAR
STARTCHAR eogonek
ENCODING 281
SWIDTH 529 0
DWIDTH 25 0
BBX 23 35 1 -11
BITMAP
007F00
01FFE0
07FFF0
0FFFF8
1FFFF8
3FC3FC
3F80FC
7F00FE
7F00FE
7F007E
7FFFFE
7FFFFE
FFFFFC
FFFE00
7F0000
7F0000
7F0000
7F8004
3FC01C
3FFBFC
1FFFFC
0FFFFC
07FFFC
03FFF0
007FE0
000780
000F00
001F00
003E00
003E00
003F10
003FF0
003FF0
001FF0
0007E0
ENDCHAR
STARTCHAR Ecaron
ENCODING 282
SWIDTH 572 0
DWIDTH 27 0
BBX 22 47 4 -1
BITMAP
3E03E0
1F07E0
0F8FC0
0FDF80
07FF00
03FF00
03FE00
01FC00
000000
000000
000000
FFFFF8
FFFFF8
FFFFF8
FFFFF8
FFFFF8
FFFFF8
FF0000
FF0000
FF0000
FF0000
FF0000
FF0000
FF0000
FF0000
FFFFE0
FFFFE0
FFFFE0
FFFFE0
FFFFE0
FFFFE0
FF0000
FF0000
FF0000
FF0000
FF0000
FF0000
FF0000
FF0000
FF0000
FF0000
FFFFFC
FFFFFC
FFFFFC
FFFFFC
FFFFFC
FFFFFC
ENDCHAR
STARTCHAR ecaron
ENCODING 283
SWIDTH 529 0
DWIDTH 25 0
BBX 23 36 1 -1
BITMAP
0F80F8
07C1F0
07E3E0
03F7E0
01FFC0
01FF80
00FF80
007F00
000000
000000
000000
007F00
01FFE0
07FFF0
0FFFF8
1FFFF8
3FC3FC
3F80FC
7F00FE
7F00FE
7F007E
7FFFFE
7FFFFE
FFFFFC
FFFE00
7F0000
7F0000
7F0000
7F8004
3FC01C
3FFBFC
1FFFFC
0FFFFC
07FFFC
03FFF0
007F80
ENDCHAR
STARTCHAR Gbreve
ENCODING 286
SWIDTH 741 0
DWIDTH 36 0
BBX 31 46 2 -1
BITMAP
007C07C0
003E0780
003E0F80
003FBF80
001FFF00
001FFF00
0007FE00
0001F800
00000000
00000000
0003FE00
001FFFC0
007FFFF8
01FFFFFC
03FFFFFC
07FFFFF8
0FFFDFF8
1FFC00F8
1FF00030
3FE00000
3FC00000
7F800000
7F800000
7F000000
FF000000
FF000000
FF00FFFE
FF00FFFE
FF00FFFE
FF00FFFE
FF00FFFE
FF00FFFE
FF0000FE
7F8000FE
7F8000FE
7FC000FC
3FE000FC
3FF000FC
1FF800FC
1FFF07FC
0FFFFFFC
07FFFFFC
01FFFFFC
00FFFFF8
003FFFE0
0007FE00
ENDCHAR
STARTCHAR gbreve
ENCODING 287
SWIDTH 513 0
DWIDTH 25 0
BBX 24 47 0 -12
BITMAP
0F80F0
0F81F0
07C1F0
07E3F0
07FFE0
03FFE0
01FFC0
00FF00
00001F
00003F
00007F
007F7F
01FFFF
07FFF0
0FFFF8
1FFFF8
1FC1FC
1F80FC
3F80FE
3F80FE
3F80FE
3F80FC
3F81FC
1FC3FC
1FFFF8
0FFFF0
03FFE0
0FFF80
1F0000
3E0000
3F0000
3FFFE0
3FFFFC
1FFFFE
0FFFFF
0FFFFF
3F01FF
7E007F
7C003F
FC003F
FC007F
FE00FE
FF87FC
7FFFF8
3FFFF0
1FFFC0
03FE00
ENDCHAR
STARTCHAR Gdotaccent
ENCODING 288
SWIDTH 741 0
DWIDTH 36 0
BBX 31 46 2 -1
BITMAP
0001F000
0003F800
0003F800
0003F800
0003F800
0003F800
0000F000
00000000
00000000
00000000
0003FE00
001FFFC0
007FFFF8
01FFFFFC
03FFFFFC
07FFFFF8
0FFFDFF8
1FFC00F8
1FF00030
3FE00000
3FC00000
7F800000
7F800000
7F000000
FF000000
FF000000
FF00FFFE
FF00FFFE
FF00FFFE
FF00FFFE
FF00FFFE
FF00FFFE
FF0000FE
7F8000FE
7F8000FE
7FC000FC
3FE000FC
3FF000FC
1FF800FC
1FFF07FC
0FFFFFFC
07FFFFFC
01FFFFFC
00FFFFF8
003FFFE0
0007FE00
ENDCHAR
STARTCHAR gdotaccent
ENCODING 289
SWIDTH 513 0
DWIDTH 25 0
BBX 24 47 0 -12
BITMAP
001E00
003F00
007F00
007F80
007F80
007F00
003E00
00000F
00001F
00003F
00007F
007F7F
01FFFF
07FFF0
0FFFF8
1FFFF8
1FC1FC
1F80FC
3F80FE
3F80FE
3F80FE
3F80FC
3F81FC
1FC3FC
1FFFF8
0FFFF0
03FFE0
0FFF80
1F0000
3E0000
3F0000
3FFFE0
3FFFFC
1FFFFE
0FFFFF
0FFFFF
3F01FF
7E007F
7C003F
FC003F
FC007F
FE00FE
FF87FC
7FFFF8
3FFFF0
1FFFC0
03FE00
ENDCHAR
STARTCHAR Gcommaaccent
ENCODING 290
SWIDTH 741 0
DWIDTH 36 0
BBX 31 48 2 -13
BITMAP
0003FE00
001FFFC0
007FFFF8
01FFFFFC
03FFFFFC
07FFFFF8
0FFFDFF8
1FFC00F8
1FF00030
3FE00000
3FC00000
7F800000
7F800000
7F000000
FF000000
FF000000
FF00FFFE
FF00FFFE
FF00FFFE
FF00FFFE
FF00FFFE
FF00FFFE
FF0000FE
7F8000FE
7F8000FE
7FC000FC
3FE000FC
3FF000FC
1FF800FC
1FFF07FC
0FFFFFFC
07FFFFFC
01FFFFFC
00FFFFF8
003FFFE0
0007FE00
00000000
00000000
0001F000
0003F000
0003F800
0003F800
0000F800
0000F000
0000F000
0001E000
0003C000
00030000
ENDCHAR
STARTCHAR gcommaaccent
ENCODING 291
SWIDTH 513 0
DWIDTH 25 0
BBX 24 50 0 -12
BITMAP
000100
000780
000F00
001E00
003C00
007C00
007E00
007F00
007F00
003E00
001C00
00001F
00003F
00007F
007F7F
01FFFF
07FFF0
0FFFF8
1FFFF8
1FC1FC
1F80FC
3F80FE
3F80FE
3F80FE
3F80FC
3F81FC
1FC3FC
1FFFF8
0FFFF0
03FFE0
0FFF80
1F0000
3E0000
3F0000
3FFFE0
3FFFFC
1FFFFE
0FFFFF
0FFFFF
3F01FF
7E007F
7C003F
FC003F
FC007F
FE00FE
FF87FC
7FFFF8
3FFFF0
1FFFC0
03FE00
ENDCHAR
STARTCHAR Hbar
ENCODING 294
SWIDTH 792 0
DWIDTH 38 0
BBX 38 35 0 0
BITMAP
0010000040
0FF0003FC0
0FF0003FC0
0FF0003FC0
0FF0003FC0
0FF0003FC0
FFF0003FFC
FFFFFFFFF8
FFFFFFFFF8
FFFFFFFFF8
FFFFFFFFF8
0FF0003FC0
0FF0003FC0
0FF0003FC0
0FF0003FC0
0FF0003FC0
0FFFFFFFC0
0FFFFFFFC0
0FFFFFFFC0
0FFFFFFFC0
0FFFFFFFC0
0FF0003FC0
0FF0003FC0
0FF0003FC0
0FF0003FC0
0FF0003FC0
0FF0003FC0
0FF0003FC0
0FF0003FC0
0FF0003FC0
0FF0003FC0
0FF0003FC0
0FF0003FC0
0FF0003FC0
0FF0003FC0
ENDCHAR
STARTCHAR hbar
ENCODING 295
SWIDTH 587 0
DWIDTH 28 0
BBX 26 36 0 0
BITMAP
00C00000
1FC00000
1FC00000
1FC00000
1FC00000
FFFF0000
FFFF0000
FFFF0000
FFFF0000
1FC00000
1FC00000
1FC00000
1FC0F800
1FC3FE00
1FCFFF00
1FDFFF00
1FFFFF80
1FFFFF80
1FF87F80
1FE03F80
1FE03F80
1FC03F80
1FC03F80
1FC03F80
1FC03F80
1FC03F80
1FC03F80
1FC03F80
1FC03F80
1FC03F80
1FC03F80
1FC03F80
1FC03F80
1FC03F80
1FC03F80
1FC03FC0
ENDCHAR
STARTCHAR Imacron
ENCODING 298
SWIDTH 340 0
DWIDTH 16 0
BBX 16 44 0 0
BITMAP
FFFF
FFFF
FFFF
FFFF
FFFF
0000
0000
0000
0000
0010
0FF0
0FF0
0FF0
0FF0
0FF0
0FF0
0FF0
0FF0
0FF0
0FF0
0FF0
0FF0
0FF0
0FF0
0FF0
0FF0
0FF0
0FF0
0FF0
0FF0
0FF0
0FF0
0FF0
0FF0
0FF0
0FF0
0FF0
0FF0
0FF0
0FF0
0FF0
0FF0
0FF0
0FF0
ENDCHAR
STARTCHAR imacron
ENCODING 299
SWIDTH 272 0
DWIDTH 13 0
BBX 17 33 -2 0
BITMAP
FFFF80
FFFF80
FFFF80
FFFF80
FFFF80
000000
000000
000000
000000
003000
07F000
07F000
07F000
07F000
07F000
07F000
07F000
07F000
07F000
07F000
07F000
07F000
07F000
07F000
07F000
07F000
07F000
07F000
07F000
07F000
07F000
07F000
07F000
ENDCHAR
STARTCHAR Ibreve
ENCODING 300
SWIDTH 340 0
DWIDTH 16 0
BBX 16 46 0 0
BITMAP
F81F
F81F
F81F
FC3F
7FFE
3FFE
1FFC
0FF0
0000
0000
0000
0010
0FF0
0FF0
0FF0
0FF0
0FF0
0FF0
0FF0
0FF0
0FF0
0FF0
0FF0
0FF0
0FF0
0FF0
0FF0
0FF0
0FF0
0FF0
0FF0
0FF0
0FF0
0FF0
0FF0
0FF0
0FF0
0FF0
0FF0
0FF0
0FF0
0FF0
0FF0
0FF0
0FF0
0FF0
ENDCHAR
STARTCHAR ibreve
ENCODING 301
SWIDTH 272 0
DWIDTH 13 0
BBX 16 35 -2 0
BITMAP
F80F
F80F
7C1F
7E3F
7FFF
3FFE
1FFC
07F0
0000
0000
0000
0030
07F0
07F0
07F0
07F0
07F0
07F0
07F0
07F0
07F0
07F0
07F0
07F0
07F0
07F0
07F0
07F0
07F0
07F0
07F0
07F0
07F0
07F0
07F0
ENDCHAR
STARTCHAR Iogonek
ENCODING 302
SWIDTH 340 0
DWIDTH 16 0
BBX 10 46 2 -11
BITMAP
0040
3FC0
3FC0
3FC0
3FC0
3FC0
3FC0
3FC0
3FC0
3FC0
3FC0
3FC0
3FC0
3FC0
3FC0
3FC0
3FC0
3FC0
3FC0
3FC0
3FC0
3FC0
3FC0
3FC0
3FC0
3FC0
3FC0
3FC0
3FC0
3FC0
3FC0
3FC0
3FC0
3FC0
3FC0
0F80
1F00
3E00
7C00
7C00
FC00
FC00
FFC0
7FC0
7FC0
1F80
ENDCHAR
STARTCHAR iogonek
ENCODING 303
SWIDTH 272 0
DWIDTH 13 0
BBX 10 47 1 -11
BITMAP
0E00
1F80
3FC0
3FC0
7FC0
3FC0
3F80
0F00
0000
0000
0000
0000
0180
3F80
3F80
3F80
3F80
3F80
3F80
3F80
3F80
3F80
3F80
3F80
3F80
3F80
3F80
3F80
3F80
3F80
3F80
3F80
3F80
3F80
3F80
3F80
1F00
3E00
7C00
F800
F800
F800
F840
FFC0
FFC0
7FC0
3F00
ENDCHAR
STARTCHAR Idotaccent
ENCODING 304
SWIDTH 340 0
DWIDTH 16 0
BBX 8 46 4 0
BITMAP
3C
7E
FF
FF
FF
7E
7E
00
00
00
00
01
FF
FF
FF
FF
FF
FF
FF
FF
FF
FF
FF
FF
FF
FF
FF
FF
FF
FF
FF
FF
FF
FF
FF
FF
FF
FF
FF
FF
FF
FF
FF
FF
FF
FF
ENDCHAR
STARTCHAR dotlessi
ENCODING 305
SWIDTH 272 0
DWIDTH 13 0
BBX 7 24 3 0
BITMAP
06
FE
FE
FE
FE
FE
FE
FE
FE
FE
FE
FE
FE
FE
FE
FE
FE
FE
FE
FE
FE
FE
FE
FE
ENDCHAR
STARTCHAR Kcommaaccent
ENCODING 310
SWIDTH 703 0
DWIDTH 34 0
BBX 29 48 4 -13
BITMAP
01000000
FF000FF8
FF001FF0
FF003FE0
FF007FC0
FF00FF80
FF00FF00
FF01FF00
FF03FE00
FF07FC00
FF0FF800
FF0FF000
FF1FE000
FF3FC000
FF7FC000
FF7F8000
FFFF0000
FFFE0000
FFFF0000
FFFF8000
FF7F8000
FF7FC000
FF3FE000
FF1FF000
FF0FF800
FF07F800
FF07FC00
FF03FE00
FF01FF00
FF00FF80
FF00FFC0
FF007FC0
FF003FE0
FF001FF0
FF000FF8
00000FF8
00000000
00070000
000F8000
001FC000
001FC000
000FC000
0007C000
00078000
000F0000
001E0000
003C0000
00180000
ENDCHAR
STARTCHAR kcommaaccent
ENCODING 311
SWIDTH 532 0
DWIDTH 26 0
BBX 22 49 3 -13
BITMAP
060000
FE0000
FE0000
FE0000
FE0000
FE0000
FE0000
FE0000
FE0000
FE0000
FE0000
FE0000
FE000C
FE03F8
FE07F0
FE0FE0
FE1FE0
FE1FC0
FE3F80
FE7F00
FE7F00
FEFE00
FFFC00
FFF800
FFFC00
FFFE00
FEFF00
FEFF00
FE7F80
FE3FC0
FE3FE0
FE1FE0
FE0FF0
FE0FF8
FE07F8
FE03FC
0003E0
000000
006000
00F800
01FC00
01FC00
00FC00
007800
007800
00F000
01E000
03C000
010000
ENDCHAR
STARTCHAR Lacute
ENCODING 313
SWIDTH 555 0
DWIDTH 27 0
BBX 22 46 4 -1
BITMAP
03FE00
07F800
07F000
0FE000
0FC000
1F8000
1F0000
3C0000
000000
000000
010000
FF0000
FF0000
FF0000
FF0000
FF0000
FF0000
FF0000
FF0000
FF0000
FF0000
FF0000
FF0000
FF0000
FF0000
FF0000
FF0000
FF0000
FF0000
FF0000
FF0000
FF0000
FF0000
FF0000
FF0000
FF0000
FF0000
FF0000
FF0000
FF0000
FFFFFC
FFFFFC
FFFFFC
FFFFF8
FFFFF8
FFFFF8
ENDCHAR
STARTCHAR lacute
ENCODING 314
SWIDTH 272 0
DWIDTH 13 0
BBX 13 46 3 0
BITMAP
0FF8
1FE0
1FC0
3F80
3F00
7E00
7C00
F000
0000
0000
0E00
FE00
FE00
FE00
FE00
FE00
FE00
FE00
FE00
FE00
FE00
FE00
FE00
FE00
FE00
FE00
FE00
FE00
FE00
FE00
FE00
FE00
FE00
FE00
FE00
FE00
FE00
FE00
FE00
FE00
FE00
FE00
FE00
FE00
FE00
FE00
ENDCHAR
STARTCHAR Lcommaaccent
ENCODING 315
SWIDTH 555 0
DWIDTH 27 0
BBX 22 49 4 -14
BITMAP
010000
FF0000
FF0000
FF0000
FF0000
FF0000
FF0000
FF0000
FF0000
FF0000
FF0000
FF0000
FF0000
FF0000
FF0000
FF0000
FF0000
FF0000
FF0000
FF0000
FF0000
FF0000
FF0000
FF0000
FF0000
FF0000
FF0000
FF0000
FF0000
FF0000
FFFFFC
FFFFFC
FFFFFC
FFFFF8
FFFFF8
FFFFF8
000000
000000
007000
00F800
01FC00
01FC00
00FC00
007C00
007800
00F000
01E000
01C000
010000
ENDCHAR
STARTCHAR lcommaaccent
ENCODING 316
SWIDTH 272 0
DWIDTH 13 0
BBX 8 49 2 -13
BITMAP
03
7F
7F
7F
7F
7F
7F
7F
7F
7F
7F
7F
7F
7F
7F
7F
7F
7F
7F
7F
7F
7F
7F
7F
7F
7F
7F
7F
7F
7F
7F
7F
7F
7F
7F
7F
00
00
18
7E
7E
FF
3F
1E
1E
3C
78
F0
40
ENDCHAR
STARTCHAR Lcaron
ENCODING 317
SWIDTH 555 0
DWIDTH 27 0
BBX 22 36 4 -1
BITMAP
010780
FF0F80
FF0F80
FF0F80
FF0F00
FF0F00
FF0F00
FF0F00
FF0E00
FF0E00
FF0000
FF0000
FF0000
FF0000
FF0000
FF0000
FF0000
FF0000
FF0000
FF0000
FF0000
FF0000
FF0000
FF0000
FF0000
FF0000
FF0000
FF0000
FF0000
FF0000
FFFFFC
FFFFFC
FFFFFC
FFFFF8
FFFFF8
FFFFF8
ENDCHAR
STARTCHAR lcaron
ENCODING 318
SWIDTH 272 0
DWIDTH 13 0
BBX 14 36 3 0
BITMAP
0600
FE3C
FE3C
FE3C
FE3C
FE38
FE38
FE38
FE38
FE30
FE00
FE00
FE00
FE00
FE00
FE00
FE00
FE00
FE00
FE00
FE00
FE00
FE00
FE00
FE00
FE00
FE00
FE00
FE00
FE00
FE00
FE00
FE00
FE00
FE00
FE00
ENDCHAR
STARTCHAR Ldot
ENCODING 319
SWIDTH 555 0
DWIDTH 27 0
BBX 22 36 4 -1
BITMAP
010000
FF0000
FF0000
FF0000
FF0000
FF0000
FF0000
FF0000
FF0000
FF0000
FF0000
FF0000
FF0000
FF01E0
FF03F0
FF03F8
FF07F8
FF07F8
FF03F8
FF01F0
FF0000
FF0000
FF0000
FF0000
FF0000
FF0000
FF0000
FF0000
FF0000
FF0000
FFFFFC
FFFFFC
FFFFFC
FFFFF8
FFFFF8
FFFFF8
ENDCHAR
STARTCHAR ldot
ENCODING 320
SWIDTH 421 0
DWIDTH 20 0
BBX 17 36 3 0
BITMAP
060000
FE0000
FE0000
FE0000
FE0000
FE0000
FE0000
FE0000
FE0000
FE0000
FE0000
FE0000
FE0000
FE0000
FE0000
FE1E00
FE3F80
FE3F80
FE3F80
FE3F80
FE3F80
FE1F00
FE0000
FE0000
FE0000
FE0000
FE0000
FE0000
FE0000
FE0000
FE0000
FE0000
FE0000
FE0000
FE0000
FE0000
ENDCHAR
STARTCHAR Lslash
ENCODING 321
SWIDTH 555 0
DWIDTH 27 0
BBX 26 36 0 -1
BITMAP
00100000
0FF00000
0FF00000
0FF00000
0FF00000
0FF00000
0FF00000
0FF00000
0FF00000
0FF00000
0FF18000
0FF38000
0FFFC000
0FFFC000
0FFFE000
0FFF8000
0FFE0000
1FFC0000
3FF00000
FFF00000
FFF00000
FFF00000
7FF00000
6FF00000
0FF00000
0FF00000
0FF00000
0FF00000
0FF00000
0FF00000
0FFFFFC0
0FFFFFC0
0FFFFFC0
0FFFFF80
0FFFFF80
0FFFFF80
ENDCHAR
STARTCHAR lslash
ENCODING 322
SWIDTH 291 0
DWIDTH 14 0
BBX 16 36 -1 0
BITMAP
0070
0FF0
0FF0
0FF0
0FF0
0FF0
0FF0
0FF0
0FF0
0FF0
0FF0
0FF0
0FF6
0FFE
0FFE
0FFF
0FFF
3FFE
FFF8
FFF0
7FF0
7FF0
6FF0
0FF0
0FF0
0FF0
0FF0
0FF0
0FF0
0FF0
0FF0
0FF0
0FF0
0FF0
0FF0
0FF0
ENDCHAR
STARTCHAR Nacute
ENCODING 323
SWIDTH 794 0
DWIDTH 38 0
BBX 30 46 4 -1
BITMAP
0000FF00
0001FE00
0001FC00
0003F800
0007F000
0007E000
000FC000
000F0000
00000000
00000000
F8000004
FC0003FC
FE0001FC
FF0001FC
FF0001FC
FF8001FC
FFC001FC
FFE001FC
FFF001FC
FFF001FC
FFF801FC
FFFC01FC
FFFE01FC
FFFF01FC
FEFF81FC
FE7F81FC
FE3FC1FC
FE3FE1FC
FE1FF1FC
FE0FF9FC
FE07F9FC
FE03FDFC
FE03FFFC
FE01FFFC
FE00FFFC
FE007FFC
FE003FFC
FE001FFC
FE001FFC
FE000FFC
FE0007FC
FE0003FC
FE0001FC
FE0001FC
FF0000FC
0000007C
ENDCHAR
STARTCHAR nacute
ENCODING 324
SWIDTH 587 0
DWIDTH 28 0
BBX 23 35 3 0
BITMAP
000FF8
001FE0
001FC0
003F80
003F00
007E00
007C00
00F800
000000
000000
000000
3E07C0
FE1FF0
FE7FF8
FEFFF8
FFFFFC
FFFFFC
FFC3FC
FF01FC
FF01FC
FE01FC
FE01FC
FE01FC
FE01FC
FE01FC
FE01FC
FE01FC
FE01FC
FE01FC
FE01FC
FE01FC
FE01FC
FE01FC
FE01FC
FE01FE
ENDCHAR
STARTCHAR Ncommaaccent
ENCODING 325
SWIDTH 794 0
DWIDTH 38 0
BBX 30 48 4 -13
BITMAP
F8000004
FC0003FC
FE0001FC
FF0001FC
FF0001FC
FF8001FC
FFC001FC
FFE001FC
FFF001FC
FFF001FC
FFF801FC
FFFC01FC
FFFE01FC
FFFF01FC
FEFF81FC
FE7F81FC
FE3FC1FC
FE3FE1FC
FE1FF1FC
FE0FF9FC
FE07F9FC
FE03FDFC
FE03FFFC
FE01FFFC
FE00FFFC
FE007FFC
FE003FFC
FE001FFC
FE001FFC
FE000FFC
FE0007FC
FE0003FC
FE0001FC
FE0001FC
FF0000FC
0000007C
00000000
00070000
000F8000
001FC000
001FC000
000FC000
0007C000
00078000
00078000
000F0000
001C0000
00180000
ENDCHAR
STARTCHAR ncommaaccent
ENCODING 326
SWIDTH 587 0
DWIDTH 28 0
BBX 23 37 3 -13
BITMAP
3E07C0
FE1FF0
FE7FF8
FEFFF8
FFFFFC
FFFFFC
FFC3FC
FF01FC
FF01FC
FE01FC
FE01FC
FE01FC
FE01FC
FE01FC
FE01FC
FE01FC
FE01FC
FE01FC
FE01FC
FE01FC
FE01FC
FE01FC
FE01FC
FE01FE
000000
000000
003000
00FC00
00FC00
01FE00
007C00
007C00
007C00
007800
00F000
01E000
008000
ENDCHAR
STARTCHAR Ncaron
ENCODING 327
SWIDTH 794 0
DWIDTH 38 0
BBX 30 46 4 -1
BITMAP
01F03E00
01F87E00
00FCFC00
007FF800
007FF800
003FF000
001FE000
000FE000
00000000
00000000
F8000004
FC0003FC
FE0001FC
FF0001FC
FF0001FC
FF8001FC
FFC001FC
FFE001FC
FFF001FC
FFF001FC
FFF801FC
FFFC01FC
FFFE01FC
FFFF01FC
FEFF81FC
FE7F81FC
FE3FC1FC
FE3FE1FC
FE1FF1FC
FE0FF9FC
FE07F9FC
FE03FDFC
FE03FFFC
FE01FFFC
FE00FFFC
FE007FFC
FE003FFC
FE001FFC
FE001FFC
FE000FFC
FE0007FC
FE0003FC
FE0001FC
FE0001FC
FF0000FC
0000007C
ENDCHAR
STARTCHAR ncaron
ENCODING 328
SWIDTH 587 0
DWIDTH 28 0
BBX 23 35 3 0
BITMAP
1F01F0
0F83E0
0FC7C0
07EFC0
03FF80
03FF00
01FF00
00FE00
000000
000000
000000
3E07C0
FE1FF0
FE7FF8
FEFFF8
FFFFFC
FFFFFC
FFC3FC
FF01FC
FF01FC
FE01FC
FE01FC
FE01FC
FE01FC
FE01FC
FE01FC
FE01FC
FE01FC
FE01FC
FE01FC
FE01FC
FE01FC
FE01FC
FE01FC
FE01FE
ENDCHAR
STARTCHAR Omacron
ENCODING 332
SWIDTH 794 0
DWIDTH 38 0
BBX 34 45 2 -1
BITMAP
007FFF8000
007FFF8000
007FFF8000
007FFF8000
007FFF8000
0000000000
0000000000
0000000000
0000000000
0007FC0000
003FFF8000
00FFFFC000
01FFFFF000
03FFFFF800
07FFFFFC00
0FFE0FFE00
1FF003FE00
1FE001FF00
3FC000FF80
3FC0007F80
7F80007F80
7F00003FC0
7F00003FC0
FF00003FC0
FF00003FC0
FF00001FC0
FF00001FC0
FF00001FC0
FF00001FC0
FF00003FC0
FF00003FC0
FF00003F80
FF00003F80
7F80007F80
7F80007F80
3FC000FF00
3FE001FF00
1FF003FE00
1FFC0FFC00
0FFFFFF800
07FFFFF000
03FFFFE000
00FFFFC000
007FFF0000
000FF80000
ENDCHAR
STARTCHAR omacron
ENCODING 333
SWIDTH 560 0
DWIDTH 27 0
BBX 24 34 1 -1
BITMAP
0FFFF8
0FFFF8
0FFFF8
0FFFF8
0FFFF8
000000
000000
000000
000000
007F00
01FFE0
07FFF0
0FFFF8
1FFFFC
3FF7FE
3FC1FE
7F80FF
7F007F
7F007F
7F007F
7F007F
FF007F
FF007F
7F007F
7F007F
7F007F
7F80FE
3F81FE
3FF7FC
1FFFFC
0FFFF8
07FFF0
03FFC0
007F00
ENDCHAR
STARTCHAR Obreve
ENCODING 334
SWIDTH 794 0
DWIDTH 38 0
BBX 34 46 2 -1
BITMAP
007C0F8000
007C0F8000
007E0F8000
003F3F0000
003FFF0000
001FFE0000
000FFC0000
0003F00000
0000000000
0000000000
0007FC0000
003FFF8000
00FFFFC000
01FFFFF000
03FFFFF800
07FFFFFC00
0FFE0FFE00
1FF003FE00
1FE001FF00
3FC000FF80
3FC0007F80
7F80007F80
7F00003FC0
7F00003FC0
FF00003FC0
FF00003FC0
FF00001FC0
FF00001FC0
FF00001FC0
FF00001FC0
FF00003FC0
FF00003FC0
FF00003F80
FF00003F80
7F80007F80
7F80007F80
3FC000FF00
3FE001FF00
1FF003FE00
1FFC0FFC00
0FFFFFF800
07FFFFF000
03FFFFE000
00FFFFC000
007FFF0000
000FF80000
ENDCHAR
STARTCHAR obreve
ENCODING 335
SWIDTH 560 0
DWIDTH 27 0
BBX 24 36 1 -1
BITMAP
0F80F0
0F81F0
07C1F0
07E3F0
07FFE0
03FFE0
01FFC0
00FF00
000000
000000
000000
007F00
01FFE0
07FFF0
0FFFF8
1FFFFC
3FF7FE
3FC1FE
7F80FF
7F007F
7F007F
7F007F
7F007F
FF007F
FF007F
7F007F
7F007F
7F007F
7F80FE
3F81FE
3FF7FC
1FFFFC
0FFFF8
07FFF0
03FFC0
007F00
ENDCHAR
STARTCHAR Ohungarumlaut
ENCODING 336
SWIDTH 794 0
DWIDTH 38 0
BBX 34 47 2 -1
BITMAP
000003F800
000FE7F000
000FE7F000
000FC7E000
001FCFC000
001F8FC000
001F0F8000
001F1F0000
003E000000
0000000000
0000000000
0007FC0000
003FFF8000
00FFFFC000
01FFFFF000
03FFFFF800
07FFFFFC00
0FFE0FFE00
1FF003FE00
1FE001FF00
3FC000FF80
3FC0007F80
7F80007F80
7F00003FC0
7F00003FC0
FF00003FC0
FF00003FC0
FF00001FC0
FF00001FC0
FF00001FC0
FF00001FC0
FF00003FC0
FF00003FC0
FF00003F80
FF00003F80
7F80007F80
7F80007F80
3FC000FF00
3FE001FF00
1FF003FE00
1FFC0FFC00
0FFFFFF800
07FFFFF000
03FFFFE000
00FFFFC000
007FFF0000
000FF80000
ENDCHAR
STARTCHAR ohungarumlaut
ENCODING 337
SWIDTH 560 0
DWIDTH 27 0
BBX 24 36 1 -1
BITMAP
00FE7F
01FC7F
01FCFE
01F8FC
01F8FC
03F1F8
03E1F0
03E1F0
000000
000000
000000
007F00
01FFE0
07FFF0
0FFFF8
1FFFFC
3FF7FE
3FC1FE
7F80FF
7F007F
7F007F
7F007F
7F007F
FF007F
FF007F
7F007F
7F007F
7F007F
7F80FE
3F81FE
3FF7FC
1FFFFC
0FFFF8
07FFF0
03FFC0
007F00
ENDCHAR
STARTCHAR OE
ENCODING 338
SWIDTH 962 0
DWIDTH 46 0
BBX 43 36 2 -1
BITMAP
0000000001C0
001FFFFFFFC0
007FFFFFFFC0
01FFFFFFFF80
03FFFFFFFF80
07FFFFFFFF80
0FFE07F80000
1FF807F80000
3FE007F80000
3FC007F80000
7FC007F80000
7F8007F80000
7F0007F80000
FF0007F80000
FF0007FFFF00
FF0007FFFE00
FF0007FFFE00
FF0007FFFE00
FF0007FFFE00
FF0007FFFE00
FF0007F80000
FF0007F80000
FF0007F80000
7F8007F80000
7F8007F80000
7FC007F80000
3FE007F80000
1FF807F80000
1FFE07F80000
0FFFFFFFFFE0
07FFFFFFFFE0
03FFFFFFFFE0
00FFFFFFFFC0
003FFFFFFFC0
0003FFFFFFC0
000000000FC0
ENDCHAR
STARTCHAR oe
ENCODING 339
SWIDTH 879 0
DWIDTH 42 0
BBX 40 25 1 -1
BITMAP
007F003F80
01FFC0FFE0
07FFF3FFF8
0FFFFFFFFC
1FFFFFFFFC
3FF7FFE1FE
3F81FFC0FE
7F80FF807E
7F007F807F
7F007F007F
7F007FFFFF
7E007FFFFF
FE007FFFFE
FF007FFE00
7F007F0000
7F007F8000
7F00FF8000
7F80FF8006
3F81FFC01E
3FF7FFFDFE
1FFFFFFFFE
0FFFF7FFFE
07FFE3FFFE
03FFC1FFF8
00FF003FC0
ENDCHAR
STARTCHAR Racute
ENCODING 340
SWIDTH 673 0
DWIDTH 32 0
BBX 27 46 4 -1
BITMAP
0003F800
000FF000
001FE000
001FC000
003F8000
007F0000
007E0000
00FC0000
00000000
00000000
00FE0000
FFFFE000
FFFFF800
FFFFFC00
FFFFFE00
FFFFFF00
FFFFFF00
FF01FF00
FF00FF80
FF007F80
FF007F80
FF007F80
FF007F80
FF007F80
FF007F00
FF00FF00
FF01FE00
FF0FFE00
FFFFFC00
FFFFF800
FFFFE000
FFFFE000
FFFFE000
FF0FF000
FF07F800
FF07F800
FF03FC00
FF03FE00
FF01FE00
FF01FF00
FF00FF00
FF007F80
FF007FC0
FF003FE0
FF003FE0
00001F80
ENDCHAR
STARTCHAR racute
ENCODING 341
SWIDTH 391 0
DWIDTH 19 0
BBX 17 35 3 0
BITMAP
00FF80
01FE00
01FC00
03F800
03F000
07E000
07C000
0F8000
000000
000000
000000
1E0600
FE1E00
FE7E00
FEFE00
FEFE00
FFFE00
FFFE00
FFC000
FF0000
FF0000
FE0000
FE0000
FE0000
FE0000
FE0000
FE0000
FE0000
FE0000
FE0000
FE0000
FE0000
FE0000
FE0000
FE0000
ENDCHAR
STARTCHAR Rcommaaccent
ENCODING 342
SWIDTH 673 0
DWIDTH 32 0
BBX 27 48 4 -13
BITMAP
00FE0000
FFFFE000
FFFFF800
FFFFFC00
FFFFFE00
FFFFFF00
FFFFFF00
FF01FF00
FF00FF80
FF007F80
FF007F80
FF007F80
FF007F80
FF007F80
FF007F00
FF00FF00
FF01FE00
FF0FFE00
FFFFFC00
FFFFF800
FFFFE000
FFFFE000
FFFFE000
FF0FF000
FF07F800
FF07F800
FF03FC00
FF03FE00
FF01FE00
FF01FF00
FF00FF00
FF007F80
FF007FC0
FF003FE0
FF003FE0
00001F80
00000000
001C0000
003E0000
007F0000
007F0000
003F0000
001F0000
001E0000
003E0000
003C0000
00780000
00600000
ENDCHAR
STARTCHAR rcommaaccent
ENCODING 343
SWIDTH 391 0
DWIDTH 19 0
BBX 16 37 2 -13
BITMAP
0F03
7F0F
7F3F
7F7F
7F7F
7FFF
7FFF
7FE0
7F80
7F80
7F00
7F00
7F00
7F00
7F00
7F00
7F00
7F00
7F00
7F00
7F00
7F00
7F00
7F00
0000
0000
1800
3E00
7F00
7F00
3F00
1E00
1E00
3C00
7800
F000
4000
ENDCHAR
STARTCHAR Rcaron
ENCODING 344
SWIDTH 673 0
DWIDTH 32 0
BBX 27 46 4 -1
BITMAP
1F01F000
0F83E000
0FC7C000
07EFC000
03FF8000
03FF0000
01FF0000
00FE0000
00000000
00000000
00FE0000
FFFFE000
FFFFF800
FFFFFC00
FFFFFE00
FFFFFF00
FFFFFF00
FF01FF00
FF00FF80
FF007F80
FF007F80
FF007F80
FF007F80
FF007F80
FF007F00
FF00FF00
FF01FE00
FF0FFE00
FFFFFC00
FFFFF800
FFFFE000
FFFFE000
FFFFE000
FF0FF000
FF07F800
FF07F800
FF03FC00
FF03FE00
FF01FE00
FF01FF00
FF00FF00
FF007F80
FF007FC0
FF003FE0
FF003FE0
00001F80
ENDCHAR
STARTCHAR rcaron
ENCODING 345
SWIDTH 391 0
DWIDTH 19 0
BBX 17 35 2 0
BITMAP
F80F80
7C1F00
7E3E00
3F7E00
1FFC00
1FF800
0FF800
07F000
000000
000000
000000
0F0300
7F0F00
7F3F00
7F7F00
7F7F00
7FFF00
7FFF00
7FE000
7F8000
7F8000
7F0000
7F0000
7F0000
7F0000
7F0000
7F0000
7F0000
7F0000
7F0000
7F0000
7F0000
7F0000
7F0000
7F0000
ENDCHAR
STARTCHAR Sacute
ENCODING 346
SWIDTH 551 0
DWIDTH 26 0
BBX 23 46 2 -1
BITMAP
0007FC
000FF0
000FE0
001FC0
001F80
003F00
003E00
007800
000000
000000
00FF00
03FFF0
0FFFFC
1FFFF8
1FFFF8
3FFFF8
3FE1F0
7F8030
7F8000
7F0000
7F0000
7F8000
7FC000
3FE000
3FF800
1FFE00
0FFF80
07FFC0
03FFE0
00FFF0
003FF8
001FFC
0007FC
0003FC
0001FC
0001FE
8001FC
E001FC
F803FC
FF07FC
FFFFF8
FFFFF8
FFFFF0
7FFFE0
1FFF80
03FE00
ENDCHAR
STARTCHAR sacute
ENCODING 347
SWIDTH 447 0
DWIDTH 21 0
BBX 19 36 2 -1
BITMAP
003FE0
003FC0
007F80
007F00
00FE00
00FC00
01F800
01F000
000000
000000
000000
03FC00
0FFF80
3FFF80
7FFF80
7FFF00
FF0700
FE0100
FE0000
FF0000
FFC000
7FF800
3FFE00
1FFF00
0FFF80
03FFC0
007FC0
001FC0
001FC0
C01FC0
F83FC0
FFFF80
FFFF80
FFFF00
7FFE00
0FF000
ENDCHAR
STARTCHAR Scedilla
ENCODING 350
SWIDTH 551 0
DWIDTH 26 0
BBX 23 47 2 -12
BITMAP
00FF00
03FFF0
0FFFFC
1FFFF8
1FFFF8
3FFFF8
3FE1F0
7F8030
7F8000
7F0000
7F0000
7F8000
7FC000
3FE000
3FF800
1FFE00
0FFF80
07FFC0
03FFE0
00FFF0
007FF8
001FFC
0007FC
0003FC
0001FC
0001FE
8001FC
C001FC
F003FC
FF07FC
FFFFF8
FFFFF8
FFFFF0
FFFFE0
1FFF80
03FE00
007000
00F000
00F800
00FE00
00FF00
001F00
000F80
010F80
03FF00
03FF00
03FE00
ENDCHAR
STARTCHAR scedilla
ENCODING 351
SWIDTH 447 0
DWIDTH 21 0
BBX 18 36 2 -12
BITMAP
03FC00
0FFF80
3FFF80
7FFF80
7FFF00
FF0700
FE0100
FE0000
FF0000
FFC000
7FF800
3FFE00
1FFF00
0FFF80
03FFC0
007FC0
001FC0
001FC0
C01FC0
F83FC0
FFFF80
FFFF80
FFFF00
FFFE00
0FF800
01C000
03C000
03E000
03F800
03FC00
007C00
003C00
003C00
0FFC00
0FFC00
0FF000
ENDCHAR
STARTCHAR Scaron
ENCODING 352
SWIDTH 551 0
DWIDTH 26 0
BBX 23 46 2 -1
BITMAP
0F80F8
07C1F0
07E3E0
03F7E0
01FFC0
01FF80
00FF80
007F00
000000
000000
00FF00
03FFF0
0FFFFC
1FFFF8
1FFFF8
3FFFF8
3FE1F0
7F8030
7F8000
7F0000
7F0000
7F8000
7FC000
3FE000
3FF800
1FFE00
0FFF80
07FFC0
03FFE0
00FFF0
003FF8
001FFC
0007FC
0003FC
0001FC
0001FE
8001FC
E001FC
F803FC
FF07FC
FFFFF8
FFFFF8
FFFFF0
7FFFE0
1FFF80
03FE00
ENDCHAR
STARTCHAR scaron
ENCODING 353
SWIDTH 447 0
DWIDTH 21 0
BBX 18 36 2 -1
BITMAP
7C07C0
3E0F80
1F1F80
1FBF00
0FFE00
07FE00
07FC00
03F800
000000
000000
000000
03FC00
0FFF80
3FFF80
7FFF80
7FFF00
FF0700
FE0100
FE0000
FF0000
FFC000
7FF800
3FFE00
1FFF00
0FFF80
03FFC0
007FC0
001FC0
001FC0
C01FC0
F83FC0
FFFF80
FFFF80
FFFF00
7FFE00
0FF000
ENDCHAR
STARTCHAR Tcommaaccent
ENCODING 354
SWIDTH 662 0
DWIDTH 32 0
BBX 30 48 1 -13
BITMAP
FFFFFFFC
FFFFFFF8
FFFFFFF8
FFFFFFF8
FFFFFFF8
FFFFFFF8
FFFFFFF8
001FE000
001FE000
001FE000
001FE000
001FE000
001FE000
001FE000
001FE000
001FE000
001FE000
001FE000
001FE000
001FE000
001FE000
001FE000
001FE000
001FE000
001FE000
001FE000
001FE000
001FE000
001FE000
001FE000
001FE000
001FE000
001FE000
001FE000
001FE000
00000000
00000000
00070000
000F8000
001FC000
001FC000
000FC000
0007C000
00078000
000F0000
000E0000
003C0000
00180000
ENDCHAR
STARTCHAR tcommaaccent
ENCODING 355
SWIDTH 389 0
DWIDTH 19 0
BBX 17 43 1 -13
BITMAP
006000
03E000
0FE000
0FE000
0FE000
0FE000
0FE000
FFFF80
FFFF00
FFFF00
FFFF00
FFFF00
1FE000
1FE000
1FE000
1FE000
1FE000
1FE000
1FE000
1FE000
1FE000
1FE000
1FE000
1FE000
1FE080
1FFF00
0FFF00
0FFF00
07FF00
03FF00
01FC00
000000
000000
00F800
01FC00
01FC00
00FC00
007C00
007800
00F000
00F000
03C000
018000
ENDCHAR
STARTCHAR Tcaron
ENCODING 356
SWIDTH 662 0
DWIDTH 32 0
BBX 30 46 1 0
BITMAP
03E03E00
01F07E00
00F8FC00
00FFF800
007FF800
003FF000
003FE000
001FE000
00000000
00000000
00000000
FFFFFFFC
FFFFFFF8
FFFFFFF8
FFFFFFF8
FFFFFFF8
FFFFFFF8
FFFFFFF8
001FE000
001FE000
001FE000
001FE000
001FE000
001FE000
001FE000
001FE000
001FE000
001FE000
001FE000
001FE000
001FE000
001FE000
001FE000
001FE000
001FE000
001FE000
001FE000
001FE000
001FE000
001FE000
001FE000
001FE000
001FE000
001FE000
001FE000
001FE000
ENDCHAR
STARTCHAR tcaron
ENCODING 357
SWIDTH 389 0
DWIDTH 19 0
BBX 18 36 1 -1
BITMAP
0003C0
0003C0
0003C0
0003C0
000380
006380
03E780
0FE780
0FE700
0FE000
0FE000
0FE000
7FFF80
FFFF80
FFFF00
FFFF00
FFFF00
1FE000
1FE000
1FE000
1FE000
1FE000
1FE000
1FE000
1FE000
1FE000
1FE000
1FE000
1FE000
1FE080
0FFF80
0FFF80
0FFF00
07FF00
03FF00
00FC00
ENDCHAR
STARTCHAR Umacron
ENCODING 362
SWIDTH 772 0
DWIDTH 37 0
BBX 31 45 3 -1
BITMAP
01FFFF00
01FFFF00
01FFFF00
01FFFF00
01FFFF00
00000000
00000000
00000000
00000000
01800006
FF8003FC
FF8003FC
7F8003FC
7F0003FC
7F0003FC
7F0001FC
7F0001FC
7F0001FC
7F0001FC
7F0001FC
7F0001FC
7F0001FC
7F0001FC
7F0001FC
7F0001FC
7F0001FC
7F0001FC
7F0001FC
7F0001FC
7F0001FC
7F0001FC
7F0001FC
7F8001FC
7F8003FC
7F8003FC
7FC003FC
7FC007F8
3FE00FF8
3FFE7FF0
1FFFFFF0
0FFFFFE0
07FFFFC0
03FFFF00
00FFFE00
001FF000
ENDCHAR
STARTCHAR umacron
ENCODING 363
SWIDTH 587 0
DWIDTH 28 0
BBX 23 35 3 -1
BITMAP
1FFFE0
1FFFE0
1FFFE0
1FFFE0
1FFFE0
000000
000000
000000
000000
000000
FE01FE
FE01FC
FE01FC
FE01FC
FE01FC
FE01FC
FE01FC
FE01FC
FE01FC
FE01FC
FE01FC
FE01FC
FE01FC
FE01FC
FE01FC
FE01FC
FE01FC
FF03FC
FF07FC
FFFFFC
FFFFFC
7FFDFC
7FF8FC
3FF0FE
0FC000
ENDCHAR
STARTCHAR Ubreve
ENCODING 364
SWIDTH 772 0
DWIDTH 37 0
BBX 31 47 3 -1
BITMAP
01F01F00
01F01E00
00F83E00
00FC7E00
00FFFE00
007FFC00
003FF800
000FF000
00000000
00000000
00000000
01800006
FF8003FC
FF8003FC
7F8003FC
7F0003FC
7F0003FC
7F0001FC
7F0001FC
7F0001FC
7F0001FC
7F0001FC
7F0001FC
7F0001FC
7F0001FC
7F0001FC
7F0001FC
7F0001FC
7F0001FC
7F0001FC
7F0001FC
7F0001FC
7F0001FC
7F0001FC
7F8001FC
7F8003FC
7F8003FC
7FC003FC
7FC007F8
3FE00FF8
3FFE7FF0
1FFFFFF0
0FFFFFE0
07FFFFC0
03FFFF00
00FFFE00
001FF000
ENDCHAR
STARTCHAR ubreve
ENCODING 365
SWIDTH 587 0
DWIDTH 28 0
BBX 23 36 3 -1
BITMAP
1F03E0
1F03E0
1F83E0
0FCFE0
0FFFC0
07FF80
03FF00
00FC00
000000
000000
000000
FE01FE
FE01FC
FE01FC
FE01FC
FE01FC
FE01FC
FE01FC
FE01FC
FE01FC
FE01FC
FE01FC
FE01FC
FE01FC
FE01FC
FE01FC
FE01FC
FE01FC
FF03FC
FF07FC
FFFFFC
FFFFFC
7FFDFC
7FF8FC
3FF0FE
0FC000
ENDCHAR
STARTCHAR Uring
ENCODING 366
SWIDTH 772 0
DWIDTH 37 0
BBX 31 50 3 -1
BITMAP
000FE000
001FF800
003FF800
007C7C00
00783C00
00783C00
00783C00
007C7C00
003FF800
003FF000
000FE000
00000000
00000000
00000000
01800006
FF8003FC
FF8003FC
7F8003FC
7F0003FC
7F0003FC
7F0001FC
7F0001FC
7F0001FC
7F0001FC
7F0001FC
7F0001FC
7F0001FC
7F0001FC
7F0001FC
7F0001FC
7F0001FC
7F0001FC
7F0001FC
7F0001FC
7F0001FC
7F0001FC
7F0001FC
7F8001FC
7F8003FC
7F8003FC
7FC003FC
7FC007F8
3FE00FF8
3FFE7FF0
1FFFFFF0
0FFFFFE0
07FFFFC0
03FFFF00
00FFFE00
001FF000
ENDCHAR
STARTCHAR uring
ENCODING 367
SWIDTH 587 0
DWIDTH 28 0
BBX 23 40 3 -1
BITMAP
00FC00
01FF00
03FF80
07EF80
0787C0
0F83C0
0F83C0
078780
07EF80
07FF00
03FE00
00FC00
000000
000000
000000
FE01FE
FE01FC
FE01FC
FE01FC
FE01FC
FE01FC
FE01FC
FE01FC
FE01FC
FE01FC
FE01FC
FE01FC
FE01FC
FE01FC
FE01FC
FE01FC
FE01FC
FF03FC
FF07FC
FFFFFC
FFFFFC
7FFDFC
7FF8FC
3FF0FE
0FC000
ENDCHAR
STARTCHAR Uhungarumlaut
ENCODING 368
SWIDTH 772 0
DWIDTH 37 0
BBX 31 47 3 -1
BITMAP
001FCFE0
003F8FE0
003F9FC0
003F1F80
003F1F80
007E3F00
007C3E00
007C3E00
00000000
00000000
00000000
01800006
FF8003FC
FF8003FC
7F8003FC
7F0003FC
7F0003FC
7F0001FC
7F0001FC
7F0001FC
7F0001FC
7F0001FC
7F0001FC
7F0001FC
7F0001FC
7F0001FC
7F0001FC
7F0001FC
7F0001FC
7F0001FC
7F0001FC
7F0001FC
7F0001FC
7F0001FC
7F8001FC
7F8003FC
7F8003FC
7FC003FC
7FC007F8
3FE00FF8
3FFE7FF0
1FFFFFF0
0FFFFFE0
07FFFFC0
03FFFF00
00FFFE00
001FF000
ENDCHAR
STARTCHAR uhungarumlaut
ENCODING 369
SWIDTH 587 0
DWIDTH 28 0
BBX 23 36 3 -1
BITMAP
03FCFE
03F9FC
03F1FC
03F1F8
07E3F0
07E3F0
07C3E0
0787C0
000000
000000
000000
FE01FE
FE01FC
FE01FC
FE01FC
FE01FC
FE01FC
FE01FC
FE01FC
FE01FC
FE01FC
FE01FC
FE01FC
FE01FC
FE01FC
FE01FC
FE01FC
FE01FC
FF03FC
FF07FC
FFFFFC
FFFFFC
7FFDFC
7FF8FC
3FF0FE
0FC000
ENDCHAR
STARTCHAR Uogonek
ENCODING 370
SWIDTH 772 0
DWIDTH 37 0
BBX 31 46 3 -11
BITMAP
01800006
FF8003FC
FF8003FC
7F8003FC
7F8003FC
7F8003FC
7F8003FC
7F8003FC
7F8001FC
7F8001FC
7F8001FC
7F8001FC
7F8001FC
7F8001FC
7F8001FC
7F8001FC
7F8001FC
7F8001FC
7F8001FC
7F8001FC
7F8001FC
7F8001FC
7F8001FC
7F8003FC
7F8003FC
7F8003FC
7FC003FC
7FC007F8
3FE00FF8
3FFFFFF0
1FFFFFF0
0FFFFFE0
07FFFFC0
03FFFF00
00FFFE00
001FF000
0003C000
000F8000
000F0000
001F0000
001F0000
001F0800
001FF800
001FF800
000FF800
0007E000
ENDCHAR
STARTCHAR uogonek
ENCODING 371
SWIDTH 587 0
DWIDTH 28 0
BBX 23 35 3 -11
BITMAP
FE01FE
FE01FC
FE01FC
FE01FC
FE01FC
FE01FC
FE01FC
FE01FC
FE01FC
FE01FC
FE01FC
FE01FC
FE01FC
FE01FC
FE01FC
FE01FC
FE01FC
FF03FC
FF07FC
FFFFFC
FFFFFC
7FFDFC
7FF8FC
3FF0FE
0FC0FC
0001F0
0003E0
0007C0
000F80
000F80
000FC0
000FFC
000FFC
0007FC
0001F8
ENDCHAR
STARTCHAR Wcircumflex
ENCODING 372
SWIDTH 1031 0
DWIDTH 49 0
BBX 49 46 0 -1
BITMAP
000007F8000000
000007FC000000
00000FFC000000
00001FFE000000
00001FFF000000
00003F1F000000
00007E0F800000
00007C07C00000
00000000000000
00000000000000
FF8001E0000000
7F8003F0007F80
7F8003F0007F80
7F8003F0007F00
3FC007F800FF00
3FC007F800FF00
3FC007F800FE00
1FE00FFC01FE00
1FE00FFC01FE00
1FE00FFC01FC00
0FE01FFE01FC00
0FF01FFE03FC00
0FF01FFE03F800
07F03FFF03F800
07F83F7F03F800
07F83F3F07F000
03F87F3F87F000
03F87E3F87F000
03FC7E1F8FE000
01FC7E1FCFE000
01FCFC1FCFE000
01FEFC0FCFC000
00FEFC0FFFC000
00FFF80FFF8000
00FFF807FF8000
007FF807FF8000
007FF007FF0000
007FF003FF0000
003FF003FF0000
003FE003FE0000
003FE001FE0000
001FE001FE0000
001FC001FC0000
001FC000FC0000
000FC000FC0000
000F8000F80000
ENDCHAR
STARTCHAR wcircumflex
ENCODING 373
SWIDTH 772 0
DWIDTH 37 0
BBX 37 36 0 -1
BITMAP
0001FC0000
0003FE0000
0003FF0000
0007FF0000
000FDF8000
000F8FC000
001F07E000
003E03E000
0000000000
0000000000
0000000000
FF00F80000
FF00FC03F8
7F00FC03F0
7F01FC07F0
3F81FE07F0
3F81FE07E0
3F83FE0FE0
1FC3FF0FE0
1FC3FF0FC0
1FC7FF1FC0
0FC7FF1F80
0FE7DF9F80
0FEFDF9F80
07EFDFBF00
07FF8FFF00
07FF8FFF00
03FF0FFE00
03FF07FE00
03FF07FC00
01FE07FC00
01FE03FC00
01FE03F800
00FC03F800
00FC01F800
00FC01F000
ENDCHAR
STARTCHAR Ycircumflex
ENCODING 374
SWIDTH 672 0
DWIDTH 32 0
BBX 32 46 0 0
BITMAP
0007F000
000FF000
001FF800
001FFC00
003FFC00
007E7E00
007C3F00
00F81F80
00000000
00000000
00000000
FF800000
7F8000FF
7FC001FF
3FC001FE
3FE003FC
1FE003FC
0FF007F8
0FF00FF0
07F80FF0
07FC1FE0
03FC1FC0
01FE3FC0
01FE7F80
00FF7F00
00FFFF00
007FFE00
003FFC00
003FFC00
001FF800
000FF800
000FF000
000FF000
000FF000
000FF000
000FF000
000FF000
000FF000
000FF000
000FF000
000FF000
000FF000
000FF000
000FF000
000FF000
000FF000
ENDCHAR
STARTCHAR ycircumflex
ENCODING 375
SWIDTH 515 0
DWIDTH 25 0
BBX 24 45 1 -10
BITMAP
00FE00
01FF00
01FF80
03FF80
07EFC0
07C7E0
0F83F0
1F01F0
000000
000000
000000
FE0003
FE00FE
FF00FE
FF00FC
7F01FC
7F81F8
3F81F8
3F83F8
1FC3F0
1FC3F0
0FC7E0
0FE7E0
0FEFE0
07EFC0
07FFC0
03FF80
03FF80
01FF80
01FF00
01FF00
00FE00
00FE00
00FE00
01FC00
01FC00
03F800
03F800
07F800
07F000
07F000
0FE000
0FE000
1FE000
180000
ENDCHAR
STARTCHAR Ydieresis
ENCODING 376
SWIDTH 672 0
DWIDTH 32 0
BBX 32 45 0 0
BITMAP
007C1F00
00FC3F00
00FE3F80
00FE3F80
00FE3F80
00FC3F00
00781E00
00000000
00000000
00000000
FF800000
7F8000FF
7FC001FF
3FC001FE
3FE003FC
1FE003FC
0FF007F8
0FF00FF0
07F80FF0
07FC1FE0
03FC1FC0
01FE3FC0
01FE7F80
00FF7F00
00FFFF00
007FFE00
003FFC00
003FFC00
001FF800
000FF800
000FF000
000FF000
000FF000
000FF000
000FF000
000FF000
000FF000
000FF000
000FF000
000FF000
000FF000
000FF000
000FF000
000FF000
000FF000
ENDCHAR
STARTCHAR Zacute
ENCODING 377
SWIDTH 657 0
DWIDTH 32 0
BBX 29 47 1 -1
BITMAP
000000C0
0000FF00
0000FE00
0001FC00
0001F800
0003F000
0007E000
0007C000
00000000
00000000
00000000
3FFFFFF8
3FFFFFF8
3FFFFFF8
3FFFFFF8
3FFFFFF0
3FFFFFF0
00003FE0
00003FC0
00007FC0
0000FF80
0001FF00
0001FF00
0003FE00
0007FC00
0007FC00
000FF800
001FF000
001FF000
003FE000
007FC000
007F8000
00FF8000
01FF0000
01FE0000
03FE0000
07FC0000
0FF80000
0FF80000
1FF00000
3FE00000
3FFFFFF0
7FFFFFF0
FFFFFFF0
FFFFFFF0
7FFFFFF0
7FFFFFF0
ENDCHAR
STARTCHAR zacute
ENCODING 378
SWIDTH 497 0
DWIDTH 24 0
BBX 22 36 1 -1
BITMAP
000FF8
000FF0
001FE0
001FC0
003F80
003F00
007E00
00FC00
000000
000000
000000
7FFFF8
7FFFF8
7FFFFC
7FFFF8
7FFFF8
7FFFF0
001FE0
001FC0
003FC0
007F80
00FF00
00FF00
01FE00
03FC00
03F800
07F800
0FF000
1FE000
1FC000
3FFFF8
7FFFF8
FFFFF8
FFFFF8
FFFFF8
7FFFF8
ENDCHAR
STARTCHAR Zdotaccent
ENCODING 379
SWIDTH 657 0
DWIDTH 32 0
BBX 29 47 1 -1
BITMAP
00038000
0007E000
000FE000
000FF000
000FF000
000FE000
0007E000
00010000
00000000
00000000
00000000
3FFFFFF8
3FFFFFF8
3FFFFFF8
3FFFFFF8
3FFFFFF0
3FFFFFF0
00003FE0
00003FC0
00007FC0
0000FF80
0001FF00
0001FF00
0003FE00
0007FC00
0007FC00
000FF800
001FF000
001FF000
003FE000
007FC000
007F8000
00FF8000
01FF0000
01FE0000
03FE0000
07FC0000
0FF80000
0FF80000
1FF00000
3FE00000
3FFFFFF0
7FFFFFF0
FFFFFFF0
FFFFFFF0
7FFFFFF0
7FFFFFF0
ENDCHAR
STARTCHAR zdotaccent
ENCODING 380
SWIDTH 497 0
DWIDTH 24 0
BBX 22 36 1 -1
BITMAP
003C00
00FE00
00FE00
00FE00
00FE00
00FE00
007C00
000000
000000
000000
000000
7FFFF8
7FFFF8
7FFFFC
7FFFF8
7FFFF8
7FFFF0
001FE0
001FC0
003FC0
007F80
00FF00
00FF00
01FE00
03FC00
03F800
07F800
0FF000
1FE000
1FC000
3FFFF8
7FFFF8
FFFFF8
FFFFF8
FFFFF8
7FFFF8
ENDCHAR
STARTCHAR Zcaron
ENCODING 381
SWIDTH 657 0
DWIDTH 32 0
BBX 29 47 1 -1
BITMAP
01F01F00
00F83F00
007C7E00
007EFC00
003FFC00
001FF800
001FF000
000FE000
00000000
00000000
00000000
3FFFFFF8
3FFFFFF8
3FFFFFF8
3FFFFFF8
3FFFFFF0
3FFFFFF0
00003FE0
00003FC0
00007FC0
0000FF80
0001FF00
0001FF00
0003FE00
0007FC00
0007FC00
000FF800
001FF000
001FF000
003FE000
007FC000
007F8000
00FF8000
01FF0000
01FE0000
03FE0000
07FC0000
0FF80000
0FF80000
1FF00000
3FE00000
3FFFFFF0
7FFFFFF0
FFFFFFF0
FFFFFFF0
7FFFFFF0
7FFFFFF0
ENDCHAR
STARTCHAR zcaron
ENCODING 382
SWIDTH 497 0
DWIDTH 24 0
BBX 22 36 1 -1
BITMAP
1F01F0
0F83E0
0FC7E0
07EFC0
03FF80
01FF00
01FF00
00FE00
000000
000000
000000
7FFFF8
7FFFF8
7FFFFC
7FFFF8
7FFFF8
7FFFF0
001FE0
001FC0
003FC0
007F80
00FF00
00FF00
01FE00
03FC00
03F800
07F800
0FF000
1FE000
1FC000
3FFFF8
7FFFF8
FFFFF8
FFFFF8
FFFFF8
7FFFF8
ENDCHAR
STARTCHAR florin
ENCODING 402
SWIDTH 505 0
DWIDTH 24 0
BBX 21 35 2 -1
BITMAP
000080
001FF8
003FF8
007FF0
00FFF0
01FFF0
01FE00
01FC00
03F800
03F800
03F800
03F800
3FFFE0
3FFFC0
7FFFC0
7FFFC0
FFFFC0
07F000
07F000
07F000
07E000
0FE000
0FE000
0FE000
0FE000
0FE000
0FE000
0FE000
0FC000
1FC000
1FC000
1FC000
1FC000
1FC000
1FC000
ENDCHAR
STARTCHAR Aringacute
ENCODING 506
SWIDTH 743 0
DWIDTH 36 0
BBX 35 55 0 -1
BITMAP
00003FE000
00007F8000
00007F0000
0000FE0000
0000FC0000
0001F80000
0001F00000
0003C00000
0000000000
0000000000
0001F80000
0007FC0000
000FFE0000
000FBF0000
001E0F0000
001E0F0000
001E0F0000
001E0F0000
001FBF0000
000FFE0000
0007FC0000
0003F80000
0003F80000
0007FC0000
0007FC0000
0007FE0000
000FFE0000
000FFF0000
001FFF0000
001FFF8000
003FBF8000
003FBF8000
003F3FC000
007F1FC000
007F1FE000
00FE0FE000
00FE0FF000
01FC07F000
01FC07F800
03FC07F800
03F803F800
03FFFFFC00
07FFFFFC00
07FFFFFE00
0FFFFFFE00
0FFFFFFF00
1FE000FF00
1FE000FF80
1FC0007F80
3FC0007F80
3FC0003FC0
7F80003FC0
7F80003FE0
FF00001FE0
0000001E00
ENDCHAR
STARTCHAR aringacute
ENCODING 507
SWIDTH 522 0
DWIDTH 25 0
BBX 23 50 1 -1
BITMAP
0003F8
001FF0
001FE0
003FC0
003F80
007F00
007C00
00F800
000000
000000
000000
00FE00
01FF80
03FF80
07C7C0
0783C0
0783C0
0783C0
07C7C0
03FF80
03FF00
00FE00
000000
000000
000000
01FE00
0FFF80
3FFFE0
3FFFE0
3FFFF0
3FFFF0
1C07F8
1007F8
0003F8
0003F8
0003F8
03FFF8
0FFFF8
3FFFF8
7F83F8
7F03F8
FE03F8
FE07F8
FE07F8
FE0FF8
FFFFFE
7FFFFE
7FF9FE
3FF1FE
0FC07C
ENDCHAR
STARTCHAR AEacute
ENCODING 508
SWIDTH 932 0
DWIDTH 45 0
BBX 44 47 -1 -1
BITMAP
00000007E000
0000003FC000
0000007F8000
0000007F0000
000000FE0000
000000FC0000
000001F80000
000001F00000
000000000000
000000000000
000000000000
00000FFFFFE0
00001FFFFFE0
00001FFFFFE0
00003FFFFFE0
00003FFFFFE0
00007FFFFFE0
00007FFC0000
0000FFFC0000
0001FFFC0000
0001FFFC0000
0003FFFC0000
0003FBFC0000
0007F3FC0000
000FF3FC0000
000FE3FFFF80
001FE3FFFF80
001FC3FFFF80
003FC3FFFF80
003F83FFFF80
007F83FFFF80
00FF03FC0000
00FF03FC0000
01FE03FC0000
01FFFFFC0000
03FFFFFC0000
07FFFFFC0000
07FFFFFC0000
0FFFFFFC0000
0FF003FC0000
1FF003FC0000
1FE003FFFFF0
3FC003FFFFF0
7FC003FFFFF0
7F8003FFFFF0
FF8003FFFFF0
000003FFFFF0
ENDCHAR
STARTCHAR aeacute
ENCODING 509
SWIDTH 801 0
DWIDTH 38 0
BBX 36 36 1 -1
BITMAP
00001FE000
00003FC000
00003F8000
00007F0000
00007E0000
0000FC0000
0001F80000
0001F00000
0000000000
0000000000
0000000000
01FC01F800
0FFF0FFF00
3FFF9FFF80
3FFFFFFFC0
3FFFFFFFC0
3FFFFF1FE0
1C07FC07E0
1007FC07F0
0003F807F0
0003F803F0
0003FFFFF0
03FFFFFFF0
0FFFFFFFE0
3FFFFFF000
7F83F80000
7F03F80000
FE03F80000
FE07FC0020
FE07FE00E0
FF0FFFDFE0
7FFFFFFFE0
7FFF7FFFE0
3FFE3FFFE0
1FFC1FFF80
07F003FC00
ENDCHAR
STARTCHAR Oslashacute
ENCODING 510
SWIDTH 793 0
DWIDTH 38 0
BBX 34 47 2 -2
BITMAP
00003FC000
00007F8000
0000FF0000
0000FE0000
0001FC0000
0001F80000
0003F00000
0003C00000
0000000000
0000000200
0007FC0780
003FFF8FC0
00FFFFFF80
01FFFFFF00
03FFFFFE00
07FFFFFC00
0FFE1FFE00
1FF803FF00
1FE003FF00
3FC007FF80
3FC007FF80
7F800FFF80
7F801F3FC0
7F003F3FC0
FF007E3FC0
FF00FC3FC0
FF00F83FC0
FF01F03FC0
FF03E03FC0
FF07E03FC0
FF0FC03FC0
FF0F803FC0
FF1F003F80
FF3E007F80
7FFC007F80
7FFC00FF80
7FF800FF00
3FF001FF00
1FF003FE00
1FFE1FFC00
0FFFFFF800
1FFFFFF000
3FFFFFE000
7FFFFFC000
FC7FFF0000
780FF80000
1000000000
ENDCHAR
STARTCHAR oslashacute
ENCODING 511
SWIDTH 560 0
DWIDTH 27 0
BBX 25 37 1 -2
BITMAP
0007FC00
000FF000
000FE000
001FC000
001F8000
003F0000
003E0000
007C0000
00000000
00000000
00000400
007F0E00
01FFFF80
07FFFF00
0FFFFE00
1FFFFC00
3FE3FE00
3F81FE00
7F03FF00
7F03FF00
7F07FF00
7E0F7F00
7E1F7F00
FE3E3F00
FE7C3F00
7EF87F00
7FF07F00
7FE07F00
7FC0FE00
3FC0FE00
3FE3FC00
1FFFFC00
3FFFF800
7FFFF000
FFFFC000
78FF0000
10000000
ENDCHAR
STARTCHAR Scommaaccent
ENCODING 536
SWIDTH 551 0
DWIDTH 26 0
BBX 23 48 2 -13
BITMAP
00FF00
03FFF0
0FFFFC
1FFFF8
1FFFF8
3FFFF8
3FE1F0
7F8030
7F8000
7F0000
7F0000
7F8000
7FC000
3FE000
3FF800
1FFE00
0FFF80
07FFC0
03FFE0
00FFF0
003FF8
001FFC
0007FC
0003FC
0001FC
0001FE
8001FC
E001FC
F803FC
FF07FC
FFFFF8
FFFFF8
FFFFF0
7FFFE0
1FFF80
03FE00
000000
000000
007C00
00FC00
00FE00
00FE00
007E00
003C00
007C00
007800
00E000
00C000
ENDCHAR
STARTCHAR scommaaccent
ENCODING 537
SWIDTH 447 0
DWIDTH 21 0
BBX 18 37 2 -13
BITMAP
03FC00
0FFF80
3FFF80
7FFF80
7FFF00
FF0700
FE0100
FE0000
FF0000
FFC000
7FF800
3FFE00
1FFF00
0FFF80
03FFC0
007FC0
001FC0
001FC0
C01FC0
F83FC0
FFFF80
FFFF80
FFFF00
7FFE00
0FF000
000000
008000
03E000
07F000
07F000
03F000
01F000
01E000
01E000
03C000
0F0000
060000
ENDCHAR
STARTCHAR Tcommaaccent.dup1
ENCODING 538
SWIDTH 662 0
DWIDTH 32 0
BBX 30 48 1 -13
BITMAP
FFFFFFFC
FFFFFFF8
FFFFFFF8
FFFFFFF8
FFFFFFF8
FFFFFFF8
FFFFFFF8
001FE000
001FE000
001FE000
001FE000
001FE000
001FE000
001FE000
001FE000
001FE000
001FE000
001FE000
001FE000
001FE000
001FE000
001FE000
001FE000
001FE000
001FE000
001FE000
001FE000
001FE000
001FE000
001FE000
001FE000
001FE000
001FE000
001FE000
001FE000
00000000
00000000
00070000
000F8000
001FC000
001FC000
000FC000
0007C000
00078000
000F0000
000E0000
003C0000
00180000
ENDCHAR
STARTCHAR tcommaaccent.dup2
ENCODING 539
SWIDTH 389 0
DWIDTH 19 0
BBX 17 43 1 -13
BITMAP
006000
03E000
0FE000
0FE000
0FE000
0FE000
0FE000
FFFF80
FFFF00
FFFF00
FFFF00
FFFF00
1FE000
1FE000
1FE000
1FE000
1FE000
1FE000
1FE000
1FE000
1FE000
1FE000
1FE000
1FE000
1FE080
1FFF00
0FFF00
0FFF00
07FF00
03FF00
01FC00
000000
000000
00F800
01FC00
01FC00
00FC00
007C00
007800
00F000
00F000
03C000
018000
ENDCHAR
STARTCHAR schwa
ENCODING 601
SWIDTH 529 0
DWIDTH 25 0
BBX 23 25 1 -1
BITMAP
03FE00
0FFF80
3FFFE0
7FFFF0
7FFFF8
7FFFF8
7803FC
6001FC
0001FC
0000FE
0000FE
00FFFE
3FFFFE
FFFFFE
FFFFFE
FE00FE
7E01FC
7E01FC
7F03F8
7F87F8
3FFFF0
1FFFE0
0FFFC0
07FF80
01FC00
ENDCHAR
STARTCHAR circumflex
ENCODING 710
SWIDTH 418 0
DWIDTH 20 0
BBX 18 8 1 27
BITMAP
07F800
07F800
0FFC00
1FFE00
1FFF00
3F3F00
7E0F80
F807C0
ENDCHAR
STARTCHAR caron
ENCODING 711
SWIDTH 418 0
DWIDTH 20 0
BBX 17 8 1 27
BITMAP
F80F80
7E1F80
3F3F00
1FFE00
1FFE00
0FFC00
07F800
07F800
ENDCHAR
STARTCHAR breve
ENCODING 728
SWIDTH 406 0
DWIDTH 19 0
BBX 16 8 2 27
BITMAP
F81F
F81F
F83F
FC3E
7FFE
7FFC
3FF8
0FF0
ENDCHAR
STARTCHAR dotaccent
ENCODING 729
SWIDTH 270 0
DWIDTH 13 0
BBX 7 7 3 28
BITMAP
78
FE
FE
FE
FE
FE
7C
ENDCHAR
STARTCHAR ring
ENCODING 730
SWIDTH 304 0
DWIDTH 15 0
BBX 13 12 1 26
BITMAP
0FC0
3FE0
7FF0
7DF8
F078
F078
F078
F078
FDF8
7FF0
3FE0
0F80
ENDCHAR
STARTCHAR ogonek
ENCODING 731
SWIDTH 295 0
DWIDTH 14 0
BBX 10 13 2 -11
BITMAP
00C0
03C0
0F80
1E00
3C00
7C00
F800
F800
FC40
FFC0
FFC0
7FC0
1F80
ENDCHAR
STARTCHAR tilde
ENCODING 732
SWIDTH 444 0
DWIDTH 21 0
BBX 19 8 1 27
BITMAP
1F0180
3FC1E0
7FF3E0
7FFFE0
7FFFC0
F9FFC0
F87F80
F01F00
ENDCHAR
STARTCHAR hungarumlaut
ENCODING 733
SWIDTH 486 0
DWIDTH 23 0
BBX 18 8 3 27
BITMAP
3F9FC0
7F1FC0
7F3F80
7E3F00
7E3F00
7C7E00
F87C00
F87C00
ENDCHAR
STARTCHAR commaaccent
ENCODING 806
SWIDTH 228 0
DWIDTH 11 0
BBX 8 11 2 -13
BITMAP
18
7E
7E
FF
3F
1E
1E
3C
78
F0
40
ENDCHAR
STARTCHAR Wgrave
ENCODING 7808
SWIDTH 1031 0
DWIDTH 49 0
BBX 49 46 0 -1
BITMAP
0000FF80000000
00007F80000000
00003FC0000000
00001FC0000000
00000FE0000000
000007E0000000
000003F0000000
000001E0000000
00000000000000
00000000000000
FF8001E0000000
7F8003F0007F80
7F8003F0007F80
7F8003F0007F00
3FC007F800FF00
3FC007F800FF00
3FC007F800FE00
1FE00FFC01FE00
1FE00FFC01FE00
1FE00FFC01FC00
0FE01FFE01FC00
0FF01FFE03FC00
0FF01FFE03F800
07F03FFF03F800
07F83F7F03F800
07F83F3F07F000
03F87F3F87F000
03F87E3F87F000
03FC7E1F8FE000
01FC7E1FCFE000
01FCFC1FCFE000
01FEFC0FCFC000
00FEFC0FFFC000
00FFF80FFF8000
00FFF807FF8000
007FF807FF8000
007FF007FF0000
007FF003FF0000
003FF003FF0000
003FE003FE0000
003FE001FE0000
001FE001FE0000
001FC001FC0000
001FC000FC0000
000FC000FC0000
000F8000F80000
ENDCHAR
STARTCHAR wgrave
ENCODING 7809
SWIDTH 772 0
DWIDTH 37 0
BBX 37 36 0 -1
BITMAP
007FC00000
003FE00000
001FE00000
000FF00000
0007F00000
0003F80000
0001F80000
0000FC0000
0000000000
0000000000
0000000000
FF00F80000
FF00FC03F8
7F00FC03F0
7F01FC07F0
3F81FE07F0
3F81FE07E0
3F83FE0FE0
1FC3FF0FE0
1FC3FF0FC0
1FC7FF1FC0
0FC7FF1F80
0FE7DF9F80
0FEFDF9F80
07EFDFBF00
07FF8FFF00
07FF8FFF00
03FF0FFE00
03FF07FE00
03FF07FC00
01FE07FC00
01FE03FC00
01FE03F800
00FC03F800
00FC01F800
00FC01F000
ENDCHAR
STARTCHAR Wacute
ENCODING 7810
SWIDTH 1031 0
DWIDTH 49 0
BBX 49 46 0 -1
BITMAP
0000003FC00000
0000007F800000
000000FF000000
000000FE000000
000001FC000000
000001F8000000
000003F0000000
000003C0000000
00000000000000
00000000000000
FF8001E0000000
7F8003F0007F80
7F8003F0007F80
7F8003F0007F00
3FC007F800FF00
3FC007F800FF00
3FC007F800FE00
1FE00FFC01FE00
1FE00FFC01FE00
1FE00FFC01FC00
0FE01FFE01FC00
0FF01FFE03FC00
0FF01FFE03F800
07F03FFF03F800
07F83F7F03F800
07F83F3F07F000
03F87F3F87F000
03F87E3F87F000
03FC7E1F8FE000
01FC7E1FCFE000
01FCFC1FCFE000
01FEFC0FCFC000
00FEFC0FFFC000
00FFF80FFF8000
00FFF807FF8000
007FF807FF8000
007FF007FF0000
007FF003FF0000
003FF003FF0000
003FE003FE0000
003FE001FE0000
001FE001FE0000
001FC001FC0000
001FC000FC0000
000FC000FC0000
000F8000F80000
ENDCHAR
STARTCHAR wacute
ENCODING 7811
SWIDTH 772 0
DWIDTH 37 0
BBX 37 36 0 -1
BITMAP
00001FF000
00001FE000
00003FC000
00003F8000
00007F0000
00007E0000
0000FC0000
0000F80000
0000000000
0000000000
0000000000
FF00F80000
FF00FC03F8
7F00FC03F0
7F01FC07F0
3F81FE07F0
3F81FE07E0
3F83FE0FE0
1FC3FF0FE0
1FC3FF0FC0
1FC7FF1FC0
0FC7FF1F80
0FE7DF9F80
0FEFDF9F80
07EFDFBF00
07FF8FFF00
07FF8FFF00
03FF0FFE00
03FF07FE00
03FF07FC00
01FE07FC00
01FE03FC00
01FE03F800
00FC03F800
00FC01F800
00FC01F000
ENDCHAR
STARTCHAR Wdieresis
ENCODING 7812
SWIDTH 1031 0
DWIDTH 49 0
BBX 49 46 0 -1
BITMAP
00003C0F000000
00007E1F800000
00007F3FC00000
0000FF3FC00000
00007F1FC00000
00007E1F800000
00003C0F000000
00000000000000
00000000000000
00000000000000
FF8001E0000000
7F8003F0007F80
7F8003F0007F80
7F8003F0007F00
3FC007F800FF00
3FC007F800FF00
3FC007F800FE00
1FE00FFC01FE00
1FE00FFC01FE00
1FE00FFC01FC00
0FE01FFE01FC00
0FF01FFE03FC00
0FF01FFE03F800
07F03FFF03F800
07F83F7F03F800
07F83F3F07F000
03F87F3F87F000
03F87E3F87F000
03FC7E1F8FE000
01FC7E1FCFE000
01FCFC1FCFE000
01FEFC0FCFC000
00FEFC0FFFC000
00FFF80FFF8000
00FFF807FF8000
007FF807FF8000
007FF007FF0000
007FF003FF0000
003FF003FF0000
003FE003FE0000
003FE001FE0000
001FE001FE0000
001FC001FC0000
001FC000FC0000
000FC000FC0000
000F8000F80000
ENDCHAR
STARTCHAR wdieresis
ENCODING 7813
SWIDTH 772 0
DWIDTH 37 0
BBX 37 36 0 -1
BITMAP
000F03C000
001F87E000
003F8FE000
003F8FE000
003F8FE000
003F8FE000
001F07C000
0000000000
0000000000
0000000000
0000000000
FF00F80000
FF00FC03F8
7F00FC03F0
7F01FC07F0
3F81FE07F0
3F81FE07E0
3F83FE0FE0
1FC3FF0FE0
1FC3FF0FC0
1FC7FF1FC0
0FC7FF1F80
0FE7DF9F80
0FEFDF9F80
07EFDFBF00
07FF8FFF00
07FF8FFF00
03FF0FFE00
03FF07FE00
03FF07FC00
01FE07FC00
01FE03FC00
01FE03F800
00FC03F800
00FC01F800
00FC01F000
ENDCHAR
STARTCHAR Ygrave
ENCODING 7922
SWIDTH 672 0
DWIDTH 32 0
BBX 32 46 0 0
BITMAP
007E0000
01FF0000
007F8000
003F8000
001FC000
000FC000
0007E000
0003E000
00000000
00000000
00000000
FF800000
7F8000FF
7FC001FF
3FC001FE
3FE003FC
1FE003FC
0FF007F8
0FF00FF0
07F80FF0
07FC1FE0
03FC1FC0
01FE3FC0
01FE7F80
00FF7F00
00FFFF00
007FFE00
003FFC00
003FFC00
001FF800
000FF800
000FF000
000FF000
000FF000
000FF000
000FF000
000FF000
000FF000
000FF000
000FF000
000FF000
000FF000
000FF000
000FF000
000FF000
000FF000
ENDCHAR
STARTCHAR ygrave
ENCODING 7923
SWIDTH 515 0
DWIDTH 25 0
BBX 24 45 1 -10
BITMAP
3FE000
1FF000
0FF000
07F800
03F800
01FC00
00FC00
007E00
000000
000000
000000
FE0003
FE00FE
FF00FE
FF00FC
7F01FC
7F81F8
3F81F8
3F83F8
1FC3F0
1FC3F0
0FC7E0
0FE7E0
0FEFE0
07EFC0
07FFC0
03FF80
03FF80
01FF80
01FF00
01FF00
00FE00
00FE00
00FE00
01FC00
01FC00
03F800
03F800
07F800
07F000
07F000
0FE000
0FE000
1FE000
180000
ENDCHAR
STARTCHAR enspace
ENCODING 8194
SWIDTH 500 0
DWIDTH 24 0
BBX 1 1 0 0
BITMAP
00
ENDCHAR
STARTCHAR emspace
ENCODING 8195
SWIDTH 1000 0
DWIDTH 48 0
BBX 1 1 0 0
BITMAP
00
ENDCHAR
STARTCHAR threeperemspace
ENCODING 8196
SWIDTH 333 0
DWIDTH 16 0
BBX 1 1 0 0
BITMAP
00
ENDCHAR
STARTCHAR fourperemspace
ENCODING 8197
SWIDTH 250 0
DWIDTH 12 0
BBX 1 1 0 0
BITMAP
00
ENDCHAR
STARTCHAR thinspace
ENCODING 8201
SWIDTH 133 0
DWIDTH 6 0
BBX 1 1 0 0
BITMAP
00
ENDCHAR
STARTCHAR hairspace
ENCODING 8202
SWIDTH 75 0
DWIDTH 4 0
BBX 1 1 0 0
BITMAP
00
ENDCHAR
STARTCHAR endash
ENCODING 8211
SWIDTH 511 0
DWIDTH 25 0
BBX 19 5 3 11
BITMAP
FFFFE0
FFFFE0
FFFFE0
FFFFE0
FFFFE0
ENDCHAR
STARTCHAR emdash
ENCODING 8212
SWIDTH 1004 0
DWIDTH 48 0
BBX 43 5 3 11
BITMAP
FFFFFFFFFFE0
FFFFFFFFFFC0
FFFFFFFFFFC0
FFFFFFFFFFC0
FFFFFFFFFFC0
ENDCHAR
STARTCHAR quoteleft
ENCODING 8216
SWIDTH 260 0
DWIDTH 12 0
BBX 10 17 1 18
BITMAP
0180
03C0
07C0
0F80
1F00
3E00
3C00
7C00
7C00
FC00
FE00
FF00
FF80
FF80
7F80
7F00
1E00
ENDCHAR
STARTCHAR quoteright
ENCODING 8217
SWIDTH 260 0
DWIDTH 12 0
BBX 10 17 1 18
BITMAP
0F00
3F80
3FC0
7FC0
7FC0
3FC0
0FC0
0FC0
07C0
0780
0F80
0F00
1E00
3E00
7800
F000
6000
ENDCHAR
STARTCHAR quotesinglbase
ENCODING 8218
SWIDTH 259 0
DWIDTH 12 0
BBX 10 17 1 -10
BITMAP
1F00
3F80
7FC0
7FC0
7FC0
1FC0
0FC0
0FC0
0780
0F80
0F00
1F00
3E00
7C00
F800
F000
4000
ENDCHAR
STARTCHAR quotedblleft
ENCODING 8220
SWIDTH 503 0
DWIDTH 24 0
BBX 22 17 1 18
BITMAP
018018
03C03C
07C07C
0F80F0
1F01E0
3E03C0
3C07C0
7C0780
7C0F80
FC0FC0
FE0FC0
FF0FF0
FF8FF8
FF8FF8
7F8FF0
7F07F0
1E03C0
ENDCHAR
STARTCHAR quotedblright
ENCODING 8221
SWIDTH 503 0
DWIDTH 24 0
BBX 22 17 1 18
BITMAP
0F01E0
3F83F8
3FC7F8
7FC7FC
7FC7FC
3FC3FC
0FC1FC
0FC0FC
07C0F8
0780F8
0F80F8
0F01F0
1E01E0
3E07C0
780F80
F00F00
600600
ENDCHAR
STARTCHAR quotedblbase
ENCODING 8222
SWIDTH 502 0
DWIDTH 24 0
BBX 22 17 1 -10
BITMAP
1F01F0
3F83F8
7FC7F8
7FC7FC
7FC7FC
1FC3FC
0FC1FC
0FC0F8
0780F8
0F80F8
0F00F0
1F01E0
3E03E0
7C07C0
F81F00
F00E00
400400
ENDCHAR
STARTCHAR dagger
ENCODING 8224
SWIDTH 535 0
DWIDTH 26 0
BBX 24 37 1 -1
BITMAP
00FE00
007E00
007E00
007E00
007E00
007E00
007E00
007E00
007E00
007E00
FFFFFF
FFFFFF
FFFFFF
FFFFFE
FFFFFE
F07E0E
007E00
007E00
007E00
007E00
007E00
007E00
007E00
007E00
007E00
007E00
007E00
007E00
007E00
007E00
007E00
007E00
007E00
007E00
007E00
007E00
00FE00
ENDCHAR
STARTCHAR daggerdbl
ENCODING 8225
SWIDTH 535 0
DWIDTH 26 0
BBX 24 37 1 -1
BITMAP
000600
007E00
007E00
007E00
007E00
007E00
007E00
007E00
007E00
007E01
FFFFFF
FFFFFE
FFFFFE
FFFFFE
FFFFFE
007E00
007E00
007E00
007E00
007E00
007E00
007E00
007E00
FFFFFF
FFFFFE
FFFFFE
FFFFFE
FFFFFE
007E00
007E00
007E00
007E00
007E00
007E00
007E00
007E00
00FE00
ENDCHAR
STARTCHAR bullet
ENCODING 8226
SWIDTH 455 0
DWIDTH 22 0
BBX 16 16 3 9
BITMAP
07E0
1FF8
3FFC
7FFC
7FFE
FFFE
FFFF
FFFF
FFFF
FFFF
7FFE
7FFE
3FFC
3FFC
0FF0
03C0
ENDCHAR
STARTCHAR ellipsis
ENCODING 8230
SWIDTH 822 0
DWIDTH 39 0
BBX 35 8 2 -1
BITMAP
3E01F00780
7F03F80FC0
7F03FC1FE0
FF83FC1FE0
FF83FC1FE0
7F03FC1FE0
7F03F80FC0
3C00F00780
ENDCHAR
STARTCHAR guilsinglleft
ENCODING 8249
SWIDTH 399 0
DWIDTH 19 0
BBX 15 24 2 -1
BITMAP
007E
007C
00FC
01F8
03F0
07F0
07E0
0FC0
1FC0
3F80
7F00
FF00
FF00
7F00
3F80
1FC0
1FC0
0FE0
07F0
03F0
01F8
00FC
007E
0070
ENDCHAR
STARTCHAR guilsinglright
ENCODING 8250
SWIDTH 399 0
DWIDTH 19 0
BBX 15 24 2 -1
BITMAP
1C00
7E00
7E00
3F00
1F80
1FC0
0FE0
07F0
07F0
03F8
01FC
01FE
00FE
01FC
03F8
03F0
07E0
0FE0
0FC0
1F80
3F00
7E00
7E00
FC00
ENDCHAR
STARTCHAR fraction
ENCODING 8260
SWIDTH 186 0
DWIDTH 9 0
BBX 25 35 -8 0
BITMAP
00000600
00000780
00000F00
00000F00
00001E00
00003C00
00003C00
00007800
0000F000
0000F000
0001E000
0001C000
0003C000
00078000
00078000
000F0000
001E0000
001E0000
003C0000
00780000
00780000
00F00000
01E00000
01E00000
03C00000
07800000
07800000
0F000000
1E000000
1E000000
3C000000
7C000000
78000000
F0000000
70000000
ENDCHAR
STARTCHAR Euro
ENCODING 8364
SWIDTH 663 0
DWIDTH 32 0
BBX 29 33 1 -1
BITMAP
0000FF00
0007FFE0
001FFFF8
003FFFF8
007FFFF8
00FFFFF0
01FF8070
01FE0010
03FC0000
03F80000
FFF00000
FFFFFF80
FFFFFF80
FFFFFF80
FFFFFF80
0FE00000
0FE00000
0FE00000
FFFFFF00
FFFFFF00
FFFFFF00
FFFFFF00
FFF00000
07F80000
03FC0000
03FE0018
01FF8078
00FFFFF8
007FFFF8
003FFFF8
001FFFF8
0007FFE0
0000FF00
ENDCHAR
STARTCHAR published
ENCODING 8471
SWIDTH 863 0
DWIDTH 41 0
BBX 36 36 3 -1
BITMAP
0003FC0000
001FFF8000
007FFFE000
01FC03F000
03E000F800
07C0003E00
0F00001E00
1E00000F00
3C00000780
3C0FFC0380
780FFF01C0
700FFF81C0
700FFFC1E0
F00F8FC0E0
E00F87C0E0
E00F87C0E0
E00F87C0F0
E00F8FC0F0
E00FFF80F0
E00FFF00F0
E00FFC00E0
E00FC000E0
F00F8000E0
700F8001E0
700F8001C0
780F8001C0
380F8003C0
3C00000780
1E00000F00
0F00001F00
0780003E00
03E000FC00
01FC03F000
007FFFE000
001FFF8000
0003FC0000
ENDCHAR
STARTCHAR servicemark
ENCODING 8480
SWIDTH 861 0
DWIDTH 41 0
BBX 36 19 3 16
BITMAP
1F80000000
3FE0F003C0
7FE0F807C0
FFE0F807C0
F860FC0FC0
F800FC0FC0
F800FE1FC0
FE00FE1FE0
7F81FF3FE0
3FC1FF3FE0
1FE1FFFFE0
07F1F7FBE0
01F1E7F9E0
01F1E7F1E0
E1F1E3F1F0
FFE3E3E1F0
FFE3E1E1F0
FFC3E1E1F0
1E0000C100
ENDCHAR
STARTCHAR trademark
ENCODING 8482
SWIDTH 906 0
DWIDTH 43 0
BBX 39 18 2 16
BITMAP
FFFF0E0078
FFFF1F0078
FFFF1F00F8
FFFF1F80F8
07E01F81F8
07E01FC1F8
07E01FC3FC
07E01FE3FC
07E01FF7FC
07E03FF7BC
07E03EFF3C
07E03EFF3C
07E03C7F3E
07E03C7E3E
07E03C3E3E
07E07C3C3E
07E07C1C3E
0000001000
ENDCHAR
STARTCHAR minus
ENCODING 8722
SWIDTH 565 0
DWIDTH 27 0
BBX 19 5 4 11
BITMAP
FFFFE0
FFFFE0
FFFFE0
FFFFE0
FFFFE0
ENDCHAR
STARTCHAR box.1
ENCODING 57344
SWIDTH 801 0
DWIDTH 38 0
BBX 31 32 4 0
BITMAP
FFFFFFFC
FFFFFFFE
FFFFFFFE
FFFFFFFE
FFFFFFFE
FFFFFFFE
FFFFFFFE
FFFFFFFE
FFFFFFFE
FFFFFFFE
FFFFFFFE
FFFFFFFE
FFFFFFFE
FFFFFFFE
FFFFFFFE
FFFFFFFE
FFFFFFFE
FFFFFFFE
FFFFFFFE
FFFFFFFE
FFFFFFFE
FFFFFFFE
FFFFFFFE
FFFFFFFE
FFFFFFFE
FFFFFFFE
FFFFFFFE
FFFFFFFE
FFFFFFFE
FFFFFFFE
FFFFFFFE
FFFFFFFE
ENDCHAR
STARTCHAR box.2
ENCODING 57345
SWIDTH 801 0
DWIDTH 38 0
BBX 31 32 4 0
BITMAP
FFFFFFFE
FFFFFFFE
FFFFFFFE
FFFFFFFE
FFFFFFFE
FFFFFFFE
FC0000FE
FC0000FE
FC0000FE
FC0000FE
FC0000FE
FC0000FE
FC0000FE
FC0000FE
FC0000FE
FC0000FE
FC0000FE
FC0000FE
FC0000FE
FC0000FE
FC0000FE
FC0000FE
FC0000FE
FC0000FE
FC0000FE
FC0000FE
FFFFFFFE
FFFFFFFE
FFFFFFFE
FFFFFFFE
FFFFFFFE
FFFFFFFE
ENDCHAR
STARTCHAR arrow.1_W
ENCODING 57373
SWIDTH 787 0
DWIDTH 38 0
BBX 34 26 1 -1
BITMAP
0006000000
000F000000
001F800000
003F800000
007F000000
00FE000000
01FC000000
03F8000000
07E0000000
1FC0000000
3FFFFFFFC0
7FFFFFFFC0
FFFFFFFFC0
7FFFFFFFC0
3FFFFFFFC0
1FC0000000
0FE0000000
07F0000000
03FC000000
01FE000000
00FF000000
003F800000
001F800000
000F000000
0007000000
0002000000
ENDCHAR
STARTCHAR arrow.1_E
ENCODING 57375
SWIDTH 787 0
DWIDTH 38 0
BBX 35 26 2 -1
BITMAP
0000080000
00001C0000
00003F0000
00007F8000
00003FC000
00000FE000
000007F000
000003F800
000001FC00
0000007F00
7FFFFFFF80
7FFFFFFFC0
7FFFFFFFE0
7FFFFFFFC0
FFFFFFFF80
0000007F00
000000FE00
000003FC00
000007F000
00000FE000
00001FC000
00003F8000
00007F0000
00003E0000
00001C0000
0000080000
ENDCHAR
STARTCHAR f_f
ENCODING 64256
SWIDTH 729 0
DWIDTH 35 0
BBX 34 35 1 0
BITMAP
007F003FC0
01FF007FC0
03FF00FFC0
07FF01FFC0
07FF83FFC0
0FFF83FFC0
0FF007FC00
0FE007F800
0FE007F000
0FE007F000
1FE007F000
1FE007F000
7FFF3FFFC0
FFFF3FFFC0
FFFF3FFFC0
FFFF7FFFC0
FFFF7FFFC0
1FE007F000
1FE007F000
1FE007F000
1FE007F000
1FE007F000
1FE007F000
1FE007F000
1FE007F000
1FE007F000
1FE007F000
1FE007F000
1FE007F000
1FE007F000
1FE007F000
1FE007F000
1FE007F000
1FE007F000
1FE007F000
ENDCHAR
STARTCHAR fi
ENCODING 64257
SWIDTH 636 0
DWIDTH 31 0
BBX 27 36 1 0
BITMAP
00000380
007F0FC0
01FF1FE0
03FF1FE0
07FF9FE0
07FF9FE0
0FF80FE0
0FE00780
0FE00000
0FE00000
0FE00000
1FE00000
1FE00060
7FFF1FE0
FFFF1FE0
FFFF1FE0
FFFF1FE0
FFFF1FE0
1FE01FE0
1FE01FE0
1FE01FE0
1FE01FE0
1FE01FE0
1FE01FE0
1FE01FE0
1FE01FE0
1FE01FE0
1FE01FE0
1FE01FE0
1FE01FE0
1FE01FE0
1FE01FE0
1FE01FE0
1FE01FE0
1FE01FE0
1FE01FE0
ENDCHAR
STARTCHAR fl
ENCODING 64258
SWIDTH 636 0
DWIDTH 31 0
BBX 27 36 1 0
BITMAP
007F00E0
01FF1FE0
03FF1FE0
07FF1FE0
07FF9FE0
0FFF9FE0
0FF81FE0
0FE01FE0
0FE01FE0
0FE01FE0
0FE01FE0
1FE01FE0
1FE01FE0
7FFF1FE0
FFFF1FE0
FFFF1FE0
FFFF1FE0
FFFF1FE0
1FE01FE0
1FE01FE0
1FE01FE0
1FE01FE0
1FE01FE0
1FE01FE0
1FE01FE0
1FE01FE0
1FE01FE0
1FE01FE0
1FE01FE0
1FE01FE0
1FE01FE0
1FE01FE0
1FE01FE0
1FE01FE0
1FE01FE0
1FE01FE0
ENDCHAR
STARTCHAR f_f_i
ENCODING 64259
SWIDTH 1001 0
DWIDTH 48 0
BBX 45 36 1 0
BITMAP
0000000001C0
007F003FC3F0
01FF007FC7F8
03FF00FFC7F8
07FF81FFCFF8
07FF83FFC7F8
0FF803FC07F0
0FE007F801E0
0FE007F00000
0FE007F00000
0FE007F00000
1FE007F00000
1FE007F00030
7FFF3FFFC7F0
FFFF3FFFC7F0
FFFF3FFFC7F0
FFFF7FFFC7F0
FFFF7FFFC7F0
1FE007F007F0
1FE007F007F0
1FE007F007F0
1FE007F007F0
1FE007F007F0
1FE007F007F0
1FE007F007F0
1FE007F007F0
1FE007F007F0
1FE007F007F0
1FE007F007F0
1FE007F007F0
1FE007F007F0
1FE007F007F0
1FE007F007F0
1FE007F007F0
1FE007F007F0
1FE007F007F0
ENDCHAR
STARTCHAR f_f_l
ENCODING 64260
SWIDTH 1001 0
DWIDTH 48 0
BBX 44 36 1 0
BITMAP
007F003FC030
01FF007FC7F0
03FF00FFC7F0
07FF01FFC7F0
07FF83FFC7F0
0FFF83FFC7F0
0FF803FC07F0
0FE007F807F0
0FE007F007F0
0FE007F007F0
0FE007F007F0
1FE007F007F0
1FE007F007F0
7FFF3FFFC7F0
FFFF3FFFC7F0
FFFF3FFFC7F0
FFFF7FFFC7F0
FFFF7FFFC7F0
1FE007F007F0
1FE007F007F0
1FE007F007F0
1FE007F007F0
1FE007F007F0
1FE007F007F0
1FE007F007F0
1FE007F007F0
1FE007F007F0
1FE007F007F0
1FE007F007F0
1FE007F007F0
1FE007F007F0
1FE007F007F0
1FE007F007F0
1FE007F007F0
1FE007F007F0
1FE007F007F0
ENDCHAR
STARTCHAR .notdef
ENCODING -1
SWIDTH 500 0
DWIDTH 24 0
BBX 24 47 0 -9
BITMAP
FFFFFF
FFFFFF
F0000F
F0000F
F8001F
F8001F
D8001B
DC003B
CC0033
CE0073
C60063
C700E3
C300C3
C381C3
C38183
C1C383
C1C383
C0E703
C0E703
C06603
C07E03
C03C03
C03C03
C01803
C03C03
C03C03
C07E03
C06603
C0E703
C0E703
C1C383
C1C383
C18183
C381C3
C300C3
C700E3
C60063
CE0073
CC0033
DC003B
D8001B
F8001F
F8001F
F0000F
F0000F
FFFFFF
FFFFFF
ENDCHAR
STARTCHAR G.alt
ENCODING -1
SWIDTH 741 0
DWIDTH 36 0
BBX 31 36 2 -1
BITMAP
0003FE00
001FFFC0
007FFFF8
01FFFFFC
03FFFFFC
07FFFFF8
0FFFFFF8
1FFC00F8
1FF00030
3FE00000
3FC00000
7F800000
7F800000
7F800000
FF000000
FF000000
FF000000
FF0001FE
FF0001FE
FF0001FE
FF0001FE
FF0001FE
FF0001FE
7F8001FE
7F8001FE
7FC001FE
3FE001FC
3FF001FC
1FFC01FC
1FFFDFFC
0FFFFFFC
07FFFFFC
03FFFFFC
00FFFFF8
003FFFE0
0007FE00
ENDCHAR
STARTCHAR J.alt
ENCODING -1
SWIDTH 344 0
DWIDTH 17 0
BBX 15 47 -2 -12
BITMAP
0006
01FE
01FE
01FE
01FE
01FE
01FE
01FE
01FE
01FE
01FE
01FE
01FE
01FE
01FE
01FE
01FE
01FE
01FE
01FE
01FE
01FE
01FE
01FE
01FE
01FE
01FE
01FE
01FE
01FE
01FE
01FE
01FE
01FE
01FE
01FE
01FE
01FE
03FC
03FC
FFFC
FFFC
FFF8
FFF8
7FF0
7FE0
7F00
ENDCHAR
STARTCHAR Gbreve.alt
ENCODING -1
SWIDTH 741 0
DWIDTH 36 0
BBX 31 46 2 -1
BITMAP
003E07C0
003E07C0
003E0F80
003FBF80
001FFF80
000FFF00
0007FE00
0001F800
00000000
00000000
0003FE00
001FFFC0
007FFFF8
01FFFFFC
03FFFFFC
07FFFFF8
0FFFFFF8
1FFC00F8
1FF00030
3FE00000
3FC00000
7F800000
7F800000
7F800000
FF000000
FF000000
FF000000
FF0001FE
FF0001FE
FF0001FE
FF0001FE
FF0001FE
FF0001FE
7F8001FE
7F8001FE
7FC001FE
3FE001FC
3FF001FC
1FFC01FC
1FFFDFFC
0FFFFFFC
07FFFFFC
03FFFFFC
00FFFFF8
003FFFE0
0007FE00
ENDCHAR
STARTCHAR Gcommaaccent.alt
ENCODING -1
SWIDTH 741 0
DWIDTH 36 0
BBX 31 48 2 -13
BITMAP
0003FE00
001FFFC0
007FFFF8
01FFFFFC
03FFFFFC
07FFFFF8
0FFFFFF8
1FFC00F8
1FF00030
3FE00000
3FC00000
7F800000
7F800000
7F800000
FF000000
FF000000
FF000000
FF0001FE
FF0001FE
FF0001FE
FF0001FE
FF0001FE
FF0001FE
7F8001FE
7F8001FE
7FC001FE
3FE001FC
3FF001FC
1FFC01FC
1FFFDFFC
0FFFFFFC
07FFFFFC
03FFFFFC
00FFFFF8
003FFFE0
0007FE00
00000000
00000000
0001E000
0003F000
0003F800
0003F800
0001F800
0000F000
0001F000
0001E000
0003C000
00030000
ENDCHAR
STARTCHAR Gdotaccent.alt
ENCODING -1
SWIDTH 741 0
DWIDTH 36 0
BBX 31 46 2 -1
BITMAP
0001F000
0003F800
0003FC00
0003FC00
0003F800
0001F800
0000F000
00000000
00000000
00000000
0003FE00
001FFFC0
007FFFF8
01FFFFFC
03FFFFFC
07FFFFF8
0FFFFFF8
1FFC00F8
1FF00030
3FE00000
3FC00000
7F800000
7F800000
7F800000
FF000000
FF000000
FF000000
FF0001FE
FF0001FE
FF0001FE
FF0001FE
FF0001FE
FF0001FE
7F8001FE
7F8001FE
7FC001FE
3FE001FC
3FF001FC
1FFC01FC
1FFFDFFC
0FFFFFFC
07FFFFFC
03FFFFFC
00FFFFF8
003FFFE0
0007FE00
ENDCHAR
STARTCHAR one.alt
ENCODING -1
SWIDTH 316 0
DWIDTH 15 0
BBX 7 25 4 0
BITMAP
3E
FE
FE
FE
FE
FE
FE
FE
FE
FE
FE
FE
FE
FE
FE
FE
FE
FE
FE
FE
FE
FE
FE
FE
FE
ENDCHAR
STARTCHAR zero.lin
ENCODING -1
SWIDTH 629 0
DWIDTH 30 0
BBX 26 35 2 -1
BITMAP
003F8000
01FFE000
03FFF800
07FFFC00
0FFFFE00
1FFFFE00
1FE1FF00
3FC0FF00
3F807F80
7F803F80
7F003F80
7F003FC0
FF003FC0
FF001FC0
FF001FC0
FE001FC0
FE001FC0
FE001FC0
FE001FC0
FE001FC0
FF001FC0
FF001FC0
FF003FC0
7F003F80
7F003F80
7F807F80
7F807F00
3FC0FF00
3FE1FF00
1FFFFE00
0FFFFC00
0FFFF800
07FFF000
01FFE000
007F0000
ENDCHAR
STARTCHAR one.lin
ENCODING -1
SWIDTH 417 0
DWIDTH 20 0
BBX 15 34 1 0
BITMAP
001C
00FC
0FFC
7FFC
FFFC
FFFC
FFFC
FFFC
F9FC
41FC
01FC
01FC
01FC
01FC
01FC
01FC
01FC
01FC
01FC
01FC
01FC
01FC
01FC
01FC
01FC
01FC
01FC
01FC
01FC
01FC
01FC
01FC
01FC
01FE
ENDCHAR
STARTCHAR two.lin
ENCODING -1
SWIDTH 563 0
DWIDTH 27 0
BBX 23 34 2 -1
BITMAP
01FE00
0FFFC0
3FFFE0
FFFFF0
7FFFF8
7FFFF8
7F3FFC
7807FC
2003FC
0001FC
0001FC
0001FC
0003FC
0003F8
0003F8
0007F0
000FF0
001FE0
001FC0
003FC0
007F80
01FF00
03FE00
07FC00
0FF800
1FF000
3FE000
7FC00E
FFFFFE
FFFFFE
FFFFFE
FFFFFE
FFFFFE
FFFFFE
ENDCHAR
STARTCHAR three.lin
ENCODING -1
SWIDTH 528 0
DWIDTH 25 0
BBX 22 34 1 -1
BITMAP
01FE00
0FFFC0
3FFFE0
7FFFF0
7FFFF8
3FFFF8
3E0FFC
3003FC
0003FC
0003FC
0003F8
0007F8
000FF0
003FE0
01FFC0
0FFF00
0FFE00
07FFC0
07FFE0
03FFF8
000FF8
0003FC
0003FC
0001FC
0001FC
0001FC
8003FC
F00FFC
7FFFF8
7FFFF8
7FFFF0
7FFFE0
7FFF80
0FFC00
ENDCHAR
STARTCHAR four.lin
ENCODING -1
SWIDTH 607 0
DWIDTH 29 0
BBX 27 34 1 0
BITMAP
00008000
0001FC00
0003FC00
0007FC00
0007FC00
000FFC00
001FFC00
003FFC00
003FFC00
007FFC00
00FFFC00
01FDFC00
03F9FC00
03F9FC00
07F1FC00
0FE1FC00
1FC1FC00
3F81FC00
3F81FC00
7F01FC00
FE01FFE0
FFFFFFE0
FFFFFFE0
FFFFFFE0
FFFFFFE0
7FFFFFE0
0001FC00
0001FC00
0001FC00
0001FC00
0001FC00
0001FC00
0001FC00
0001FC00
ENDCHAR
STARTCHAR five.lin
ENCODING -1
SWIDTH 541 0
DWIDTH 26 0
BBX 22 34 2 -1
BITMAP
3FFFF8
3FFFF8
3FFFF8
3FFFF8
3FFFF8
3FFFF8
3F0000
3F0000
3F0000
3F0000
3F0000
3F0000
3F0000
3FF800
7FFF00
7FFFC0
7FFFE0
7FFFF0
39FFF8
000FF8
0003FC
0003FC
0001FC
0001FC
0003FC
0003FC
0007FC
F81FF8
FFFFF8
FFFFF0
FFFFE0
FFFFC0
7FFF80
0FFC00
ENDCHAR
STARTCHAR six.lin
ENCODING -1
SWIDTH 581 0
DWIDTH 28 0
BBX 24 36 2 -1
BITMAP
000070
0007F0
001FF8
007FF8
00FFF8
03FFF8
07FFF0
0FFF00
0FFC00
1FF000
3FE000
3FC000
7F8000
7F1F80
7F7FE0
7EFFF8
FFFFFC
FFFFFE
FFC3FE
FF80FF
FF00FF
FF007F
FE007F
FE007F
FE007F
FE007F
FF007F
7F00FF
7F80FF
7F81FE
3FFFFE
3FFFFC
1FFFF8
0FFFF0
03FFC0
00FF00
ENDCHAR
STARTCHAR seven.lin
ENCODING -1
SWIDTH 545 0
DWIDTH 26 0
BBX 24 34 1 -1
BITMAP
7FFFFE
7FFFFE
7FFFFF
7FFFFF
7FFFFF
FFFFFE
FFFFFE
0003FC
0003FC
0003F8
0007F8
0007F0
000FF0
000FE0
001FE0
001FE0
003FC0
003FC0
007F80
007F80
00FF00
00FF00
01FE00
01FE00
01FC00
03FC00
03F800
07F800
07F000
0FF000
0FF000
1FE000
1FE000
07C000
ENDCHAR
STARTCHAR eight.lin
ENCODING -1
SWIDTH 582 0
DWIDTH 28 0
BBX 24 35 2 -1
BITMAP
00FF00
03FFE0
0FFFF0
1FFFF8
3FFFFC
3FE3FE
7F80FE
7F00FE
7F007E
7F007E
7F00FE
7F80FE
3F81FE
3FE3FC
1FFFF8
0FFFF0
07FFC0
07FFE0
0FFFF8
3FFFFC
3FC7FE
7F81FE
FF00FF
FE00FF
FE007F
FE007F
FE007F
FF00FF
FF01FE
7FE7FE
7FFFFC
3FFFF8
1FFFF0
07FFE0
00FF00
ENDCHAR
STARTCHAR nine.lin
ENCODING -1
SWIDTH 581 0
DWIDTH 28 0
BBX 24 35 2 -1
BITMAP
00FF00
07FFC0
0FFFF0
1FFFF8
3FFFF8
7FFFFC
7F81FE
FF01FE
FE00FE
FE00FF
FE007F
FE007F
FE007F
FE00FF
FE00FF
FF01FF
7F83FF
7FFFFF
3FFFFF
1FFFFE
0FFEFE
03F8FE
0001FC
0003FC
0007F8
000FF8
003FF0
00FFE0
0FFFC0
1FFF80
1FFF00
1FFC00
1FF800
1FC000
0C0000
ENDCHAR
STARTCHAR hyphen.lin
ENCODING -1
SWIDTH 402 0
DWIDTH 19 0
BBX 14 5 3 14
BITMAP
FFFC
FFFC
FFFC
FFFC
FFFC
ENDCHAR
STARTCHAR endash.lin
ENCODING -1
SWIDTH 511 0
DWIDTH 25 0
BBX 19 5 3 14
BITMAP
FFFFE0
FFFFE0
FFFFE0
FFFFE0
FFFFE0
ENDCHAR
STARTCHAR emdash.lin
ENCODING -1
SWIDTH 1004 0
DWIDTH 48 0
BBX 43 5 3 14
BITMAP
FFFFFFFFFFE0
FFFFFFFFFFC0
FFFFFFFFFFC0
FFFFFFFFFFC0
FFFFFFFFFFC0
ENDCHAR
STARTCHAR parenleft.lin
ENCODING -1
SWIDTH 409 0
DWIDTH 20 0
BBX 18 46 2 -7
BITMAP
000700
001F80
003FC0
007F80
00FE00
01FC00
03F800
03F800
07F000
0FE000
0FC000
1FC000
1F8000
3F8000
3F8000
3F0000
7F0000
7F0000
7F0000
7F0000
7E0000
FE0000
FE0000
FE0000
7E0000
7F0000
7F0000
7F0000
7F0000
7F0000
3F8000
3F8000
3F8000
1FC000
1FC000
0FE000
07F000
07F000
03F800
01FC00
00FE00
007F00
003FC0
001F80
000700
000200
ENDCHAR
STARTCHAR parenright.lin
ENCODING -1
SWIDTH 409 0
DWIDTH 20 0
BBX 17 46 0 -7
BITMAP
380000
7C0000
FE0000
7F0000
3FC000
1FC000
0FE000
07F000
03F800
03F800
01FC00
00FC00
00FE00
00FE00
007F00
007F00
007F00
003F80
003F80
003F80
003F80
003F80
003F80
003F80
003F80
003F80
003F80
003F80
003F00
007F00
007F00
007E00
00FE00
00FE00
01FC00
01F800
03F800
07F000
0FE000
1FE000
3FC000
7F8000
FF0000
7C0000
780000
300000
ENDCHAR
STARTCHAR bracketleft.lin
ENCODING -1
SWIDTH 388 0
DWIDTH 19 0
BBX 15 47 3 -7
BITMAP
FFFE
FFFE
FFFE
FFFE
FFFE
FE00
FE00
FE00
FE00
FE00
FE00
FE00
FE00
FE00
FE00
FE00
FE00
FE00
FE00
FE00
FE00
FE00
FE00
FE00
FE00
FE00
FE00
FE00
FE00
FE00
FE00
FE00
FE00
FE00
FE00
FE00
FE00
FE00
FE00
FE00
FE00
FE00
FFFE
FFFE
FFFE
FFFE
FFFE
ENDCHAR
STARTCHAR bracketright.lin
ENCODING -1
SWIDTH 388 0
DWIDTH 19 0
BBX 16 46 0 -6
BITMAP
7FFE
7FFE
7FFE
FFFE
FFFE
00FE
007E
007E
007E
007E
007E
007E
007E
007E
007E
007E
007E
007E
007E
007E
007E
007E
007E
007E
007E
007E
007E
007E
007E
007E
007E
007E
007E
007E
007E
007E
007E
007E
007E
007E
007E
7FFE
7FFE
7FFE
7FFE
7FFF
ENDCHAR
STARTCHAR braceleft.lin
ENCODING -1
SWIDTH 404 0
DWIDTH 19 0
BBX 16 46 2 -6
BITMAP
0006
003E
00FE
03FF
07FC
07F0
0FE0
0FC0
1FC0
1FC0
1FC0
0FC0
0FE0
0FE0
07F0
07F0
03F8
03F8
03F8
03F0
0FF0
7FE0
FF80
FF80
FFE0
0FF0
03F0
03F8
03F8
03F8
07F0
07F0
0FF0
0FE0
0FE0
1FC0
1FC0
1FC0
0FC0
0FE0
07F0
07FC
03FF
00FE
003E
0006
ENDCHAR
STARTCHAR braceright.lin
ENCODING -1
SWIDTH 404 0
DWIDTH 19 0
BBX 15 46 2 -6
BITMAP
6000
F800
FE00
FF80
7FC0
1FE0
0FE0
07F0
07F0
07F0
07F0
07F0
0FE0
0FE0
1FE0
1FC0
1FC0
3F80
1F80
1FC0
0FF0
07FE
03FE
01FE
07FE
0FF0
1FC0
1F80
3F80
1FC0
1FC0
1FE0
0FE0
0FE0
07F0
07F0
07F0
07F0
07F0
0FE0
1FE0
7FC0
FF80
FF00
FC00
6000
ENDCHAR
STARTCHAR at.cap
ENCODING -1
SWIDTH 814 0
DWIDTH 39 0
BBX 34 36 3 -1
BITMAP
0001FE0000
000FFFC000
003FFFF000
00FE03F800
01F0007C00
03E0001E00
0780000F00
0F00000F00
0E00000780
1E01F1C380
3C07FFC3C0
380FFF83C0
381FFF81C0
703F0F81C0
703E0F81C0
707C0F81C0
F07C0F81C0
E07C1F01C0
E0F81F0380
E0F81F0380
E0F83F0780
E0F87F0700
F0FCFF0F00
70FFDF1E00
707F9FFC00
707F0FF800
783E07E000
3C00000000
3C00000000
1E00000000
0F00001000
07C0007000
03F807F800
01FFFFE000
007FFF8000
000FF80000
ENDCHAR
STARTCHAR registered.alt
ENCODING -1
SWIDTH 863 0
DWIDTH 41 0
BBX 36 36 3 -1
BITMAP
0003FC0000
001FFF8000
007FFFE000
01FC03F000
03E000FC00
07C0003E00
0F00001E00
1E00000F00
3C00000780
381FF803C0
781FFE01C0
701FFF01C0
701FFF81E0
F01F0F80E0
E01F0F80E0
E01F0F80E0
E01F0F80F0
E01FFF80F0
E01FFF00F0
E01FFC00F0
E01FFE00E0
E01F3E00E0
F01F1F00E0
701F1F81E0
701F0F81C0
781F0FC3C0
3C1F07E380
3C00000780
1E00000F00
0F00001E00
0780003E00
03E000FC00
01FC03F000
007FFFE000
001FFF8000
0003FC0000
ENDCHAR
STARTCHAR dollar.lin
ENCODING -1
SWIDTH 573 0
DWIDTH 28 0
BBX 24 44 2 -6
BITMAP
000F80
000F00
000F00
000F00
00FF00
03FFE0
0FFFF8
1FFFFE
3FFFFC
3FFFFC
7F9FFC
7F1E3C
7E1E08
FE1E00
FE1E00
FF1E00
7F9E00
7FFE00
3FFC00
3FFE00
1FFFC0
07FFF0
01FFF8
007FFC
003FFE
003FFE
003CFE
003C7F
00787F
00787F
C0787F
F0787E
FE79FE
FFFFFE
FFFFFC
FFFFF8
FFFFF0
3FFFC0
03FF00
00F800
00F800
00F800
00F000
00F000
ENDCHAR
STARTCHAR sterling.lin
ENCODING -1
SWIDTH 566 0
DWIDTH 27 0
BBX 24 35 2 -1
BITMAP
001FE0
00FFFC
01FFFE
07FFFC
07FFFC
0FFFFC
0FF81C
1FE000
1FC000
1FC000
1FC000
1FC000
1FC000
1FE000
0FFFF0
FFFFF0
FFFFF0
FFFFF0
FFFFF0
FFF800
03F800
03F800
03F800
03F800
03F000
07F000
07E000
0FC000
3FFFFF
FFFFFE
FFFFFE
FFFFFE
FFFFFE
FFFFFE
E00000
ENDCHAR
STARTCHAR Euro.lin
ENCODING -1
SWIDTH 689 0
DWIDTH 33 0
BBX 30 35 1 -1
BITMAP
00007F80
0003FFF0
000FFFFC
001FFFFC
003FFFFC
007FFFFC
00FFE07C
01FF0018
01FE0000
03FC0000
03F80000
FFF80000
FFFFFFC0
FFFFFFC0
FFFFFFC0
FFFFFFC0
0FE00000
0FE00000
0FE00000
0FE00000
FFFFFF80
FFFFFF80
FFFFFF80
FFFFFF80
FFF80000
03FC0000
03FE0004
01FF000C
01FFC07C
00FFFFFC
007FFFFC
003FFFFC
001FFFFC
0007FFF0
0000FF80
ENDCHAR
STARTCHAR yen.lin
ENCODING -1
SWIDTH 683 0
DWIDTH 33 0
BBX 31 33 1 0
BITMAP
FF8003FE
7F8007FC
7FC007F8
3FC00FF8
1FE00FF0
1FE01FE0
0FF01FE0
0FF83FC0
07F83FC0
03FC7F80
03FC7F00
01FEFF00
01FEFE00
7FFFFFF8
7FFFFFF8
7FFFFFF8
7FFFFFF8
7FFFFFF8
001FE000
000FE000
000FE000
7FFFFFF8
7FFFFFF8
7FFFFFF8
7FFFFFF8
7FFFFFF8
001FE000
001FE000
001FE000
001FE000
001FE000
001FE000
001FE000
ENDCHAR
STARTCHAR cent.lin
ENCODING -1
SWIDTH 509 0
DWIDTH 24 0
BBX 20 33 2 0
BITMAP
001F00
001F00
001E00
001E00
007E00
01FFE0
07FFF0
0FFFF0
1FFFF0
3FFFF0
7FDE60
7F1E00
FF1E00
FE1E00
FE1C00
FE3C00
FC3C00
FE3C00
FE3C00
FE3C00
FE3C00
FF3C10
7FFC70
7FFFF0
3FFFF0
1FFFF0
0FFFF0
03FFE0
007F00
007C00
007C00
007C00
007C00
ENDCHAR
STARTCHAR numbersign.lin
ENCODING -1
SWIDTH 755 0
DWIDTH 36 0
BBX 34 33 1 0
BITMAP
003F03F000
003F03F000
003F03F000
003E03E000
003E03E000
003E03E000
003E03E000
007E07E000
1FFFFFFFC0
3FFFFFFFC0
3FFFFFFF80
3FFFFFFF80
3FFFFFFF80
007C07C000
007C07C000
00FC0FC000
00FC0FC000
00FC0FC000
00F80F8000
00F80F8000
7FFFFFFF00
7FFFFFFF00
7FFFFFFF00
7FFFFFFF00
FFFFFFFF00
01F81F8000
01F01F0000
01F01F0000
01F01F0000
01F03F0000
03F03F0000
03F03F0000
03F03F0000
ENDCHAR
STARTCHAR paragraph.lin
ENCODING -1
SWIDTH 681 0
DWIDTH 33 0
BBX 27 33 2 0
BITMAP
01FFC3E0
07FFC3E0
1FFFC3E0
3FFFC3E0
7FFFC3E0
7FFFC3E0
FFFFC3E0
FFFFC3E0
FFFFC3E0
FFFFC3E0
FFFFC3E0
FFFFC3E0
FFFFC3E0
FFFFC3E0
FFFFC3E0
7FFFC3E0
7FFFC3E0
3FFFC3E0
1FFFC3E0
0FFFC3E0
03FFC3E0
001FC3E0
0007C3E0
0007C3E0
0007C3E0
0007C3E0
0007C3E0
0007C3E0
0007C3E0
0007C3E0
0007C3E0
0007C3E0
0007C3E0
ENDCHAR
STARTCHAR section.lin
ENCODING -1
SWIDTH 520 0
DWIDTH 25 0
BBX 21 42 2 -8
BITMAP
01FE00
07FFE0
0FFFF0
1FFFE0
3FFFE0
7FFFE0
7F80E0
7F0000
7F0000
7F0000
7F8000
7FE000
3FFC00
1FFF00
0FFFC0
1FFFE0
3FFFF0
7FBFF8
FE0FF8
FE03F8
FC03F8
FE01F8
FF03F8
FFC3F0
7FFFF0
3FFFE0
1FFFC0
0FFFC0
03FFE0
00FFF0
001FF0
0007F0
0007F8
8003F8
E007F0
FC0FF0
FFFFF0
FFFFE0
FFFFC0
FFFF80
1FFF00
01F000
ENDCHAR
STARTCHAR ordfeminine.lin
ENCODING -1
SWIDTH 360 0
DWIDTH 17 0
BBX 16 15 1 21
BITMAP
1FF0
7FF8
3FFC
3FFC
307C
007C
007C
1FFC
3FFC
7C7C
F87C
FCFC
FFFF
7FBF
3F3F
ENDCHAR
STARTCHAR ordmasculine.lin
ENCODING -1
SWIDTH 389 0
DWIDTH 19 0
BBX 16 16 1 20
BITMAP
03E0
0FF8
1FFE
3FFE
7E3F
7C1F
7C1F
FC1F
FC1F
FC1F
7C1F
7E3F
3FFE
3FFC
1FF8
07E0
ENDCHAR
STARTCHAR degree.lin
ENCODING -1
SWIDTH 381 0
DWIDTH 18 0
BBX 16 15 1 21
BITMAP
07E0
1FF8
3FFC
3FFE
7C3F
781F
F80F
F80F
F80F
F81F
7C3E
7FFE
3FFC
1FF8
07E0
ENDCHAR
STARTCHAR percent.lin
ENCODING -1
SWIDTH 774 0
DWIDTH 37 0
BBX 35 37 1 -2
BITMAP
0000000800
00F8000E00
03FC001F00
0FFE003E00
0FFF007E00
1F9F007C00
3F1F00F800
3E1F01F000
7C1F03F000
7C1F03E000
7C1F07C000
F81F0F8000
F83F1F8000
F83E1F0000
F87E3E0000
7CFC7C0000
7FF8FC0000
7FF0F83E00
3FE1F0FF80
0F83E1FFC0
0007E3FFC0
0007C7E7C0
000F8FC3E0
001F0F83E0
003F0F83E0
003E1F03E0
007C1F07C0
00F81F07C0
01F81F07C0
01F01F0F80
03E01F1F80
07C01F3F00
0FC01FFF00
0F800FFE00
1F0007F800
0E0003F000
0600000000
ENDCHAR
STARTCHAR quotedbl.lin
ENCODING -1
SWIDTH 404 0
DWIDTH 19 0
BBX 16 14 2 22
BITMAP
FE3F
FE3F
FC3F
FC3E
FC7E
FC7E
F87C
F87C
F87C
F07C
F078
F078
F078
E060
ENDCHAR
STARTCHAR quotesingle.lin
ENCODING -1
SWIDTH 214 0
DWIDTH 10 0
BBX 7 14 2 22
BITMAP
3E
FE
FE
FC
FC
FC
F8
F8
F8
F8
F0
F0
F0
E0
ENDCHAR
STARTCHAR plus.lin
ENCODING -1
SWIDTH 565 0
DWIDTH 27 0
BBX 21 21 3 5
BITMAP
00F800
00F800
00F800
00F800
00F800
00F800
00F800
00F800
FFFFF8
FFFFF8
FFFFF8
FFFFF8
FFFFF8
00F800
00F800
00F800
00F800
00F800
00F800
00F800
00F800
ENDCHAR
STARTCHAR minus.lin
ENCODING -1
SWIDTH 565 0
DWIDTH 27 0
BBX 19 5 4 14
BITMAP
FFFFE0
FFFFE0
FFFFE0
FFFFE0
FFFFE0
ENDCHAR
STARTCHAR divide.lin
ENCODING -1
SWIDTH 561 0
DWIDTH 27 0
BBX 21 24 3 4
BITMAP
007800
00FC00
01FC00
01FC00
01FC00
00F800
007000
000000
000000
FFFFF8
FFFFF8
FFFFF8
FFFFF8
FFFFF8
000000
000000
000000
007000
00FC00
01FC00
01FC00
01FC00
00FC00
007000
ENDCHAR
STARTCHAR equal.lin
ENCODING -1
SWIDTH 565 0
DWIDTH 27 0
BBX 19 14 4 9
BITMAP
FFFFE0
FFFFE0
FFFFE0
FFFFE0
FFFFE0
000000
000000
000000
000000
FFFFE0
FFFFE0
FFFFE0
FFFFE0
FFFFE0
ENDCHAR
STARTCHAR multiply.lin
ENCODING -1
SWIDTH 565 0
DWIDTH 27 0
BBX 21 21 3 6
BITMAP
000040
1800C0
3C01E0
7E03F0
FF07F0
3F8FE0
1FDFE0
0FFFC0
07FF80
03FF00
01FE00
03FE00
07FF00
0FFF80
1FFFC0
3FCFE0
7F87F0
FF07F8
7E03F8
3C01F0
1800C0
ENDCHAR
STARTCHAR less.lin
ENCODING -1
SWIDTH 570 0
DWIDTH 27 0
BBX 17 24 5 4
BITMAP
000400
001E00
003F00
007F80
00FF00
01FE00
07F800
0FF000
1FE000
3FC000
FF0000
FE0000
FE0000
FF8000
3FC000
1FE000
0FF000
03FC00
01FE00
00FF80
007F00
001F00
000E00
000400
ENDCHAR
STARTCHAR greater.lin
ENCODING -1
SWIDTH 570 0
DWIDTH 27 0
BBX 16 24 6 4
BITMAP
3000
7800
FC00
FF00
FF80
3FC0
1FE0
0FF8
03FC
01FE
00FF
003F
007F
01FE
03FC
07F8
0FF0
3FC0
7F80
FF00
FE00
7C00
7000
2000
ENDCHAR
STARTCHAR plusminus.lin
ENCODING -1
SWIDTH 565 0
DWIDTH 27 0
BBX 20 27 4 3
BITMAP
01F000
01F000
01F000
01F000
01F000
01F000
01F000
FFFFF0
FFFFE0
FFFFE0
FFFFE0
FFFFE0
01F000
01F000
01F000
01F000
01F000
01F000
01F000
000000
000000
000000
FFFFF0
FFFFE0
FFFFE0
FFFFE0
FFFFE0
ENDCHAR
STARTCHAR space.tab
ENCODING -1
SWIDTH 280 0
DWIDTH 13 0
BBX 1 1 0 0
BITMAP
00
ENDCHAR
STARTCHAR NUL
ENCODING -1
SWIDTH 0 0
DWIDTH 0 0
BBX 1 1 0 0
BITMAP
00
ENDCHAR
STARTCHAR hfjslug
ENCODING -1
SWIDTH 694 0
DWIDTH 33 0
BBX 29 48 2 -10
BITMAP
03FFFE00
03FFFE00
03FFFF00
FFFFFFF8
FFFFFFF8
FFFFFFF8
FFFFFFF8
FFFFFFF8
FFFFFFF8
FFFFFFF8
FFFFFFF8
FEDF8DF8
FED9BDF8
FED5BDF8
FEDDBDF8
FEDB8DF8
FED4BDF8
FED5BDF8
FED4B3F8
FFFFFFF8
FFFFFFF8
FFFFFFF8
F67773F8
F6EEB7F8
F6DFDF78
FFFFFFF8
FFFFFFF8
FFFFFFF8
FFFFFFF8
FFFFFFF8
7FFFFFF8
3FFFFFF8
3FFFFFF8
FFFFFFF8
FFFFFFF8
FFFFFFF8
FFFFFFF8
FFFFFFF8
FFFFFFF8
FFFFFFF8
FFFFFFF8
FFFFFFF8
FFFFFFF8
FFFFFFF8
FFFFFFF8
FFFFFFF8
FFFFFFF8
FFC01FF8
ENDCHAR
STARTCHAR f_f_b
ENCODING -1
SWIDTH 1314 0
DWIDTH 63 0
BBX 61 37 1 -1
BITMAP
0000000000300000
007F003FC7F00000
01FF007FC7F00000
03FF00FFC7F00000
07FF81FFC7F00000
07FF83FFC7F00000
0FF803FC07F00000
0FE007F807F00000
0FE007F007F00000
0FE007F007F00000
0FE007F007F00000
1FE007F007F00000
1FE007F007F0FC00
7FFF3FFFC7F3FF00
FFFF3FFFC7FFFF80
FFFF3FFFC7FFFFC0
FFFF7FFFC7FFFFE0
FFFF7FFFC7FE7FE0
1FE007F007F81FF0
1FE007F007F00FF0
1FE007F007F007F0
1FE007F007F007F0
1FE007F007F007F8
1FE007F007F007F8
1FE007F007F007F8
1FE007F007F007F0
1FE007F007F007F0
1FE007F007F007F0
1FE007F007F00FF0
1FE007F007F00FE0
1FE007F007F01FE0
1FE007F007FC7FC0
1FE007F007FFFFC0
1FE007F007FFFF80
1FE007F007FFFF00
1FE007F007DFFC00
000000000603F000
ENDCHAR
STARTCHAR f_f_h
ENCODING -1
SWIDTH 1317 0
DWIDTH 63 0
BBX 60 36 1 0
BITMAP
007F003FC0300000
01FF007FC7F00000
03FF00FFC7F00000
07FF01FFC7F00000
07FF83FFC7F00000
0FFF83FFC7F00000
0FF803FC07F00000
0FE007F807F00000
0FE007F007F00000
0FE007F007F00000
0FE007F007F00000
1FE007F007F00000
1FE007F007F03E00
7FFF3FFFC7F0FF80
FFFF3FFFC7F3FFC0
FFFF3FFFC7F7FFC0
FFFF7FFFC7F7FFE0
FFFF7FFFC7FFFFE0
1FE007F007FF1FE0
1FE007F007FC0FE0
1FE007F007F80FE0
1FE007F007F00FE0
1FE007F007F00FE0
1FE007F007F00FE0
1FE007F007F00FE0
1FE007F007F00FE0
1FE007F007F00FE0
1FE007F007F00FE0
1FE007F007F00FE0
1FE007F007F00FE0
1FE007F007F00FE0
1FE007F007F00FE0
1FE007F007F00FE0
1FE007F007F00FE0
1FE007F007F00FE0
1FE007F007F00FF0
ENDCHAR
STARTCHAR f_f_j
ENCODING -1
SWIDTH 1004 0
DWIDTH 48 0
BBX 45 48 1 -12
BITMAP
0000000001C0
007F003FC3F0
01FF007FC7F8
03FF00FFC7F8
07FF81FFC7F8
07FF83FFC7F8
0FF803FC07F0
0FE007F801E0
0FE007F00000
0FE007F00000
0FE007F00000
1FE007F00000
1FE007F00010
7FFF3FFFC7F0
FFFF3FFFC7F0
FFFF3FFFC7F0
FFFF7FFFC7F0
FFFF7FFFC7F0
1FE007F007F0
1FE007F007F0
1FE007F007F0
1FE007F007F0
1FE007F007F0
1FE007F007F0
1FE007F007F0
1FE007F007F0
1FE007F007F0
1FE007F007F0
1FE007F007F0
1FE007F007F0
1FE007F007F0
1FE007F007F0
1FE007F007F0
1FE007F007F0
1FE007F007F0
1FE007F007F0
0000000007F0
0000000007F0
0000000007F0
0000000007F0
000000000FF0
000000001FF0
00000000FFE0
00000000FFE0
00000000FFC0
00000000FFC0
00000000FF80
000000007E00
ENDCHAR
STARTCHAR f_f_k
ENCODING -1
SWIDTH 1261 0
DWIDTH 61 0
BBX 59 37 1 -1
BITMAP
007F003FC0300000
01FF007FC7F00000
03FF00FFC7F00000
07FF01FFC7F00000
07FF83FFC7F00000
0FFF83FFC7F00000
0FF803FC07F00000
0FE007F807F00000
0FE007F007F00000
0FE007F007F00000
0FE007F007F00000
1FE007F007F00000
1FE007F007F00060
7FFF3FFFC7F01FC0
FFFF3FFFC7F03F80
FFFF3FFFC7F07F00
FFFF7FFFC7F0FF00
FFFF7FFFC7F0FE00
1FE007F007F1FC00
1FE007F007F3F800
1FE007F007F3F800
1FE007F007F7F000
1FE007F007FFE000
1FE007F007FFC000
1FE007F007FFE000
1FE007F007FFF000
1FE007F007F7F800
1FE007F007F7F800
1FE007F007F3FC00
1FE007F007F1FE00
1FE007F007F1FF00
1FE007F007F0FF00
1FE007F007F07F80
1FE007F007F07FC0
1FE007F007F03FC0
1FE007F007F01FE0
0000000000001F00
ENDCHAR
STARTCHAR f_b
ENCODING -1
SWIDTH 949 0
DWIDTH 46 0
BBX 43 37 1 -1
BITMAP
000000E00000
007F1FE00000
01FF1FE00000
03FF1FE00000
07FF9FE00000
07FF9FE00000
0FF81FE00000
0FE01FE00000
0FE01FE00000
0FE01FE00000
0FE01FE00000
1FE01FE00000
1FE01FE3F000
7FFF1FEFFC00
FFFF1FFFFF00
FFFF1FFFFF00
FFFF1FFFFF80
FFFF1FFCFFC0
1FE01FF03FC0
1FE01FE01FC0
1FE01FE01FE0
1FE01FE01FE0
1FE01FE00FE0
1FE01FE00FE0
1FE01FE00FE0
1FE01FE00FE0
1FE01FE00FE0
1FE01FE01FE0
1FE01FE01FC0
1FE01FE03FC0
1FE01FE07F80
1FE01FF8FF80
1FE01FFFFF00
1FE01FFFFE00
1FE01FFFFC00
1FE01F3FF800
0000180FE000
ENDCHAR
STARTCHAR f_h
ENCODING -1
SWIDTH 952 0
DWIDTH 46 0
BBX 42 36 1 0
BITMAP
007F00E00000
01FF1FE00000
03FF1FE00000
07FF1FE00000
07FF9FE00000
0FFF9FE00000
0FF81FE00000
0FE01FE00000
0FE01FE00000
0FE01FE00000
0FE01FE00000
1FE01FE00000
1FE01FE0FC00
7FFF1FE3FE00
FFFF1FE7FF00
FFFF1FEFFF80
FFFF1FFFFF80
FFFF1FFFFFC0
1FE01FFC7FC0
1FE01FF03FC0
1FE01FE03FC0
1FE01FE01FC0
1FE01FE01FC0
1FE01FE01FC0
1FE01FE01FC0
1FE01FE01FC0
1FE01FE01FC0
1FE01FE01FC0
1FE01FE01FC0
1FE01FE01FC0
1FE01FE01FC0
1FE01FE01FC0
1FE01FE03FC0
1FE01FE03FC0
1FE01FE03FC0
1FE01FE03FC0
ENDCHAR
STARTCHAR f_j
ENCODING -1
SWIDTH 639 0
DWIDTH 31 0
BBX 27 48 1 -12
BITMAP
00000380
007F0FC0
01FF1FE0
03FF1FE0
07FF9FE0
07FF9FE0
0FF80FE0
0FE00780
0FE00000
0FE00000
0FE00000
1FE00000
1FE00060
7FFF1FE0
FFFF1FE0
FFFF1FE0
FFFF1FE0
FFFF1FE0
1FE01FE0
1FE01FE0
1FE00FE0
1FE00FE0
1FE00FE0
1FE00FE0
1FE00FE0
1FE00FE0
1FE00FE0
1FE00FE0
1FE00FE0
1FE00FE0
1FE00FE0
1FE00FE0
1FE00FE0
1FE00FE0
1FE00FE0
1FE00FE0
00000FE0
00001FE0
00001FE0
00001FC0
00001FC0
00003FC0
0003FFC0
0003FF80
0001FF80
0001FF00
0001FE00
0001F800
ENDCHAR
STARTCHAR f_k
ENCODING -1
SWIDTH 896 0
DWIDTH 43 0
BBX 42 37 1 -1
BITMAP
007F00E00000
01FF1FE00000
03FF1FE00000
07FF1FE00000
07FF9FE00000
0FFF9FE00000
0FF81FE00000
0FE01FE00000
0FE01FE00000
0FE01FE00000
0FE01FE00000
1FE01FE00000
1FE01FE00080
7FFF1FE07F00
FFFF1FE0FF00
FFFF1FE0FE00
FFFF1FE1FC00
FFFF1FE3F800
1FE01FE3F800
1FE01FE7F000
1FE01FEFE000
1FE01FFFC000
1FE01FFFC000
1FE01FFF8000
1FE01FFFC000
1FE01FFFC000
1FE01FFFE000
1FE01FEFF000
1FE01FEFF800
1FE01FE7F800
1FE01FE3FC00
1FE01FE1FE00
1FE01FE1FE00
1FE01FE0FF00
1FE01FE07F80
1FE01FE07FC0
000000003C00
ENDCHAR
STARTCHAR i.dot
ENCODING -1
SWIDTH 272 0
DWIDTH 13 0
BBX 8 36 3 0
BITMAP
38
7E
FF
FF
FF
FF
FE
3C
00
00
00
00
06
FE
FE
FE
FE
FE
FE
FE
FE
FE
FE
FE
FE
FE
FE
FE
FE
FE
FE
FE
FE
FE
FE
FE
ENDCHAR
STARTCHAR caron.alt
ENCODING -1
SWIDTH 245 0
DWIDTH 12 0
BBX 5 9 4 26
BITMAP
F8
F0
F0
F0
F0
E0
E0
E0
E0
ENDCHAR
ENDFONT
